<svg xmlns="http://www.w3.org/2000/svg" width="137.5" height="28.5" viewBox="0 0 137.5 28.5"><defs><style>.cls-1{fill:#3a3a3a}.cls-2{fill:#00457c}</style></defs><g id="Layer_2" data-name="Layer 2"><g id="objects"><path class="cls-1" d="M14.8 8.3l-.2 1h-2.3L10.6 16a41.9 41.9 0 0 1-2.2 6.8 12.4 12.4 0 0 1-3.5 4.7 4.8 4.8 0 0 1-2.9 1 2 2 0 0 1-1.5-.6 1.1 1.1 0 0 1-.5-1 .9.9 0 0 1 .4-.8 1.8 1.8 0 0 1 1-.4 1.1 1.1 0 0 1 .7.3 1.4 1.4 0 0 1 .2.6.9.9 0 0 1-.3.6l-.2.3a.4.4 0 0 0 .1.3h.4a2.7 2.7 0 0 0 1.4-.5A2.9 2.9 0 0 0 5 26.2a9.9 9.9 0 0 0 1.1-2.3c.1-.5.5-1.9 1.1-4.3L9.9 9.3H7.2l.3-1 1.7-.2a1.7 1.7 0 0 0 1-.7 10 10 0 0 0 1.1-1.8A17.1 17.1 0 0 1 13 2.7a8.5 8.5 0 0 1 2.4-2 4.4 4.4 0 0 1 2.4-.7 2.6 2.6 0 0 1 1.8.6 1.7 1.7 0 0 1 .8 1.3 1.8 1.8 0 0 1-.4.9 1.2 1.2 0 0 1-.9.3l-.8-.2a.9.9 0 0 1-.3-.7 1.4 1.4 0 0 1 .2-.6l.2-.5a.4.4 0 0 0-.1-.3l-.6-.2a2.2 2.2 0 0 0-1.7.7 5.7 5.7 0 0 0-1.9 2.5 36.2 36.2 0 0 0-1.5 4.5h2.2M29.7 8.3l-2.6 9.1a12.8 12.8 0 0 0-.6 2.5c0 .2 0 .4.1.4a.2.2 0 0 0 .2.2.9.9 0 0 0 .6-.3 11.8 11.8 0 0 0 1.6-1.8l.5.3a11.9 11.9 0 0 1-2.5 2.8 2.9 2.9 0 0 1-1.7.6 1.2 1.2 0 0 1-.9-.3 1.8 1.8 0 0 1-.4-.9 9.3 9.3 0 0 1 .2-1.4c.2-.7.7-2.4 1.5-4.9a38.5 38.5 0 0 1-4.4 5.9 5.1 5.1 0 0 1-3.3 1.6 1.7 1.7 0 0 1-1.7-1.7 11.8 11.8 0 0 1 .7-3.5l1.3-4.8a7 7 0 0 0 .5-2.1.4.4 0 0 0-.1-.3h-.3l-.6.2a6.9 6.9 0 0 0-1.5 1.7l-.5-.3a7.8 7.8 0 0 1 2.5-2.6 2.7 2.7 0 0 1 1.8-.7 1 1 0 0 1 .9.4 1.3 1.3 0 0 1 .4.9 13.2 13.2 0 0 1-.6 2.9l-1.5 5a12.8 12.8 0 0 0-.6 2.5.8.8 0 0 0 .2.5l.5.2a2.7 2.7 0 0 0 1.3-.5 9.8 9.8 0 0 0 2.2-2.3 27.9 27.9 0 0 0 2.3-3.2 26.4 26.4 0 0 0 1.9-4.9l.3-1.1h2.3M40 0l-5.2 18.2a6.1 6.1 0 0 0-.4 1.7.4.4 0 0 0 .1.3l.4.2a.9.9 0 0 0 .6-.3 6.5 6.5 0 0 0 1.7-1.9l.5.5a12.1 12.1 0 0 1-2.7 2.8 3.2 3.2 0 0 1-1.8.6 1.1 1.1 0 0 1-.9-.4 1.2 1.2 0 0 1-.4-.9 7.8 7.8 0 0 1 .5-2.3l4.1-14.3a9.6 9.6 0 0 0 .5-2 .8.8 0 0 0-.2-.6 1.3 1.3 0 0 0-1-.3h-1V.9L40 0M50.4 18.4a11.7 11.7 0 0 1-3.3 2.8 6.9 6.9 0 0 1-3.4.9 4.3 4.3 0 0 1-4.7-4.5 8.8 8.8 0 0 1 1.4-4.6 10.3 10.3 0 0 1 3.5-3.7 8.4 8.4 0 0 1 4.4-1.4 3.7 3.7 0 0 1 2.5.7 2.3 2.3 0 0 1 .2 3.3 1.1 1.1 0 0 1-1 .5 1 1 0 0 1-.8-.3.9.9 0 0 1-.3-.7 1.3 1.3 0 0 1 .1-.6c0-.1.2-.3.4-.6l.5-.4c0-.2.1-.3.1-.4a.5.5 0 0 0-.3-.5 2.3 2.3 0 0 0-1.3-.3 5.1 5.1 0 0 0-3 1 8.4 8.4 0 0 0-2.5 3 10.8 10.8 0 0 0-1.3 4.7 3.1 3.1 0 0 0 3.4 3.4 4.9 4.9 0 0 0 2.3-.6 9.2 9.2 0 0 0 2.6-2.1l.5.4M53.8 8.8l5.3-.9-2.2 7.4a29.7 29.7 0 0 1 4.9-6.4 3.6 3.6 0 0 1 2.1-1 1.1 1.1 0 0 1 .8.3 2 2 0 0 1 .2.9 3.4 3.4 0 0 1-.5 1.9 1.2 1.2 0 0 1-1 .7.6.6 0 0 1-.6-.3c-.2-.1-.3-.3-.4-.7s0-.3-.1-.3l-.3-.2-.5.2a3.2 3.2 0 0 0-1.2 1.2 26.8 26.8 0 0 0-2.8 3.8 16.3 16.3 0 0 0-1.1 2.3c-.4 1.2-.7 1.9-.7 2.1l-.5 1.9h-2.4l2.9-9.5a10.7 10.7 0 0 0 .5-2.3c0-.2-.1-.3-.3-.5a1.5 1.5 0 0 0-.8-.2h-1.2v-.4M79.3 8.3l-2.7 9.1a12.8 12.8 0 0 0-.6 2.5c0 .2 0 .4.1.4l.3.2.6-.3a11.8 11.8 0 0 0 1.6-1.8l.4.3a8.7 8.7 0 0 1-2.5 2.8 2.7 2.7 0 0 1-1.6.6 1.2 1.2 0 0 1-1.3-1.2 9.3 9.3 0 0 1 .2-1.4c.2-.7.6-2.4 1.4-4.9a28.6 28.6 0 0 1-4.4 5.9 4.7 4.7 0 0 1-3.2 1.6 1.7 1.7 0 0 1-1.2-.5 1.3 1.3 0 0 1-.5-1.2 14.9 14.9 0 0 1 .6-3.5l1.4-4.8a13.3 13.3 0 0 0 .5-2.1l-.2-.3H68l-.7.2a11.9 11.9 0 0 0-1.4 1.7l-.5-.3a7.6 7.6 0 0 1 2.4-2.6 3.2 3.2 0 0 1 1.8-.7 1.3 1.3 0 0 1 1 .4 1.2 1.2 0 0 1 .3.9 13.2 13.2 0 0 1-.6 2.9l-1.4 5a12.8 12.8 0 0 0-.6 2.5c0 .2 0 .4.2.5l.5.2a3.1 3.1 0 0 0 1.3-.5 12.3 12.3 0 0 0 2.2-2.3 26.4 26.4 0 0 0 2.2-3.2 26.4 26.4 0 0 0 1.9-4.9l.4-1.2h2.3M87.7 7.9l-2 6.9a31.3 31.3 0 0 1 2.3-3.7 11.7 11.7 0 0 1 2.8-2.7 3.7 3.7 0 0 1 1.7-.5 1.9 1.9 0 0 1 1.3.5 1.7 1.7 0 0 1 .5 1.2 8.8 8.8 0 0 1-.3 2l-1.1 3.9a22.5 22.5 0 0 1 4.7-6.6 3.8 3.8 0 0 1 2.5-1 1.4 1.4 0 0 1 1.1.5 2.1 2.1 0 0 1 .5 1.5 6.8 6.8 0 0 1-.3 1.9l-1.7 5.9c-.3 1.3-.5 2-.5 2.2a.4.4 0 0 0 .1.3h.3l.5-.3a6.6 6.6 0 0 0 1.6-1.7l.6.3-1.4 1.7a6.1 6.1 0 0 1-1.7 1.4 2.2 2.2 0 0 1-1.3.4 1.2 1.2 0 0 1-1.2-1.3 14.4 14.4 0 0 1 .6-2.9l1.4-4.8.5-1.9c0-.2.1-.4.1-.6a1.4 1.4 0 0 0-.2-.6l-.4-.2a1.9 1.9 0 0 0-1.4.7 22.3 22.3 0 0 0-4 5.4 35.2 35.2 0 0 0-2.2 5.9h-2.4l2.7-9.2a8.2 8.2 0 0 0 .4-2 .8.8 0 0 0-.2-.6c-.1-.2-.2-.2-.4-.2l-1.1.3a10.5 10.5 0 0 0-2.3 2.6 17 17 0 0 0-2.3 3.7 51 51 0 0 0-1.8 5.4h-2.3l3.2-11.2a.6.6 0 0 0 .1-.4.9.9 0 0 0-.3-.6 1.1 1.1 0 0 0-.8-.3l-1.1.2v-.5l5.3-1"/><path class="cls-2" d="M114.2 16.4v-1.6h5.9v5a8.8 8.8 0 0 1-2.8 1.6 7.7 7.7 0 0 1-6.6-.3 5.5 5.5 0 0 1-2.5-2.5 7.4 7.4 0 0 1-.9-3.6 8.2 8.2 0 0 1 .9-3.8 4.9 4.9 0 0 1 2.4-2.5 7.1 7.1 0 0 1 3.6-.9 7.6 7.6 0 0 1 2.7.5 4.6 4.6 0 0 1 1.9 1.3 7 7 0 0 1 1.1 2.3l-1.7.4a4.8 4.8 0 0 0-.7-1.6 5 5 0 0 0-1.4-1 5.4 5.4 0 0 0-1.9-.3 6.6 6.6 0 0 0-2.1.3 5.6 5.6 0 0 0-1.5 1 5.5 5.5 0 0 0-.9 1.4 8.1 8.1 0 0 0-.5 2.7 6.8 6.8 0 0 0 .6 3.1 4.7 4.7 0 0 0 1.9 1.8 5.8 5.8 0 0 0 2.6.6 6.2 6.2 0 0 0 2.3-.4 5.5 5.5 0 0 0 1.7-1v-2.5h-4.1M125.2 21.7v-12h-4.5V8.1h10.9v1.6H127v12h-1.8M133.5 10.6V8.4h-.8v-.3h2.1v.3h-.9v2.2h-.4m1.5 0V8.1h.7l.6 2 .6-2h.6v2.5h-.3V8.5l-.7 2.1h-.4l-.7-2.2v2.2z"/></g></g></svg>