<svg id="Layer_1" data-name="Layer 1" xmlns="http://www.w3.org/2000/svg" viewBox="0 0 663 87.58">
  <defs>
    <style>
      .cls-1 {
        fill: #a21521;
      }
    </style>
  </defs>
  <title>redventures</title>
  <g>
    <path class="cls-1" d="M622.77,490.62c5.27,0,6.81-2.94,6.81-5.34,0-1.87-1.13-5.14-5.54-5.14h-6v10.48Zm24.51,27.18H633.46l-10.22-19.9H618v12.22h5.68v7.68H600v-7.68h6.21v-30H600v-7.68h28.25c8.82,0,13.62,5.81,13.62,12.69,0,5.21-2.54,8.88-7.81,11.29l7.34,13.69h5.88v7.68Z" transform="translate(-600 -447)"/>
    <polygon class="cls-1" points="62.77 63.12 68.12 63.12 68.12 33.14 62.77 33.14 62.77 25.46 102.64 25.46 102.64 39.81 94.03 39.81 94.03 33.14 79.93 33.14 79.93 43.55 91.29 43.55 91.29 51.24 79.93 51.24 79.93 63.12 94.03 63.12 94.03 56.38 102.64 56.38 102.64 70.8 62.77 70.8 62.77 63.12 62.77 63.12"/>
    <path class="cls-1" d="M743.78,510.12c9,0,13.22-5.81,13.22-14.83,0-9.75-4.81-15.15-13.63-15.15H739.3v30Zm-23.18,0h6.88v-30H720.6v-7.68h23.71c8.22,0,13.89,1.54,18.5,6.15a22.84,22.84,0,0,1,6.48,16.63c0,11.75-7.28,22.57-21.7,22.57h-27v-7.68Z" transform="translate(-600 -447)"/>
    <polygon points="214.16 33.14 208.82 33.14 208.82 25.46 231.26 25.46 231.26 33.14 226.05 33.14 233.6 55.84 233.73 55.84 241.34 33.14 236.34 33.14 236.34 25.46 255.44 25.46 255.44 33.14 250.09 33.14 236.94 71.14 227.79 71.14 214.16 33.14 214.16 33.14"/>
    <polygon points="271.06 63.12 276.4 63.12 276.4 33.14 271.06 33.14 271.06 25.46 310.93 25.46 310.93 39.81 302.32 39.81 302.32 33.14 288.22 33.14 288.22 43.55 299.57 43.55 299.57 51.24 288.22 51.24 288.22 63.12 302.32 63.12 302.32 56.38 310.93 56.38 310.93 70.8 271.06 70.8 271.06 63.12 271.06 63.12"/>
    <polygon points="328.09 63.12 334.17 63.12 334.17 33.14 328.09 33.14 328.09 25.46 347.06 25.46 363.69 53.77 363.82 53.77 363.82 33.14 357.94 33.14 357.94 25.46 378.31 25.46 378.31 33.14 371.9 33.14 371.9 70.8 361.75 70.8 342.38 37.48 342.25 37.48 342.25 63.12 347.93 63.12 347.93 70.8 328.09 70.8 328.09 63.12 328.09 63.12"/>
    <polygon points="436.15 43.69 428.26 43.69 428.26 33.14 421.45 33.14 421.45 63.12 428.26 63.12 428.26 70.8 402.82 70.8 402.82 63.12 409.63 63.12 409.63 33.14 402.82 33.14 402.82 43.69 394.94 43.69 394.94 25.46 436.15 25.46 436.15 43.69 436.15 43.69"/>
    <path d="M1052.44,472.46h21.1v7.68h-3.95v23c0,4.48,1.34,7.48,5.88,7.48,3.81,0,6.28-1.93,6.28-7.07V480.14H1078v-7.68h17.5v7.68h-5.67v25.37c0,10.55-9.22,12.82-15.63,12.82-8.88,0-16.43-3.4-16.43-14.49v-23.7h-5.34v-7.68Z" transform="translate(-600 -447)"/>
    <path d="M1134.38,490.62c5.28,0,6.81-2.94,6.81-5.34,0-1.87-1.13-5.14-5.54-5.14h-6v10.48Zm24.51,27.18h-13.82l-10.22-19.9h-5.21v12.22h5.67v7.68h-23.7v-7.68h6.21v-30h-6.21v-7.68h28.25c8.81,0,13.62,5.81,13.62,12.69,0,5.21-2.54,8.88-7.81,11.29l7.35,13.69h5.88v7.68Z" transform="translate(-600 -447)"/>
    <polygon points="574.38 63.12 579.72 63.12 579.72 33.14 574.38 33.14 574.38 25.46 614.25 25.46 614.25 39.81 605.63 39.81 605.63 33.14 591.55 33.14 591.55 43.55 602.89 43.55 602.89 51.24 591.55 51.24 591.55 63.12 605.63 63.12 605.63 56.38 614.25 56.38 614.25 70.8 574.38 70.8 574.38 63.12 574.38 63.12"/>
    <path d="M1232.95,502.37h7.68c-.14,4.88,3,8.22,6.95,8.22a4.93,4.93,0,0,0,5-4.88c0-8.28-20.1-7.15-20.1-21.37,0-8.82,6.61-12.36,12.22-12.36a9.43,9.43,0,0,1,8.28,4.21h.13v-3.74h7.61v13.76h-7.61c-.6-4.14-3.07-6.68-6.54-6.68-2.61,0-4.48,1.54-4.48,3.68,0,7.34,20.91,5.67,20.91,21.7,0,10.82-8.35,13.49-13.16,13.49-4,0-7.08-1.47-9.08-4.4h-.13v3.8h-7.68V502.37Z" transform="translate(-600 -447)"/>
    <polygon points="189.83 87.58 187.2 87.58 187.2 0 189.83 0 189.83 87.58 189.83 87.58"/>
  </g>
</svg>
