<?xml version="1.0" encoding="UTF-8"?>
<svg version="1.1" viewBox="0 0 1121 3956" xmlns="http://www.w3.org/2000/svg" xmlns:cc="http://creativecommons.org/ns#" xmlns:dc="http://purl.org/dc/elements/1.1/" xmlns:rdf="http://www.w3.org/1999/02/22-rdf-syntax-ns#">
 <metadata>
  <rdf:RDF>
   <cc:Work rdf:about="">
    <dc:format>image/svg+xml</dc:format>
    <dc:type rdf:resource="http://purl.org/dc/dcmitype/StillImage"/>
    <dc:title>bg-portrait-ligher-4</dc:title>
   </cc:Work>
  </rdf:RDF>
 </metadata>
 <defs>
  <style>.cls-1, .cls-3, .cls-4 {
        isolation: isolate;
      }

      .cls-2 {
        fill: #f9f1e4;
      }

      .cls-3 {
        fill: #f7e6c6;
        opacity: 0.58;
      }

      .cls-4 {
        fill: #efe3ce;
        opacity: 0.6;
      }

      .cls-5 {
        opacity: 0.4;
      }

      .cls-6 {
        fill: #fff;
      }

      .cls-7 {
        opacity: 0.25;
      }

      .cls-8 {
        opacity: 0.43;
      }

      .cls-9 {
        fill: #66b9bf;
      }

      .cls-10 {
        opacity: 0.3;
      }

      .cls-11 {
        fill: #07889b;
      }

      .cls-12 {
        fill: #27334f;
      }

      .cls-13 {
        fill: #74bbce;
      }

      .cls-14 {
        fill: #3175cd;
      }

      .cls-15 {
        fill: #06666d;
      }

      .cls-16 {
        fill: #09abb7;
      }

      .cls-17 {
        opacity: 0.5;
      }

      .cls-18 {
        opacity: 0.05;
        mix-blend-mode: lighten;
      }

      .cls-19 {
        fill: #33608c;
      }

      .cls-20 {
        fill: #6c9fc1;
      }

      .cls-21 {
        fill: #0bb1b5;
      }

      .cls-22 {
        fill: #06727a;
      }

      .cls-23 {
        fill: #6e9fc4;
      }

      .cls-24 {
        fill: #78add6;
      }

      .cls-25 {
        fill: #5c83a7;
      }</style>
 </defs>
 <title>bg-portrait-ligher-4</title>
 <g class="cls-1" style="isolation:isolate">
  <g data-name="Layer 1">
   <g id="portrait_bg" data-name="portrait bg">
    <rect class="cls-2" width="1121" height="1978" fill="#f9f1e4"/>
   </g>
   <rect class="cls-2" y="1978" width="1121" height="1978" fill="#f9f1e4"/>
   <circle class="cls-3" cx="203.5" cy="341.5" r="158.5" fill="#f7e6c6" opacity=".58" style="isolation:isolate"/>
   <polygon class="cls-4" transform="matrix(1 0 0 1.746 0 227.54)" points="-62 -82 -415 198 930 2077" fill="#efe3ce" opacity=".6" style="isolation:isolate"/>
   <g class="cls-5" transform="translate(-29.467 1900.6)" opacity=".4">
    <path class="cls-6" d="m592 1069.4c0-18.9-21.6-34.6-50.1-37.8-8.6-31.4-45.4-54.9-89.4-54.9-26 0-49.5 8.2-66.1 21.4-18.6-30.3-49.1-50.1-83.7-50.1s-65.1 19.8-83.6 50c-32.3 4.5-59.3 21.9-72.7 45.4h-3c-35.5 0-64.3 12-64.3 26.8a13.16 13.16 0 0 0 1.5 5.8h510.5a25 25 0 0 0 0.9-6.6z" fill="#fff"/>
   </g>
   <polygon class="cls-3" transform="matrix(1 0 0 1.746 0 227.54)" points="931.7 -172.2 839 2088 1330 -305" fill="#f7e6c6" opacity=".58" style="isolation:isolate"/>
   <g class="cls-7" fill="#fff" opacity=".25">
    <path class="cls-6" d="m402.5 1766.8a0.35 0.35 0 0 0 0.1 0.2h-0.3z"/>
    <path class="cls-6" d="m-81 1761c0-23.2 24.1-42.4 55.3-45.2 4.6-28.9 34.8-51.3 71.3-51.3 25.5 0 47.9 10.9 60.6 27.3a58.25 58.25 0 0 1 57.5 14c17.8-7.3 41-11.8 66.5-11.8 27.8 0 53 5.3 71.3 13.9a50.63 50.63 0 0 1-0.3-5.5c0-37.2 35.1-67.3 78.4-67.3 38.9 0 71.1 24.3 77.3 56.1 3.3-0.3 6.7-0.5 10.1-0.5 39.7 0 71.9 23.7 71.9 52.9a42 42 0 0 1-1.9 12.2c2.5-0.1 5-0.2 7.7-0.2 23.9 0 43.3 4.7 43.3 10.4a3.55 3.55 0 0 1-0.2 1h-185.2c-0.1-0.1-0.1-0.1-0.1-0.2h-0.1c0 0.1-0.1 0.1-0.1 0.2h-482.8a40.62 40.62 0 0 1-0.5-6z"/>
   </g>
   <g class="cls-7" transform="translate(606.54 709.67)" fill="#fff" opacity=".25">
    <path class="cls-6" d="m402.5 1766.8a0.35 0.35 0 0 0 0.1 0.2h-0.3z"/>
    <path class="cls-6" d="m-81 1761c0-23.2 24.1-42.4 55.3-45.2 4.6-28.9 34.8-51.3 71.3-51.3 25.5 0 47.9 10.9 60.6 27.3a58.25 58.25 0 0 1 57.5 14c17.8-7.3 41-11.8 66.5-11.8 27.8 0 53 5.3 71.3 13.9a50.63 50.63 0 0 1-0.3-5.5c0-37.2 35.1-67.3 78.4-67.3 38.9 0 71.1 24.3 77.3 56.1 3.3-0.3 6.7-0.5 10.1-0.5 39.7 0 71.9 23.7 71.9 52.9a42 42 0 0 1-1.9 12.2c2.5-0.1 5-0.2 7.7-0.2 23.9 0 43.3 4.7 43.3 10.4a3.55 3.55 0 0 1-0.2 1h-185.2c-0.1-0.1-0.1-0.1-0.1-0.2h-0.1c0 0.1-0.1 0.1-0.1 0.2h-482.8a40.62 40.62 0 0 1-0.5-6z"/>
   </g>
   <g class="cls-8" opacity=".43">
    <path class="cls-9" d="m1513 1812.5c0-24.4-26-44.7-60.3-48.7-10.4-40.4-54.7-70.8-107.7-70.8-31.3 0-59.6 10.6-79.7 27.6-22.4-39.1-59.2-64.6-100.8-64.6s-78.4 25.5-100.8 64.5c-38.9 5.8-71.4 28.2-87.6 58.5h-3.6c-42.8 0-77.5 15.4-77.5 34.5a16.68 16.68 0 0 0 1.9 7.5h615a34.77 34.77 0 0 0 1.1-8.5z" fill="#66b9bf"/>
   </g>
   <g class="cls-10" opacity=".3">
    <path class="cls-9" d="m483.3 1091.2c0-17.9 21.9-32.8 50.7-35.7 8.7-29.6 45.9-51.9 90.4-51.9 26.3 0 50.1 7.8 66.9 20.3 18.8-28.7 49.7-47.4 84.7-47.4s65.8 18.7 84.6 47.3c32.7 4.3 60 20.7 73.6 42.9h3c35.9 0 65.1 11.3 65.1 25.3a11.25 11.25 0 0 1-1.6 5.5h-516.5a22.84 22.84 0 0 1-0.9-6.3z" fill="#66b9bf"/>
   </g>
   <g transform="translate(0 1733.4)">
    <rect class="cls-11" transform="rotate(-85.03 935.87 1906.6)" x="773.03" y="1804.7" width="325.69" height="203.79" fill="#07889b"/>
    <circle class="cls-12" transform="rotate(-85.03 930.55 1967.4)" cx="930.55" cy="1967.4" r="66.3" fill="#27334f"/>
    <g fill="#74bbce">
     <circle class="cls-13" transform="rotate(-85.03 930.34 1969.6)" cx="930.34" cy="1969.6" r="24.2"/>
     <path class="cls-13" d="m935.91 1907a60.58 60.58 0 1 0 55.1 65.6 60.62 60.62 0 0 0-55.1-65.6zm-9.6 110a49.89 49.89 0 1 1 54-45.41 49.94 49.94 0 0 1-54 45.4z"/>
     <circle class="cls-13" transform="rotate(-85.03 862.38 1752.3)" cx="862.38" cy="1752.3" r="7.5"/>
    </g>
    <circle class="cls-14" transform="rotate(-85.03 836.87 2046.1)" cx="836.86" cy="2046.2" r="7.5" fill="#3175cd"/>
    <circle class="cls-13" transform="rotate(-85.03 1034.9 1767.3)" cx="1034.9" cy="1767.3" r="7.5" fill="#74bbce"/>
    <circle class="cls-14" transform="rotate(-85.03 1009.4 2061.1)" cx="1009.4" cy="2061.1" r="7.5" fill="#3175cd"/>
    <circle class="cls-12" transform="rotate(-85.03 942.81 1822.2)" cx="942.81" cy="1822.2" r="43.8" fill="#27334f"/>
    <circle class="cls-13" transform="rotate(-85.03 942.69 1823.6)" cx="942.69" cy="1823.6" r="16" fill="#74bbce"/>
    <path class="cls-13" d="m946.41 1782.2a40.05 40.05 0 1 0 36.4 43.4 40.05 40.05 0 0 0-36.4-43.4zm-6.41 72.79a33 33 0 1 1 35.7-30.05v0.05a33 33 0 0 1-35.7 30z" fill="#74bbce"/>
    <polyline class="cls-15" points="1079.3 2030.1 1022.8 2077.6 1051 1753.2 1108.5 1704.9" fill="#06666d"/>
    <polygon class="cls-16" points="848.51 1735.6 906.01 1687.3 1107.6 1704.9 1050.6 1752.7" fill="#09abb7"/>
    <g class="cls-17" opacity=".5">
     <g fill="#fff">
      <rect class="cls-6" transform="rotate(-85.03 935.87 1906.6)" x="773.03" y="1804.7" width="325.69" height="203.79"/>
      <circle class="cls-6" transform="rotate(-85.03 930.55 1967.4)" cx="930.55" cy="1967.4" r="66.3"/>
      <circle class="cls-6" transform="rotate(-85.03 930.34 1969.6)" cx="930.34" cy="1969.6" r="24.2"/>
      <path class="cls-6" d="m935.91 1907a60.58 60.58 0 1 0 55.1 65.6 60.62 60.62 0 0 0-55.1-65.6zm-9.6 110a49.89 49.89 0 1 1 54-45.41 49.94 49.94 0 0 1-54 45.4z"/>
      <circle class="cls-6" transform="rotate(-85.03 862.38 1752.3)" cx="862.38" cy="1752.3" r="7.5"/>
      <circle class="cls-6" transform="rotate(-85.03 836.87 2046.1)" cx="836.86" cy="2046.2" r="7.5"/>
      <circle class="cls-6" transform="rotate(-85.03 1034.9 1767.3)" cx="1034.9" cy="1767.3" r="7.5"/>
      <circle class="cls-6" transform="rotate(-85.03 1009.4 2061.1)" cx="1009.4" cy="2061.1" r="7.5"/>
      <circle class="cls-6" transform="rotate(-85.03 942.81 1822.2)" cx="942.81" cy="1822.2" r="43.8"/>
      <circle class="cls-6" transform="rotate(-85.03 942.69 1823.6)" cx="942.69" cy="1823.6" r="16"/>
      <path class="cls-6" d="m946.41 1782.2a40.05 40.05 0 1 0 36.4 43.4 40.05 40.05 0 0 0-36.4-43.4zm-6.41 72.79a33 33 0 1 1 35.7-30.05v0.05a33 33 0 0 1-35.7 30z"/>
      <polyline class="cls-6" points="1079.3 2030.1 1022.8 2077.6 1051 1753.2 1108.5 1704.9"/>
      <polygon class="cls-6" points="848.51 1735.6 906.01 1687.3 1107.6 1704.9 1050.6 1752.7"/>
     </g>
    </g>
    <g class="cls-18" opacity=".05" style="mix-blend-mode:lighten">
     <g fill="#fff">
      <rect class="cls-6" transform="rotate(-85.03 935.87 1906.6)" x="773.03" y="1804.7" width="325.69" height="203.79"/>
      <circle class="cls-6" transform="rotate(-85.03 930.55 1967.4)" cx="930.55" cy="1967.4" r="66.3"/>
      <circle class="cls-6" transform="rotate(-85.03 930.34 1969.6)" cx="930.34" cy="1969.6" r="24.2"/>
      <path class="cls-6" d="m935.91 1907a60.58 60.58 0 1 0 55.1 65.6 60.62 60.62 0 0 0-55.1-65.6zm-9.6 110a49.89 49.89 0 1 1 54-45.41 49.94 49.94 0 0 1-54 45.4z"/>
      <circle class="cls-6" transform="rotate(-85.03 862.38 1752.3)" cx="862.38" cy="1752.3" r="7.5"/>
      <circle class="cls-6" transform="rotate(-85.03 836.87 2046.1)" cx="836.86" cy="2046.2" r="7.5"/>
      <circle class="cls-6" transform="rotate(-85.03 1034.9 1767.3)" cx="1034.9" cy="1767.3" r="7.5"/>
      <circle class="cls-6" transform="rotate(-85.03 1009.4 2061.1)" cx="1009.4" cy="2061.1" r="7.5"/>
      <circle class="cls-6" transform="rotate(-85.03 942.81 1822.2)" cx="942.81" cy="1822.2" r="43.8"/>
      <circle class="cls-6" transform="rotate(-85.03 942.69 1823.6)" cx="942.69" cy="1823.6" r="16"/>
      <path class="cls-6" d="m946.41 1782.2a40.05 40.05 0 1 0 36.4 43.4 40.05 40.05 0 0 0-36.4-43.4zm-6.41 72.79a33 33 0 1 1 35.7-30.05v0.05a33 33 0 0 1-35.7 30z"/>
      <polyline class="cls-6" points="1079.3 2030.1 1022.8 2077.6 1051 1753.2 1108.5 1704.9"/>
      <polygon class="cls-6" points="848.51 1735.6 906.01 1687.3 1107.6 1704.9 1050.6 1752.7"/>
     </g>
     <g class="cls-17" opacity=".5">
      <g fill="#fff">
       <rect class="cls-6" transform="rotate(-85.03 935.87 1906.6)" x="773.03" y="1804.7" width="325.69" height="203.79"/>
       <circle class="cls-6" transform="rotate(-85.03 930.55 1967.4)" cx="930.55" cy="1967.4" r="66.3"/>
       <circle class="cls-6" transform="rotate(-85.03 930.34 1969.6)" cx="930.34" cy="1969.6" r="24.2"/>
       <path class="cls-6" d="m935.91 1907a60.58 60.58 0 1 0 55.1 65.6 60.62 60.62 0 0 0-55.1-65.6zm-9.6 110a49.89 49.89 0 1 1 54-45.41 49.94 49.94 0 0 1-54 45.4z"/>
       <circle class="cls-6" transform="rotate(-85.03 862.38 1752.3)" cx="862.38" cy="1752.3" r="7.5"/>
       <circle class="cls-6" transform="rotate(-85.03 836.87 2046.1)" cx="836.86" cy="2046.2" r="7.5"/>
       <circle class="cls-6" transform="rotate(-85.03 1034.9 1767.3)" cx="1034.9" cy="1767.3" r="7.5"/>
       <circle class="cls-6" transform="rotate(-85.03 1009.4 2061.1)" cx="1009.4" cy="2061.1" r="7.5"/>
       <circle class="cls-6" transform="rotate(-85.03 942.81 1822.2)" cx="942.81" cy="1822.2" r="43.8"/>
       <circle class="cls-6" transform="rotate(-85.03 942.69 1823.6)" cx="942.69" cy="1823.6" r="16"/>
       <path class="cls-6" d="m946.41 1782.2a40.05 40.05 0 1 0 36.4 43.4 40.05 40.05 0 0 0-36.4-43.4zm-6.41 72.79a33 33 0 1 1 35.7-30.05v0.05a33 33 0 0 1-35.7 30z"/>
       <polyline class="cls-6" points="1079.3 2030.1 1022.8 2077.6 1051 1753.2 1108.5 1704.9"/>
       <polygon class="cls-6" points="848.51 1735.6 906.01 1687.3 1107.6 1704.9 1050.6 1752.7"/>
      </g>
     </g>
    </g>
   </g>
   <g transform="translate(0 1733.4)">
    <rect class="cls-11" transform="rotate(-79.06 745.7 1985.1)" x="643.3" y="1790.9" width="204.8" height="388.39" fill="#07889b"/>
    <circle class="cls-19" transform="rotate(-79.06 637.67 1979.3)" cx="637.67" cy="1979.3" r="70.3" fill="#33608c"/>
    <circle class="cls-13" transform="rotate(-79.06 639.87 1979.8)" cx="639.87" cy="1979.8" r="25.7" fill="#74bbce"/>
    <path class="cls-13" d="m574.61 1967.1a64.27 64.27 0 1 0 75.3-50.9 64.32 64.32 0 0 0-75.3 50.9zm115 22.2a52.91 52.91 0 1 1-41.9-62 52.91 52.91 0 0 1 41.9 62z" fill="#74bbce"/>
    <circle class="cls-19" transform="rotate(-79.06 849.85 2020.4)" cx="849.86" cy="2020.4" r="70.3" fill="#33608c"/>
    <circle class="cls-13" transform="rotate(-79.06 852.05 2020.8)" cx="852.05" cy="2020.8" r="25.7" fill="#74bbce"/>
    <path class="cls-13" d="m786.81 2008.1a64.27 64.27 0 1 0 75.3-50.9 64.32 64.32 0 0 0-75.3 50.9zm115 22.2a52.91 52.91 0 1 1-41.9-62 52.91 52.91 0 0 1 41.9 62z" fill="#74bbce"/>
    <rect class="cls-20" transform="rotate(-79.06 758.35 1919.9)" x="756.35" y="1725.7" width="4" height="388.49" fill="#6c9fc1"/>
    <g fill="#33608c">
     <rect class="cls-19" transform="rotate(-79.06 727.16 1894.1)" x="716.56" y="1889.6" width="21.2" height="9.1"/>
     <rect class="cls-19" transform="rotate(-79.06 781.74 1904.7)" x="771.14" y="1900.2" width="21.2" height="9.1"/>
     <rect class="cls-19" transform="rotate(-79.06 768.13 1902.1)" x="757.54" y="1897.6" width="21.2" height="9.1"/>
     <rect class="cls-19" transform="rotate(-79.06 754.45 1899.4)" x="743.85" y="1894.9" width="21.2" height="9.1"/>
     <rect class="cls-19" transform="rotate(-79.06 740.84 1896.8)" x="730.24" y="1892.3" width="21.2" height="9.1"/>
     <rect class="cls-19" transform="rotate(-79.06 795.46 1907.3)" x="784.86" y="1902.8" width="21.2" height="9.1"/>
     <rect class="cls-19" transform="rotate(-79.06 750 1969)" x="733" y="1941.4" width="34" height="55.2"/>
    </g>
    <circle class="cls-13" transform="rotate(-79.06 736.29 1966.9)" cx="736.3" cy="1966.9" r="6.8" fill="#74bbce"/>
    <circle class="cls-13" transform="rotate(-79.06 760.75 1971.6)" cx="760.75" cy="1971.6" r="6.8" fill="#74bbce"/>
    <g fill="#74bbce">
     <polygon class="cls-13" points="726.11 2058.2 723.01 2062.2 712.11 2016.8 706.81 2015.7 719.21 2067.5 724.11 2068.5 755.41 2025.1 750.11 2024.1 729.41 2052.9 720.91 2018.5 715.41 2017.4"/>
     <polygon class="cls-13" points="772.81 2028.5 767.91 2027.5 736.51 2070.9 741.81 2071.9"/>
     <polygon class="cls-13" points="743.91 2047.6 749.01 2048.6 764.41 2026.9 759.11 2025.8"/>
     <polygon class="cls-13" points="746.91 2050.8 740.61 2049.6 727.41 2069.1 733.11 2070.2"/>
    </g>
    <polygon class="cls-21" points="957.11 1921.7 994.01 1896.7 611.91 1822.9 574.91 1847.9" fill="#0bb1b5"/>
    <polygon class="cls-22" points="917.11 2122.6 954.11 2097.6 993.01 1896.5 955.71 1921.7" fill="#06727a"/>
    <polygon class="cls-23" points="892.81 1893.5 877.01 1890.5 882.31 1863.3 679.21 1824 674.01 1851.2 658.21 1848.2 666.51 1805.1 901.11 1850.5" fill="#6e9fc4"/>
    <polygon class="cls-24" points="667.01 1805.2 674.51 1800.1 908.61 1845.4 901.11 1850.5" fill="#78add6"/>
    <polygon class="cls-25" points="900.31 1888.4 892.81 1893.5 901.11 1850.5 908.61 1845.4" fill="#5c83a7"/>
    <g class="cls-17" opacity=".5">
     <g fill="#fff">
      <rect class="cls-6" transform="rotate(-79.06 745.7 1985.1)" x="643.3" y="1790.9" width="204.8" height="388.39"/>
      <circle class="cls-6" transform="rotate(-79.06 637.67 1979.3)" cx="637.67" cy="1979.3" r="70.3"/>
      <circle class="cls-6" transform="rotate(-79.06 639.87 1979.8)" cx="639.87" cy="1979.8" r="25.7"/>
      <path class="cls-6" d="m574.61 1967.1a64.27 64.27 0 1 0 75.3-50.9 64.32 64.32 0 0 0-75.3 50.9zm115 22.2a52.91 52.91 0 1 1-41.9-62 52.91 52.91 0 0 1 41.9 62z"/>
      <circle class="cls-6" transform="rotate(-79.06 849.85 2020.4)" cx="849.86" cy="2020.4" r="70.3"/>
      <circle class="cls-6" transform="rotate(-79.06 852.05 2020.8)" cx="852.05" cy="2020.8" r="25.7"/>
      <path class="cls-6" d="m786.81 2008.1a64.27 64.27 0 1 0 75.3-50.9 64.32 64.32 0 0 0-75.3 50.9zm115 22.2a52.91 52.91 0 1 1-41.9-62 52.91 52.91 0 0 1 41.9 62z"/>
      <rect class="cls-6" transform="rotate(-79.06 758.35 1919.9)" x="756.35" y="1725.7" width="4" height="388.49"/>
      <rect class="cls-6" transform="rotate(-79.06 727.16 1894.1)" x="716.56" y="1889.6" width="21.2" height="9.1"/>
      <rect class="cls-6" transform="rotate(-79.06 781.74 1904.7)" x="771.14" y="1900.2" width="21.2" height="9.1"/>
      <rect class="cls-6" transform="rotate(-79.06 768.13 1902.1)" x="757.54" y="1897.6" width="21.2" height="9.1"/>
      <rect class="cls-6" transform="rotate(-79.06 754.45 1899.4)" x="743.85" y="1894.9" width="21.2" height="9.1"/>
      <rect class="cls-6" transform="rotate(-79.06 740.84 1896.8)" x="730.24" y="1892.3" width="21.2" height="9.1"/>
      <rect class="cls-6" transform="rotate(-79.06 795.46 1907.3)" x="784.86" y="1902.8" width="21.2" height="9.1"/>
      <rect class="cls-6" transform="rotate(-79.06 750 1969)" x="733" y="1941.4" width="34" height="55.2"/>
      <circle class="cls-6" transform="rotate(-79.06 736.29 1966.9)" cx="736.3" cy="1966.9" r="6.8"/>
      <circle class="cls-6" transform="rotate(-79.06 760.75 1971.6)" cx="760.75" cy="1971.6" r="6.8"/>
      <polygon class="cls-6" points="750.11 2024.1 729.41 2052.9 720.91 2018.5 715.41 2017.4 726.11 2058.2 723.01 2062.2 712.11 2016.8 706.81 2015.7 719.21 2067.5 724.11 2068.5 755.41 2025.1"/>
      <polygon class="cls-6" points="741.81 2071.9 772.81 2028.5 767.91 2027.5 736.51 2070.9"/>
      <polygon class="cls-6" points="759.11 2025.8 743.91 2047.6 749.01 2048.6 764.41 2026.9"/>
      <polygon class="cls-6" points="733.11 2070.2 746.91 2050.8 740.61 2049.6 727.41 2069.1"/>
      <polygon class="cls-6" points="574.91 1847.9 957.11 1921.7 994.01 1896.7 611.91 1822.9"/>
      <polygon class="cls-6" points="955.71 1921.7 917.11 2122.6 954.11 2097.6 993.01 1896.5"/>
      <polygon class="cls-6" points="901.11 1850.5 892.81 1893.5 877.01 1890.5 882.31 1863.3 679.21 1824 674.01 1851.2 658.21 1848.2 666.51 1805.1"/>
      <polygon class="cls-6" points="901.11 1850.5 667.01 1805.2 674.51 1800.1 908.61 1845.4"/>
      <polygon class="cls-6" points="908.61 1845.4 900.31 1888.4 892.81 1893.5 901.11 1850.5"/>
     </g>
    </g>
    <g class="cls-18" opacity=".05" style="mix-blend-mode:lighten">
     <g fill="#fff">
      <rect class="cls-6" transform="rotate(-79.06 745.7 1985.1)" x="643.3" y="1790.9" width="204.8" height="388.39"/>
      <circle class="cls-6" transform="rotate(-79.06 637.67 1979.3)" cx="637.67" cy="1979.3" r="70.3"/>
      <circle class="cls-6" transform="rotate(-79.06 639.87 1979.8)" cx="639.87" cy="1979.8" r="25.7"/>
      <path class="cls-6" d="m574.61 1967.1a64.27 64.27 0 1 0 75.3-50.9 64.32 64.32 0 0 0-75.3 50.9zm115 22.2a52.91 52.91 0 1 1-41.9-62 52.91 52.91 0 0 1 41.9 62z"/>
      <circle class="cls-6" transform="rotate(-79.06 849.85 2020.4)" cx="849.86" cy="2020.4" r="70.3"/>
      <circle class="cls-6" transform="rotate(-79.06 852.05 2020.8)" cx="852.05" cy="2020.8" r="25.7"/>
      <path class="cls-6" d="m786.81 2008.1a64.27 64.27 0 1 0 75.3-50.9 64.32 64.32 0 0 0-75.3 50.9zm115 22.2a52.91 52.91 0 1 1-41.9-62 52.91 52.91 0 0 1 41.9 62z"/>
      <rect class="cls-6" transform="rotate(-79.06 758.35 1919.9)" x="756.35" y="1725.7" width="4" height="388.49"/>
      <rect class="cls-6" transform="rotate(-79.06 727.16 1894.1)" x="716.56" y="1889.6" width="21.2" height="9.1"/>
      <rect class="cls-6" transform="rotate(-79.06 781.74 1904.7)" x="771.14" y="1900.2" width="21.2" height="9.1"/>
      <rect class="cls-6" transform="rotate(-79.06 768.13 1902.1)" x="757.54" y="1897.6" width="21.2" height="9.1"/>
      <rect class="cls-6" transform="rotate(-79.06 754.45 1899.4)" x="743.85" y="1894.9" width="21.2" height="9.1"/>
      <rect class="cls-6" transform="rotate(-79.06 740.84 1896.8)" x="730.24" y="1892.3" width="21.2" height="9.1"/>
      <rect class="cls-6" transform="rotate(-79.06 795.46 1907.3)" x="784.86" y="1902.8" width="21.2" height="9.1"/>
      <rect class="cls-6" transform="rotate(-79.06 750 1969)" x="733" y="1941.4" width="34" height="55.2"/>
      <circle class="cls-6" transform="rotate(-79.06 736.29 1966.9)" cx="736.3" cy="1966.9" r="6.8"/>
      <circle class="cls-6" transform="rotate(-79.06 760.75 1971.6)" cx="760.75" cy="1971.6" r="6.8"/>
      <polygon class="cls-6" points="750.11 2024.1 729.41 2052.9 720.91 2018.5 715.41 2017.4 726.11 2058.2 723.01 2062.2 712.11 2016.8 706.81 2015.7 719.21 2067.5 724.11 2068.5 755.41 2025.1"/>
      <polygon class="cls-6" points="741.81 2071.9 772.81 2028.5 767.91 2027.5 736.51 2070.9"/>
      <polygon class="cls-6" points="759.11 2025.8 743.91 2047.6 749.01 2048.6 764.41 2026.9"/>
      <polygon class="cls-6" points="733.11 2070.2 746.91 2050.8 740.61 2049.6 727.41 2069.1"/>
      <polygon class="cls-6" points="574.91 1847.9 957.11 1921.7 994.01 1896.7 611.91 1822.9"/>
      <polygon class="cls-6" points="955.71 1921.7 917.11 2122.6 954.11 2097.6 993.01 1896.5"/>
      <polygon class="cls-6" points="901.11 1850.5 892.81 1893.5 877.01 1890.5 882.31 1863.3 679.21 1824 674.01 1851.2 658.21 1848.2 666.51 1805.1"/>
      <polygon class="cls-6" points="901.11 1850.5 667.01 1805.2 674.51 1800.1 908.61 1845.4"/>
      <polygon class="cls-6" points="908.61 1845.4 900.31 1888.4 892.81 1893.5 901.11 1850.5"/>
     </g>
     <g class="cls-17" opacity=".5">
      <g fill="#fff">
       <rect class="cls-6" transform="rotate(-79.06 745.7 1985.1)" x="643.3" y="1790.9" width="204.8" height="388.39"/>
       <circle class="cls-6" transform="rotate(-79.06 637.67 1979.3)" cx="637.67" cy="1979.3" r="70.3"/>
       <circle class="cls-6" transform="rotate(-79.06 639.87 1979.8)" cx="639.87" cy="1979.8" r="25.7"/>
       <path class="cls-6" d="m574.61 1967.1a64.27 64.27 0 1 0 75.3-50.9 64.32 64.32 0 0 0-75.3 50.9zm115 22.2a52.91 52.91 0 1 1-41.9-62 52.91 52.91 0 0 1 41.9 62z"/>
       <circle class="cls-6" transform="rotate(-79.06 849.85 2020.4)" cx="849.86" cy="2020.4" r="70.3"/>
       <circle class="cls-6" transform="rotate(-79.06 852.05 2020.8)" cx="852.05" cy="2020.8" r="25.7"/>
       <path class="cls-6" d="m786.81 2008.1a64.27 64.27 0 1 0 75.3-50.9 64.32 64.32 0 0 0-75.3 50.9zm115 22.2a52.91 52.91 0 1 1-41.9-62 52.91 52.91 0 0 1 41.9 62z"/>
       <rect class="cls-6" transform="rotate(-79.06 758.35 1919.9)" x="756.35" y="1725.7" width="4" height="388.49"/>
       <rect class="cls-6" transform="rotate(-79.06 727.16 1894.1)" x="716.56" y="1889.6" width="21.2" height="9.1"/>
       <rect class="cls-6" transform="rotate(-79.06 781.74 1904.7)" x="771.14" y="1900.2" width="21.2" height="9.1"/>
       <rect class="cls-6" transform="rotate(-79.06 768.13 1902.1)" x="757.54" y="1897.6" width="21.2" height="9.1"/>
       <rect class="cls-6" transform="rotate(-79.06 754.45 1899.4)" x="743.85" y="1894.9" width="21.2" height="9.1"/>
       <rect class="cls-6" transform="rotate(-79.06 740.84 1896.8)" x="730.24" y="1892.3" width="21.2" height="9.1"/>
       <rect class="cls-6" transform="rotate(-79.06 795.46 1907.3)" x="784.86" y="1902.8" width="21.2" height="9.1"/>
       <rect class="cls-6" transform="rotate(-79.06 750 1969)" x="733" y="1941.4" width="34" height="55.2"/>
       <circle class="cls-6" transform="rotate(-79.06 736.29 1966.9)" cx="736.3" cy="1966.9" r="6.8"/>
       <circle class="cls-6" transform="rotate(-79.06 760.75 1971.6)" cx="760.75" cy="1971.6" r="6.8"/>
       <polygon class="cls-6" points="706.81 2015.7 719.21 2067.5 724.11 2068.5 755.41 2025.1 750.11 2024.1 729.41 2052.9 720.91 2018.5 715.41 2017.4 726.11 2058.2 723.01 2062.2 712.11 2016.8"/>
       <polygon class="cls-6" points="736.51 2070.9 741.81 2071.9 772.81 2028.5 767.91 2027.5"/>
       <polygon class="cls-6" points="764.41 2026.9 759.11 2025.8 743.91 2047.6 749.01 2048.6"/>
       <polygon class="cls-6" points="727.41 2069.1 733.11 2070.2 746.91 2050.8 740.61 2049.6"/>
       <polygon class="cls-6" points="611.91 1822.9 574.91 1847.9 957.11 1921.7 994.01 1896.7"/>
       <polygon class="cls-6" points="993.01 1896.5 955.71 1921.7 917.11 2122.6 954.11 2097.6"/>
       <polygon class="cls-6" points="666.51 1805.1 901.11 1850.5 892.81 1893.5 877.01 1890.5 882.31 1863.3 679.21 1824 674.01 1851.2 658.21 1848.2"/>
       <polygon class="cls-6" points="908.61 1845.4 901.11 1850.5 667.01 1805.2 674.51 1800.1"/>
       <polygon class="cls-6" points="901.11 1850.5 908.61 1845.4 900.31 1888.4 892.81 1893.5"/>
      </g>
     </g>
    </g>
   </g>
  </g>
 </g>
</svg>
