<?xml version="1.0" encoding="utf-8"?>
<!-- Generator: Adobe Illustrator 21.1.0, SVG Export Plug-In . SVG Version: 6.00 Build 0)  -->
<svg version="1.1"
	 id="Layer_1" xmlns:cc="http://creativecommons.org/ns#" xmlns:dc="http://purl.org/dc/elements/1.1/" xmlns:rdf="http://www.w3.org/1999/02/22-rdf-syntax-ns#"
	 xmlns="http://www.w3.org/2000/svg" xmlns:xlink="http://www.w3.org/1999/xlink" x="0px" y="0px" viewBox="0 0 1121 3956"
	 style="enable-background:new 0 0 1121 3956;" xml:space="preserve">
<style type="text/css">
	.st0{fill:#F9F1E4;}
	.st1{opacity:0.58;fill:#F7E6C6;enable-background:new    ;}
	.st2{opacity:0.6;fill:#EFE3CE;enable-background:new    ;}
	.st3{opacity:0.4;}
	.st4{fill:#FFFFFF;}
	.st5{opacity:0.25;}
	.st6{opacity:0.43;}
	.st7{fill:#66B9BF;}
	.st8{opacity:0.3;}
	.st9{fill:none;}
	.st10{fill:#07889B;}
	.st11{fill:#27334F;}
	.st12{fill:#74BBCE;}
	.st13{fill:#3175CD;}
	.st14{fill:#06666D;}
	.st15{fill:#09ABB7;}
	.st16{fill:#33608C;}
	.st17{fill:#6C9FC1;}
	.st18{fill:#0BB1B5;}
	.st19{fill:#06727A;}
	.st20{fill:#6E9FC4;}
	.st21{fill:#78ADD6;}
	.st22{fill:#5C83A7;}
</style>
<title>new colors and portrait</title>
<g id="portrait_bg" transform="translate(-4656,-1580)">
	<rect x="4656" y="1580" class="st0" width="1121" height="1978"/>
</g>
<g transform="translate(-4656,-1580)">
	<circle class="st1" cx="4859.5" cy="1921.5" r="158.5"/>
	<polygon class="st2" points="4594,1498 4241,1778 5586,3657 	"/>
	<g class="st3">
		<path class="st4" d="M5248,2649.4c0-18.9-21.6-34.6-50.1-37.8c-8.6-31.4-45.4-54.9-89.4-54.9c-26,0-49.5,8.2-66.1,21.4
			c-18.6-30.3-49.1-50.1-83.7-50.1c-34.6,0-65.1,19.8-83.6,50c-32.3,4.5-59.3,21.9-72.7,45.4h-3c-35.5,0-64.3,12-64.3,26.8
			c0,2,0.6,4,1.5,5.8h510.5C5247.7,2653.8,5248,2651.6,5248,2649.4L5248,2649.4z"/>
	</g>
	<polygon class="st1" points="5587.7,1407.8 5495,3668 5986,1275 	"/>
	<g class="st5">
		<path class="st4" d="M5058.5,3346.8c0,0.1,0.1,0.2,0.1,0.2h-0.3C5058.3,3347,5058.4,3346.9,5058.5,3346.8L5058.5,3346.8z"/>
		<path class="st4" d="M4575,3341c0-23.2,24.1-42.4,55.3-45.2c4.6-28.9,34.8-51.3,71.3-51.3c25.5,0,47.9,10.9,60.6,27.3
			c5.5-1.7,11.2-2.5,17-2.5c15.2-0.1,29.7,5.8,40.5,16.5c17.8-7.3,41-11.8,66.5-11.8c27.8,0,53,5.3,71.3,13.9
			c-0.2-1.8-0.3-3.7-0.3-5.5c0-37.2,35.1-67.3,78.4-67.3c38.9,0,71.1,24.3,77.3,56.1c3.3-0.3,6.7-0.5,10.1-0.5
			c39.7,0,71.9,23.7,71.9,52.9c0,4.1-0.7,8.3-1.9,12.2c2.5-0.1,5-0.2,7.7-0.2c23.9,0,43.3,4.7,43.3,10.4c0,0.3-0.1,0.7-0.2,1h-185.2
			c-0.1-0.1-0.1-0.1-0.1-0.2h-0.1c0,0.1-0.1,0.1-0.1,0.2h-482.8C4575.2,3345,4575,3343,4575,3341L4575,3341z"/>
	</g>
	<g transform="translate(0,1978)">
		<rect x="4656" y="1580" class="st0" width="1121" height="1978"/>
	</g>
</g>
<g class="st6">
	<path class="st7" d="M1513,1812.5c0-24.4-26-44.7-60.3-48.7c-10.4-40.4-54.7-70.8-107.7-70.8c-31.3,0-59.6,10.6-79.7,27.6
		c-22.4-39.1-59.2-64.6-100.8-64.6c-41.6,0-78.4,25.5-100.8,64.5c-38.9,5.8-71.4,28.2-87.6,58.5c-1.2,0-2.4,0-3.6,0
		c-42.8,0-77.5,15.4-77.5,34.5c0,2.6,0.7,5.1,1.9,7.5h615C1512.6,1818.2,1513,1815.4,1513,1812.5z"/>
</g>
<g class="st8">
	<path class="st7" d="M483.3,1091.2c0-17.9,21.9-32.8,50.7-35.7c8.7-29.6,45.9-51.9,90.4-51.9c26.3,0,50.1,7.8,66.9,20.3
		c18.8-28.7,49.7-47.4,84.7-47.4c34.9,0,65.8,18.7,84.6,47.3c32.7,4.3,60,20.7,73.6,42.9c1,0,2,0,3,0c35.9,0,65.1,11.3,65.1,25.3
		c0,1.9-0.6,3.7-1.6,5.5H484.2C483.6,1095.4,483.3,1093.3,483.3,1091.2z"/>
</g>
<line class="st9" x1="1511" y1="1103" x2="1511" y2="1106"/>
<g>
	<g>
		
			<rect x="834" y="1743.8" transform="matrix(0.9962 8.663382e-02 -8.663382e-02 0.9962 168.6972 -73.9127)" class="st10" width="203.8" height="325.7"/>
		
			<ellipse transform="matrix(8.661011e-02 -0.9962 0.9962 8.661011e-02 -1109.8947 2724.0603)" class="st11" cx="930.6" cy="1967.3" rx="66.3" ry="66.3"/>
		
			<ellipse transform="matrix(8.661011e-02 -0.9962 0.9962 8.661011e-02 -1112.1852 2725.8208)" class="st12" cx="930.4" cy="1969.4" rx="24.2" ry="24.2"/>
		<path class="st12" d="M935.9,1907c-33.3-2.9-62.7,21.8-65.6,55.1c-2.9,33.3,21.8,62.7,55.1,65.6c33.3,2.9,62.7-21.8,65.6-55.1
			C993.9,1939.2,969.2,1909.9,935.9,1907z M926.3,2017c-27.4-2.4-47.8-26.6-45.4-54c2.4-27.4,26.6-47.8,54-45.4
			c27.4,2.4,47.8,26.6,45.4,54C977.9,1999.1,953.8,2019.4,926.3,2017z"/>
		
			<ellipse transform="matrix(8.661011e-02 -0.9962 0.9962 8.661011e-02 -957.8705 2459.636)" class="st12" cx="862.4" cy="1752.2" rx="7.5" ry="7.5"/>
		
			<ellipse transform="matrix(8.661011e-02 -0.9962 0.9962 8.661011e-02 -1273.9655 2702.5972)" class="st13" cx="836.9" cy="2046.1" rx="7.5" ry="7.5"/>
		
			<ellipse transform="matrix(8.661011e-02 -0.9962 0.9962 8.661011e-02 -815.2629 2645.1699)" class="st12" cx="1034.9" cy="1767.2" rx="7.5" ry="7.5"/>
		
			<ellipse transform="matrix(8.661011e-02 -0.9962 0.9962 8.661011e-02 -1131.3579 2888.1311)" class="st13" cx="1009.4" cy="2061.1" rx="7.5" ry="7.5"/>
		
			<ellipse transform="matrix(8.661011e-02 -0.9962 0.9962 8.661011e-02 -954.0494 2603.665)" class="st11" cx="942.9" cy="1822.1" rx="43.8" ry="43.8"/>
		
			<ellipse transform="matrix(8.661011e-02 -0.9962 0.9962 8.661011e-02 -955.5641 2604.8293)" class="st12" cx="942.8" cy="1823.5" rx="16" ry="16"/>
		<path class="st12" d="M946.4,1782.2c-22-1.9-41.5,14.4-43.4,36.4c-1.9,22,14.4,41.5,36.4,43.4s41.5-14.4,43.4-36.4
			S968.4,1784.1,946.4,1782.2z M940,1855c-18.1-1.6-31.6-17.6-30-35.7s17.6-31.6,35.7-30s31.6,17.6,30,35.7
			C974.2,1843.1,958.2,1856.6,940,1855z"/>
	</g>
	<polyline class="st14" points="1079.3,2030.1 1022.8,2077.6 1051,1753.2 1108.5,1704.9 	"/>
	<polygon class="st15" points="848.5,1735.6 906,1687.3 1107.6,1704.9 1050.6,1752.7 	"/>
</g>
<g>
	
		<rect x="551.6" y="1882.8" transform="matrix(0.9818 0.1898 -0.1898 0.9818 390.2624 -105.4611)" class="st10" width="388.4" height="204.8"/>
	<g>
		
			<ellipse transform="matrix(0.1898 -0.9818 0.9818 0.1898 -1426.6427 2229.7981)" class="st16" cx="637.7" cy="1979.3" rx="70.3" ry="70.3"/>
		
			<ellipse transform="matrix(0.1898 -0.9818 0.9818 0.1898 -1425.2616 2232.332)" class="st12" cx="639.9" cy="1979.7" rx="25.7" ry="25.7"/>
		<path class="st12" d="M574.6,1967.1c-6.7,34.8,16,68.5,50.9,75.3s68.5-16,75.3-50.9c6.7-34.8-16-68.5-50.9-75.3
			C615,1909.5,581.4,1932.3,574.6,1967.1z M689.6,1989.3c-5.5,28.7-33.3,47.4-62,41.9s-47.4-33.3-41.9-62
			c5.5-28.7,33.3-47.4,62-41.9C676.4,1932.9,695.2,1960.6,689.6,1989.3z"/>
	</g>
	<g>
		
			<ellipse transform="matrix(0.1898 -0.9818 0.9818 0.1898 -1294.9771 2471.3733)" class="st16" cx="849.9" cy="2020.3" rx="70.3" ry="70.3"/>
		
			<ellipse transform="matrix(0.1898 -0.9818 0.9818 0.1898 -1293.5959 2473.9072)" class="st12" cx="852.1" cy="2020.7" rx="25.7" ry="25.7"/>
		<path class="st12" d="M786.8,2008.1c-6.7,34.8,16,68.5,50.9,75.3c34.8,6.7,68.5-16,75.3-50.9c6.7-34.8-16-68.5-50.9-75.3
			C827.2,1950.5,793.6,1973.3,786.8,2008.1z M901.8,2030.3c-5.5,28.7-33.3,47.4-62,41.9c-28.7-5.5-47.4-33.3-41.9-62
			c5.5-28.7,33.3-47.4,62-41.9C888.6,1973.9,907.4,2001.7,901.8,2030.3z"/>
	</g>
	
		<rect x="564.2" y="1918" transform="matrix(0.9818 0.1898 -0.1898 0.9818 378.1221 -109.0421)" class="st17" width="388.5" height="4"/>
	
		<rect x="722.7" y="1883.6" transform="matrix(0.9818 0.1898 -0.1898 0.9818 372.6656 -103.586)" class="st16" width="9.1" height="21.2"/>
	
		<rect x="777.3" y="1894.2" transform="matrix(0.9818 0.1898 -0.1898 0.9818 375.6607 -113.7568)" class="st16" width="9.1" height="21.2"/>
	
		<rect x="763.7" y="1891.6" transform="matrix(0.9818 0.1898 -0.1898 0.9818 374.9119 -111.2141)" class="st16" width="9.1" height="21.2"/>
	
		<rect x="750" y="1888.9" transform="matrix(0.9818 0.1898 -0.1898 0.9818 374.1631 -108.6714)" class="st16" width="9.1" height="21.2"/>
	
		<rect x="736.4" y="1886.3" transform="matrix(0.9818 0.1898 -0.1898 0.9818 373.4144 -106.1287)" class="st16" width="9.1" height="21.2"/>
	
		<rect x="791" y="1896.8" transform="matrix(0.9818 0.1898 -0.1898 0.9818 376.4094 -116.2995)" class="st16" width="9.1" height="21.2"/>
	
		<rect x="722.5" y="1952.1" transform="matrix(0.9818 0.1898 -0.1898 0.9818 387.2836 -106.5648)" class="st16" width="55.2" height="34"/>
	
		<ellipse transform="matrix(0.1898 -0.9818 0.9818 0.1898 -1334.4651 2316.5066)" class="st12" cx="736.3" cy="1966.8" rx="6.8" ry="6.8"/>
	
		<ellipse transform="matrix(0.1898 -0.9818 0.9818 0.1898 -1319.2729 2344.3806)" class="st12" cx="760.8" cy="1971.5" rx="6.8" ry="6.8"/>
	<g>
		<g>
			<polygon class="st12" points="750.1,2024.1 729.4,2052.9 720.9,2018.5 715.4,2017.4 726.1,2058.2 723,2062.2 712.1,2016.8 
				706.8,2015.7 719.2,2067.5 724.1,2068.5 755.4,2025.1 			"/>
			<polygon class="st12" points="767.9,2027.5 736.5,2070.9 741.8,2071.9 772.8,2028.5 			"/>
			<polygon class="st12" points="749,2048.6 764.4,2026.9 759.1,2025.8 743.9,2047.6 			"/>
			<polygon class="st12" points="740.6,2049.6 727.4,2069.1 733.1,2070.2 746.9,2050.8 			"/>
		</g>
	</g>
	<polygon class="st18" points="957.1,1921.7 994,1896.7 611.9,1822.9 574.9,1847.9 	"/>
	<polygon class="st19" points="917.1,2122.6 954.1,2097.6 993,1896.5 955.7,1921.7 	"/>
	<polygon class="st20" points="892.8,1893.5 877,1890.5 882.3,1863.3 679.2,1824 674,1851.2 658.2,1848.2 666.5,1805.1 
		901.1,1850.5 	"/>
	<polygon class="st21" points="667,1805.2 674.5,1800.1 908.6,1845.4 901.1,1850.5 	"/>
	<polygon class="st22" points="900.3,1888.4 892.8,1893.5 901.1,1850.5 908.6,1845.4 	"/>
</g>
</svg>
