<?xml version="1.0" encoding="utf-8"?>
<!-- Generator: Adobe Illustrator 21.1.0, SVG Export Plug-In . SVG Version: 6.00 Build 0)  -->
<svg version="1.1"
	 id="Layer_1" xmlns:cc="http://creativecommons.org/ns#" xmlns:dc="http://purl.org/dc/elements/1.1/" xmlns:rdf="http://www.w3.org/1999/02/22-rdf-syntax-ns#"
	 xmlns="http://www.w3.org/2000/svg" xmlns:xlink="http://www.w3.org/1999/xlink" x="0px" y="0px" viewBox="0 0 1920 2161"
	 style="enable-background:new 0 0 1920 2161;" xml:space="preserve">
<style type="text/css">
	.st0{fill:#F9F1E4;}
	.st1{fill:#E89087;}
	.st2{opacity:0.6;fill:#EFE3CE;enable-background:new    ;}
	.st3{opacity:0.37;fill:#F2E9D7;enable-background:new    ;}
	.st4{fill:#F2E4CE;}
	.st5{opacity:0.58;fill:#F7E6C6;enable-background:new    ;}
	.st6{opacity:0.85;fill:#F9F1E4;enable-background:new    ;}
	.st7{opacity:0.25;}
	.st8{fill:#FFFFFF;}
	.st9{opacity:0.43;}
	.st10{fill:#66B9BF;}
	.st11{fill:#07889B;}
	.st12{fill:#27334F;}
	.st13{fill:#74BBCE;}
	.st14{fill:#3175CD;}
	.st15{fill:#06666D;}
	.st16{fill:#09ABB7;}
	.st17{fill:#33608C;}
	.st18{fill:#6C9FC1;}
	.st19{fill:#0BB1B5;}
	.st20{fill:#06727A;}
	.st21{fill:#6E9FC4;}
	.st22{fill:#78ADD6;}
	.st23{fill:#5C83A7;}
	.st24{opacity:0.45;}
</style>
<title>website sections light colors</title>
<g id="backgrounds" transform="translate(-2316,-2893.7)">
	<rect x="2316" y="3947.9" class="st0" width="1920" height="1106.8"/>
	<rect x="2316" y="2893.7" class="st1" width="1920" height="1080"/>
	<rect x="2316" y="2893.7" class="st0" width="1920" height="1394"/>
</g>
<g id="strobey_things" transform="translate(-2316,-2893.7)">
	<polygon class="st2" points="3970,4851.7 3093.8,2828.7 822.4,2901.4 	"/>
	<polygon class="st3" points="3958,4872 2076.1,4441.3 2108,5197.7 	"/>
	<polygon class="st4" points="3973.7,4864.1 2222.7,2831.6 881.3,2794.2 	"/>
	<polygon class="st5" points="3975.4,4898.6 4412.3,2831.2 3548.2,2734.5 	"/>
	<circle class="st6" cx="2583.5" cy="3161.2" r="158.5"/>
	<g class="st7">
		<path class="st8" d="M3791.5,3863.5c0,0.1-0.1,0.2-0.1,0.2h0.3L3791.5,3863.5L3791.5,3863.5z"/>
		<path class="st8" d="M4275,3857.7c0-23.2-24.1-42.4-55.3-45.2c-4.6-28.9-34.8-51.3-71.3-51.3c-25.5,0-47.9,10.9-60.6,27.3
			c-5.5-1.7-11.2-2.5-17-2.5c-15.2-0.1-29.7,5.8-40.5,16.5c-17.8-7.3-41-11.8-66.5-11.8c-27.8,0-53,5.3-71.3,13.9
			c0.2-1.8,0.3-3.7,0.3-5.5c0-37.2-35.1-67.3-78.4-67.3c-38.9,0-71.1,24.3-77.3,56.1c-3.3-0.3-6.7-0.5-10.1-0.5
			c-39.7,0-71.9,23.7-71.9,52.9c0,4.1,0.7,8.3,1.9,12.2c-2.5-0.1-5-0.2-7.6-0.2c-23.9,0-43.3,4.7-43.3,10.4c0,0.3,0.1,0.7,0.2,1
			h185.1c0.1-0.1,0.1-0.1,0.1-0.2l0.1,0.2h482.8C4274.7,3861.7,4275,3859.7,4275,3857.7L4275,3857.7z"/>
	</g>
	<g class="st7">
		<path class="st8" d="M2665.5,3521.5c0,0.1,0.1,0.2,0.1,0.2h-0.3C2665.4,3521.6,2665.4,3521.6,2665.5,3521.5L2665.5,3521.5z"/>
		<path class="st8" d="M2182,3515.7c0-23.2,24.1-42.4,55.3-45.2c4.6-28.9,34.8-51.3,71.3-51.3c25.5,0,47.9,10.9,60.6,27.3
			c5.5-1.7,11.2-2.5,17-2.5c15.2-0.1,29.7,5.8,40.5,16.5c17.8-7.3,41.1-11.8,66.5-11.8c27.8,0,53,5.3,71.3,13.9
			c-0.2-1.8-0.3-3.7-0.3-5.5c0-37.2,35.1-67.3,78.4-67.3c38.9,0,71.1,24.3,77.3,56.1c3.3-0.3,6.7-0.5,10.1-0.5
			c39.7,0,71.9,23.7,71.9,52.9c0,4.1-0.7,8.3-1.9,12.2c2.5-0.1,5-0.2,7.6-0.2c23.9,0,43.3,4.7,43.3,10.4c0,0.3-0.1,0.7-0.2,1h-185.2
			c-0.1-0.1-0.1-0.1-0.1-0.2h-0.1c0,0.1-0.1,0.1-0.1,0.2h-482.8C2182.2,3519.7,2182,3517.7,2182,3515.7L2182,3515.7z"/>
	</g>
	<g class="st7">
		<path class="st8" d="M4263.6,3513.6c0-11.8-12.6-21.7-29.2-23.6c-5-19.6-26.5-34.3-52.2-34.3c-15.2,0-28.9,5.1-38.6,13.4
			c-10.8-19-28.7-31.3-48.9-31.3c-20.2,0-38,12.3-48.9,31.3c-18.9,2.8-34.6,13.7-42.5,28.4h-1.8c-20.8,0-37.6,7.5-37.6,16.7
			c0,1.3,0.3,2.5,0.9,3.6h298.2C4263.4,3516.4,4263.6,3515,4263.6,3513.6L4263.6,3513.6z"/>
	</g>
</g>
<g class="st9">
	<path class="st10" d="M578.5,653.8c0-24.4-26-44.7-60.3-48.7c-10.4-40.4-54.7-70.8-107.7-70.8c-31.3,0-59.6,10.6-79.7,27.6
		c-22.4-39.1-59.2-64.6-100.8-64.6c-41.6,0-78.4,25.5-100.8,64.5c-38.9,5.8-71.4,28.2-87.6,58.5c-1.2,0-2.4,0-3.6,0
		c-42.8,0-77.5,15.4-77.5,34.5c0,2.6,0.7,5.1,1.9,7.5h615C578.1,659.5,578.5,656.7,578.5,653.8z"/>
</g>
<g>
	<g>
		
			<rect x="1606.2" y="1709.5" transform="matrix(0.9962 8.663382e-02 -8.663382e-02 0.9962 168.6281 -140.9404)" class="st11" width="203.8" height="325.7"/>
		
			<ellipse transform="matrix(8.661011e-02 -0.9962 0.9962 8.661011e-02 -370.3934 3462.0208)" class="st12" cx="1702.8" cy="1933" rx="66.3" ry="66.3"/>
		
			<ellipse transform="matrix(8.661011e-02 -0.9962 0.9962 8.661011e-02 -372.684 3463.7812)" class="st13" cx="1702.6" cy="1935.1" rx="24.2" ry="24.2"/>
		<path class="st13" d="M1708.1,1872.7c-33.3-2.9-62.7,21.8-65.6,55.1c-2.9,33.3,21.8,62.7,55.1,65.6c33.3,2.9,62.7-21.8,65.6-55.1
			C1766.1,1904.9,1741.4,1875.6,1708.1,1872.7z M1698.5,1982.7c-27.4-2.4-47.8-26.6-45.4-54c2.4-27.4,26.6-47.8,54-45.4
			c27.4,2.4,47.8,26.6,45.4,54C1750.1,1964.8,1726,1985.1,1698.5,1982.7z"/>
		
			<ellipse transform="matrix(8.661011e-02 -0.9962 0.9962 8.661011e-02 -218.3692 3197.5962)" class="st13" cx="1634.6" cy="1717.9" rx="7.5" ry="7.5"/>
		
			<ellipse transform="matrix(8.661011e-02 -0.9962 0.9962 8.661011e-02 -534.4642 3440.5574)" class="st14" cx="1609.1" cy="2011.8" rx="7.5" ry="7.5"/>
		
			<ellipse transform="matrix(8.661011e-02 -0.9962 0.9962 8.661011e-02 -75.7616 3383.1304)" class="st13" cx="1807.1" cy="1732.9" rx="7.5" ry="7.5"/>
		
			<ellipse transform="matrix(8.661011e-02 -0.9962 0.9962 8.661011e-02 -391.8566 3626.0916)" class="st14" cx="1781.6" cy="2026.7" rx="7.5" ry="7.5"/>
		
			<ellipse transform="matrix(8.661011e-02 -0.9962 0.9962 8.661011e-02 -214.5481 3341.6255)" class="st12" cx="1715.1" cy="1787.8" rx="43.8" ry="43.8"/>
		
			<ellipse transform="matrix(8.661011e-02 -0.9962 0.9962 8.661011e-02 -216.0628 3342.7898)" class="st13" cx="1715" cy="1789.2" rx="16" ry="16"/>
		<path class="st13" d="M1718.6,1747.9c-22-1.9-41.5,14.4-43.4,36.4c-1.9,22,14.4,41.5,36.4,43.4c22,1.9,41.5-14.4,43.4-36.4
			S1740.6,1749.8,1718.6,1747.9z M1712.2,1820.7c-18.1-1.6-31.6-17.6-30-35.7c1.6-18.1,17.6-31.6,35.7-30
			c18.1,1.6,31.6,17.6,30,35.7C1746.4,1808.8,1730.4,1822.3,1712.2,1820.7z"/>
	</g>
	<polyline class="st15" points="1851.5,1995.8 1795,2043.3 1823.2,1718.9 1880.7,1670.6 	"/>
	<polygon class="st16" points="1620.7,1701.3 1678.2,1653 1879.8,1670.6 1822.8,1718.4 	"/>
</g>
<g>
	
		<rect x="1323.8" y="1848.5" transform="matrix(0.9818 0.1898 -0.1898 0.9818 397.7824 -252.6183)" class="st11" width="388.4" height="204.8"/>
	<g>
		
			<ellipse transform="matrix(0.1898 -0.9818 0.9818 0.1898 -767.2894 2960.1685)" class="st17" cx="1409.9" cy="1945" rx="70.3" ry="70.3"/>
		
			<ellipse transform="matrix(0.1898 -0.9818 0.9818 0.1898 -765.9083 2962.7026)" class="st13" cx="1412.1" cy="1945.4" rx="25.7" ry="25.7"/>
		<path class="st13" d="M1346.8,1932.8c-6.7,34.8,16,68.5,50.9,75.3s68.5-16,75.3-50.9c6.7-34.8-16-68.5-50.9-75.3
			C1387.2,1875.2,1353.6,1898,1346.8,1932.8z M1461.8,1955c-5.5,28.7-33.3,47.4-62,41.9c-28.7-5.5-47.4-33.3-41.9-62
			c5.5-28.7,33.3-47.4,62-41.9C1448.6,1898.6,1467.4,1926.3,1461.8,1955z"/>
	</g>
	<g>
		
			<ellipse transform="matrix(0.1898 -0.9818 0.9818 0.1898 -635.6238 3201.7437)" class="st17" cx="1622.1" cy="1986" rx="70.3" ry="70.3"/>
		
			<ellipse transform="matrix(0.1898 -0.9818 0.9818 0.1898 -634.2427 3204.2776)" class="st13" cx="1624.3" cy="1986.4" rx="25.7" ry="25.7"/>
		<path class="st13" d="M1559,1973.8c-6.7,34.8,16,68.5,50.9,75.3c34.8,6.7,68.5-16,75.3-50.9c6.7-34.8-16-68.5-50.9-75.3
			C1599.4,1916.2,1565.8,1939,1559,1973.8z M1674,1996c-5.5,28.7-33.3,47.4-62,41.9c-28.7-5.5-47.4-33.3-41.9-62
			c5.5-28.7,33.3-47.4,62-41.9C1660.8,1939.6,1679.6,1967.3,1674,1996z"/>
	</g>
	
		<rect x="1336.4" y="1883.7" transform="matrix(0.9818 0.1898 -0.1898 0.9818 385.6421 -256.1993)" class="st18" width="388.5" height="4"/>
	
		<rect x="1494.9" y="1849.3" transform="matrix(0.9818 0.1898 -0.1898 0.9818 380.1856 -250.7433)" class="st17" width="9.1" height="21.2"/>
	
		<rect x="1549.5" y="1859.9" transform="matrix(0.9818 0.1898 -0.1898 0.9818 383.1807 -260.9141)" class="st17" width="9.1" height="21.2"/>
	
		<rect x="1535.9" y="1857.3" transform="matrix(0.9818 0.1898 -0.1898 0.9818 382.4319 -258.3714)" class="st17" width="9.1" height="21.2"/>
	
		<rect x="1522.2" y="1854.6" transform="matrix(0.9818 0.1898 -0.1898 0.9818 381.6831 -255.8287)" class="st17" width="9.1" height="21.2"/>
	
		<rect x="1508.6" y="1852" transform="matrix(0.9818 0.1898 -0.1898 0.9818 380.9344 -253.286)" class="st17" width="9.1" height="21.2"/>
	
		<rect x="1563.2" y="1862.5" transform="matrix(0.9818 0.1898 -0.1898 0.9818 383.9294 -263.4568)" class="st17" width="9.1" height="21.2"/>
	
		<rect x="1494.7" y="1917.8" transform="matrix(0.9818 0.1898 -0.1898 0.9818 394.8036 -253.7221)" class="st17" width="55.2" height="34"/>
	
		<ellipse transform="matrix(0.1898 -0.9818 0.9818 0.1898 -675.1119 3046.877)" class="st13" cx="1508.5" cy="1932.5" rx="6.8" ry="6.8"/>
	
		<ellipse transform="matrix(0.1898 -0.9818 0.9818 0.1898 -659.9197 3074.751)" class="st13" cx="1533" cy="1937.2" rx="6.8" ry="6.8"/>
	<g>
		<g>
			<polygon class="st13" points="1522.3,1989.8 1501.6,2018.6 1493.1,1984.1 1487.6,1983.1 1498.3,2023.9 1495.2,2027.9 
				1484.3,1982.4 1479,1981.4 1491.4,2033.2 1496.3,2034.2 1527.6,1990.8 			"/>
			<polygon class="st13" points="1540.1,1993.2 1508.7,2036.6 1514,2037.6 1545,1994.2 			"/>
			<polygon class="st13" points="1521.2,2014.3 1536.6,1992.6 1531.3,1991.5 1516.1,2013.3 			"/>
			<polygon class="st13" points="1512.8,2015.3 1499.6,2034.8 1505.3,2035.9 1519.1,2016.5 			"/>
		</g>
	</g>
	<polygon class="st19" points="1729.3,1887.4 1766.2,1862.4 1384.1,1788.6 1347.1,1813.5 	"/>
	<polygon class="st20" points="1689.3,2088.3 1726.3,2063.3 1765.2,1862.2 1727.9,1887.4 	"/>
	<polygon class="st21" points="1665,1859.2 1649.2,1856.2 1654.5,1829 1451.4,1789.7 1446.2,1816.9 1430.4,1813.9 1438.7,1770.8 
		1673.3,1816.2 	"/>
	<polygon class="st22" points="1439.2,1770.9 1446.7,1765.8 1680.8,1811.1 1673.3,1816.2 	"/>
	<polygon class="st23" points="1672.5,1854.1 1665,1859.2 1673.3,1816.2 1680.8,1811.1 	"/>
</g>
<g class="st24">
	<path class="st10" d="M1856.3,584.2c0-11.8-12.6-21.7-29.2-23.6c-5-19.6-26.5-34.3-52.2-34.3c-15.2,0-28.9,5.1-38.6,13.4
		c-10.8-19-28.7-31.3-48.9-31.3c-20.2,0-38,12.3-48.9,31.3c-18.9,2.8-34.6,13.7-42.5,28.4c-0.6,0-1.2,0-1.8,0
		c-20.8,0-37.6,7.5-37.6,16.7c0,1.2,0.3,2.5,0.9,3.6h298.2C1856.1,587,1856.3,585.6,1856.3,584.2z"/>
</g>
</svg>
