<?xml version="1.0" encoding="UTF-8"?>
<svg width="1923" height="1078" version="1.1" viewBox="0 0 1923 1078" xmlns="http://www.w3.org/2000/svg" xmlns:cc="http://creativecommons.org/ns#" xmlns:dc="http://purl.org/dc/elements/1.1/" xmlns:rdf="http://www.w3.org/1999/02/22-rdf-syntax-ns#" xmlns:xlink="http://www.w3.org/1999/xlink">
 <metadata>
  <rdf:RDF>
   <cc:Work rdf:about="">
    <dc:format>image/svg+xml</dc:format>
    <dc:type rdf:resource="http://purl.org/dc/dcmitype/StillImage"/>
    <dc:title>website sections light colors</dc:title>
   </cc:Work>
  </rdf:RDF>
 </metadata>
 <defs>
  <linearGradient id="linear-gradient" x1="969.41" x2="975.41" y1="3106.6" y2="2528.6" gradientUnits="userSpaceOnUse">
   <stop stop-color="#daecf4" offset="0"/>
   <stop stop-color="#acd7ea" offset="1"/>
  </linearGradient>
  <clipPath id="clip-path" transform="translate(2316 2893.7)">
   <path class="cls-1" d="m1973 2790.5c0-34.19-22.31-61.92-49.82-61.92-20.09 0-37.4 14.79-45.28 36.08a75.88 75.88 0 0 0-45.11-14.73 77.16 77.16 0 0 0-18.12 2.16c-8.86-30.94-35.32-53.4-66.58-53.4-21.32 0-40.39 10.45-53.18 26.9-22.17-19.32-52-31.17-84.9-31.17a130 130 0 0 0-73.73 22.53l-14.23-2.57c-8.07-12.08-22.54-20.41-39.31-21.3-5.42-14.91-21.27-25.71-40-25.71a47 47 0 0 0-14 2.12 34.87 34.87 0 0 0-67 18.78 79.05 79.05 0 0 0-100.76 95.05 70.1 70.1 0 0 0-35.26-9.19c-33 0-59.79 21.35-59.79 47.69a38.4 38.4 0 0 0 0.88 8.12 71.2 71.2 0 0 0-48-0.75 72.59 72.59 0 0 0-137.6 25.59c-15.91-15.1-43.87-25.13-75.73-25.13a137.47 137.47 0 0 0-44.14 7v-0.6c0-17.44-13.33-32.39-32.3-38.74a13.16 13.16 0 0 0 3.83-9c0-9.44-11.48-17.08-25.63-17.08a36.2 36.2 0 0 0-11.24 1.79 45.26 45.26 0 0 0-54.37-20.54c-0.19-21.08-18.91-38.11-42-38.11a44.73 44.73 0 0 0-21.38 5.35c2.53-7.13 2.34-14.16-1.18-19.77-7.93-12.66-29.75-13.28-48.74-1.39a57.52 57.52 0 0 0-13.86 12.06 51.13 51.13 0 0 0-26.58-7.64c-35.38 0-64.06 37.92-64.06 84.7a108.93 108.93 0 0 0 4.21 30.2 61.77 61.77 0 0 0-30.54-8.14 62.4 62.4 0 0 0-34.92 10.86c-16.88-41.19-61.79-70.65-114.55-70.65a138 138 0 0 0-27.53 2.78c-20-42.12-61.65-71.1-109.84-71.1-38.87 0-73.5 18.85-95.93 48.25-8.39-11.05-22.85-18.36-39.3-18.36a52 52 0 0 0-27.19 7.5c-4.75-16.71-19.43-28.88-36.81-28.88-21.22 0-38.43 18.16-38.43 40.57a41.07 41.07 0 0 0 18.39 34.62l-4 490.68 1945.1 6.52v-411.2c23.05-5.4 40.51-30.57 40.51-60.83z" fill="none"/>
  </clipPath>
  <radialGradient id="radial-gradient" cx="2693" cy="5995.7" r="1418.4" gradientUnits="userSpaceOnUse">
   <stop stop-color="#e89087" stop-opacity=".6" offset="0"/>
   <stop stop-color="#e9968c" stop-opacity=".63" offset=".05"/>
   <stop stop-color="#eca599" stop-opacity=".69" offset=".12"/>
   <stop stop-color="#f0bfae" stop-opacity=".81" offset=".22"/>
   <stop stop-color="#f5e2ca" stop-opacity=".96" offset=".33"/>
   <stop stop-color="#f7ebd2" offset=".36"/>
   <stop stop-color="#74d596" offset=".67"/>
   <stop stop-color="#97b0d4" offset=".99"/>
  </radialGradient>
  <radialGradient id="radial-gradient-133" cx="2693" cy="5995.7" r="1418.8" xlink:href="#radial-gradient"/>
  <clipPath id="clip-path-2" transform="translate(2316 2893.7)">
   <rect class="cls-1" transform="matrix(.95 -.3 .3 .95 -1415.6 92.58)" x="-477.34" y="4560" width="138.34" height="135.34" fill="none"/>
  </clipPath>
  <clipPath id="clip-path-3" transform="translate(2316 2893.7)">
   <rect class="cls-1" transform="matrix(.95 -.3 .3 .95 -1627.6 -190.13)" x="-1498.3" y="5105" width="138.34" height="135.34" fill="none"/>
  </clipPath>
  <clipPath id="clip-path-4" transform="translate(2316 2893.7)">
   <rect class="cls-1" transform="matrix(.95 -.3 .3 .95 -1368.5 -98.54)" x="-1072.3" y="4312" width="138.34" height="135.34" fill="none"/>
  </clipPath>
  <clipPath id="clip-path-5" transform="translate(2316 2893.7)">
   <rect class="cls-1" transform="matrix(.95 -.3 .3 .95 -1384.4 -217.52)" x="-1465.3" y="4304" width="138.34" height="135.34" fill="none"/>
  </clipPath>
  <clipPath id="clip-path-6" transform="translate(2316 2893.7)">
   <rect class="cls-1" transform="matrix(.95 -.3 .3 .95 -1565.9 -446.24)" x="-2296.3" y="4777" width="138.34" height="135.34" fill="none"/>
  </clipPath>
  <clipPath id="clip-path-7" transform="translate(2316 2893.7)">
   <rect class="cls-1" transform="matrix(.95 -.3 .3 .95 -1695.8 -317.1)" x="-1943.3" y="5262" width="138.34" height="135.34" fill="none"/>
  </clipPath>
  <clipPath id="clip-path-8" transform="translate(2316 2893.7)">
   <rect class="cls-1" transform="matrix(.95 -.3 .3 .95 -1578 75.04)" x="-615.34" y="5077" width="138.34" height="135.34" fill="none"/>
  </clipPath>
  <clipPath id="clip-path-9" transform="translate(2316 2893.7)">
   <rect class="cls-1" transform="matrix(.95 -.3 .3 .95 -1614 12)" x="-837.34" y="5162" width="138.34" height="135.34" fill="none"/>
  </clipPath>
  <clipPath id="clip-path-10" transform="translate(2316 2893.7)">
   <rect class="cls-1" transform="matrix(.95 -.3 .3 .95 -1679.7 -412.9)" x="-2245.3" y="5162" width="138.34" height="135.34" fill="none"/>
  </clipPath>
  <clipPath id="clip-path-11" transform="translate(2316 2893.7)">
   <rect class="cls-1" transform="matrix(.95 -.3 .3 .95 -1385.5 -16.51)" x="-815.34" y="4408" width="138.34" height="135.34" fill="none"/>
  </clipPath>
  <clipPath id="clip-path-12" transform="translate(2316 2893.7)">
   <rect class="cls-1" transform="matrix(.95 -.3 .3 .95 -1498.3 97.32)" x="-503.34" y="4830" width="138.34" height="135.34" fill="none"/>
  </clipPath>
  <clipPath id="clip-path-13" transform="translate(2316 2893.7)">
   <rect class="cls-1" transform="matrix(.95 -.3 .3 .95 -1478.6 -389.58)" x="-2069.3" y="4523" width="138.34" height="135.34" fill="none"/>
  </clipPath>
  <linearGradient id="linear-gradient-2" x1="-152.08" x2="1447" y1="4556.1" y2="4562" gradientUnits="userSpaceOnUse">
   <stop stop-color="#fff" stop-opacity=".13" offset="0"/>
   <stop stop-color="#e89087" stop-opacity=".3" offset="1"/>
  </linearGradient>
  <linearGradient id="linear-gradient-3" x1="-152.31" x2="1446.8" y1="4617.6" y2="4623.4" gradientTransform="translate(5156.7 -1943.4)" xlink:href="#linear-gradient-2"/>
  <linearGradient id="linear-gradient-4" x1="-152.52" x2="1446.6" y1="4676.7" y2="4682.5" gradientTransform="translate(5156.7 -1943.4)" xlink:href="#linear-gradient-2"/>
  <linearGradient id="linear-gradient-5" x1="-152.66" x2="1446.5" y1="4712.9" y2="4718.7" gradientTransform="translate(5156.7 -1943.4)" xlink:href="#linear-gradient-2"/>
  <linearGradient id="linear-gradient-6" x1="-152.71" x2="1446.4" y1="4730.5" y2="4736.3" gradientTransform="translate(5156.7 -1943.4)" xlink:href="#linear-gradient-2"/>
  <linearGradient id="linear-gradient-7" x1="-643.36" x2="1165.2" y1="5355.3" y2="5529.8" gradientTransform="translate(5156.7 -1943.4)" xlink:href="#linear-gradient-2"/>
  <linearGradient id="linear-gradient-8" x1="-625.89" x2="1182.7" y1="5173.5" y2="5347.9" gradientTransform="translate(5156.7 -1943.4)" xlink:href="#linear-gradient-2"/>
  <linearGradient id="linear-gradient-9" x1="-593.54" x2="1215.1" y1="4837.9" y2="5012.4" gradientTransform="translate(5156.7 -1943.4)" xlink:href="#linear-gradient-2"/>
  <linearGradient id="linear-gradient-10" x1="-556.76" x2="1251.4" y1="4461.3" y2="4635.7" gradientTransform="translate(5156.7 -1943.4)" xlink:href="#linear-gradient-2"/>
  <linearGradient id="linear-gradient-11" x1="-561.03" x2="1247.4" y1="4503.5" y2="4677.9" gradientTransform="translate(5156.7 -1943.4)" xlink:href="#linear-gradient-2"/>
  <linearGradient id="linear-gradient-12" x1="-555.61" x2="1253" y1="4445.2" y2="4619.7" gradientTransform="translate(5156.7 -1943.4)" xlink:href="#linear-gradient-2"/>
  <linearGradient id="linear-gradient-13" x1="-632.32" x2="1176.2" y1="5241.8" y2="5416.2" gradientTransform="translate(5156.7 -1943.4)" xlink:href="#linear-gradient-2"/>
  <linearGradient id="linear-gradient-14" x1="-568.66" x2="1239.8" y1="4581.8" y2="4756.2" gradientTransform="translate(5156.7 -1943.4)" xlink:href="#linear-gradient-2"/>
  <linearGradient id="linear-gradient-15" x1="-561.49" x2="1247" y1="4507.5" y2="4681.9" gradientTransform="translate(5156.7 -1943.4)" xlink:href="#linear-gradient-2"/>
  <linearGradient id="linear-gradient-16" x1="-531.33" x2="1277.3" y1="4142.6" y2="4317" gradientTransform="translate(5156.7 -1943.4)" xlink:href="#linear-gradient-2"/>
  <linearGradient id="linear-gradient-17" x1="-578.25" x2="1230.7" y1="4677.1" y2="4851.6" gradientTransform="translate(5156.7 -1943.4)" xlink:href="#linear-gradient-2"/>
  <linearGradient id="linear-gradient-18" x1="-602.77" x2="1205.8" y1="4934.7" y2="5109.2" gradientTransform="translate(5156.7 -1943.4)" xlink:href="#linear-gradient-2"/>
  <linearGradient id="linear-gradient-19" x1="-595.46" x2="1213" y1="4859.6" y2="5034.1" gradientTransform="translate(5156.7 -1943.4)" xlink:href="#linear-gradient-2"/>
  <linearGradient id="linear-gradient-20" x1="-588.13" x2="1220.8" y1="4779.8" y2="4954.3" gradientTransform="translate(5156.7 -1943.4)" xlink:href="#linear-gradient-2"/>
  <linearGradient id="linear-gradient-21" x1="-614.19" x2="1194.3" y1="5054" y2="5228.4" gradientTransform="translate(5156.7 -1943.4)" xlink:href="#linear-gradient-2"/>
  <linearGradient id="linear-gradient-22" x1="-545.2" x2="1263.3" y1="4338.2" y2="4512.6" gradientTransform="translate(5156.7 -1943.4)" xlink:href="#linear-gradient-2"/>
  <clipPath id="clip-path-14" transform="translate(2316 2893.7)">
   <path class="cls-2" d="m994.1 475.74 141.14-380.83c1-2.65-0.51-4.79-3.33-4.79h-24.15a7.86 7.86 0 0 0-6.87 4.79l-141.14 380.83c-1 2.64 0.51 4.78 3.33 4.78h24.15a7.87 7.87 0 0 0 6.87-4.78z" fill="#ed725a"/>
  </clipPath>
  <linearGradient id="linear-gradient-23" x1="4425" x2="5065" y1="5202.2" y2="5202.2" gradientUnits="userSpaceOnUse">
   <stop stop-color="#ff931e" offset="0"/>
   <stop stop-color="#fc921f" stop-opacity=".99" offset=".18"/>
   <stop stop-color="#f39023" stop-opacity=".95" offset=".31"/>
   <stop stop-color="#e48c29" stop-opacity=".89" offset=".43"/>
   <stop stop-color="#ce8631" stop-opacity=".8" offset=".53"/>
   <stop stop-color="#b27e3d" stop-opacity=".68" offset=".64"/>
   <stop stop-color="#90754a" stop-opacity=".54" offset=".74"/>
   <stop stop-color="#676a5a" stop-opacity=".37" offset=".83"/>
   <stop stop-color="#395e6d" stop-opacity=".18" offset=".93"/>
   <stop stop-color="#0e527e" stop-opacity="0" offset="1"/>
  </linearGradient>
  <linearGradient id="linear-gradient-24" x1="4425" x2="5065" y1="5133.2" y2="5133.2" xlink:href="#linear-gradient-23"/>
  <linearGradient id="linear-gradient-25" x1="4425" x2="5065" y1="5156.2" y2="5156.2" xlink:href="#linear-gradient-23"/>
  <linearGradient id="linear-gradient-26" x1="4425" x2="5065" y1="5179.2" y2="5179.2" xlink:href="#linear-gradient-23"/>
  <linearGradient id="linear-gradient-27" x1="1391" x2="2031" y1="3907.2" y2="3907.2" xlink:href="#linear-gradient-23"/>
  <linearGradient id="linear-gradient-28" x1="1391" x2="2031" y1="3838.2" y2="3838.2" xlink:href="#linear-gradient-23"/>
  <linearGradient id="linear-gradient-29" x1="1391" x2="2031" y1="3861.2" y2="3861.2" xlink:href="#linear-gradient-23"/>
  <linearGradient id="linear-gradient-30" x1="1394.5" x2="2027.5" y1="3884.2" y2="3884.2" gradientUnits="userSpaceOnUse">
   <stop stop-color="#fff" offset="0"/>
   <stop offset="1"/>
  </linearGradient>
  <linearGradient id="linear-gradient-31" x1="1391" x2="2031" y1="3884.2" y2="3884.2" xlink:href="#linear-gradient-23"/>
  <radialGradient id="radialGradient2851" cx="2693" cy="5995.7" r="1418.4" gradientUnits="userSpaceOnUse" xlink:href="#radial-gradient"/>
 </defs>
 <title>website sections light colors</title>
 <rect class="cls-4" width="1923" height="1078" fill="#f7ebd2"/>
 <g class="cls-7" transform="translate(-2316 -5054.7)" opacity=".4">
  <path class="cls-8" transform="translate(2316 2893.7)" d="m1973 2790.5c0-34.19-22.31-61.92-49.82-61.92-20.09 0-37.4 14.79-45.28 36.08a75.88 75.88 0 0 0-45.11-14.73 77.16 77.16 0 0 0-18.12 2.16c-8.86-30.94-35.32-53.4-66.58-53.4-21.32 0-40.39 10.45-53.18 26.9-22.17-19.32-52-31.17-84.9-31.17a130 130 0 0 0-73.73 22.53l-14.23-2.57c-8.07-12.08-22.54-20.41-39.31-21.3-5.42-14.91-21.27-25.71-40-25.71a47 47 0 0 0-14 2.12 34.87 34.87 0 0 0-67 18.78 79.05 79.05 0 0 0-100.76 95.05 70.1 70.1 0 0 0-35.26-9.19c-33 0-59.79 21.35-59.79 47.69a38.4 38.4 0 0 0 0.88 8.12 71.2 71.2 0 0 0-48-0.75 72.59 72.59 0 0 0-137.6 25.59c-15.91-15.1-43.87-25.13-75.73-25.13a137.47 137.47 0 0 0-44.14 7v-0.6c0-17.44-13.33-32.39-32.3-38.74a13.16 13.16 0 0 0 3.83-9c0-9.44-11.48-17.08-25.63-17.08a36.2 36.2 0 0 0-11.24 1.79 45.26 45.26 0 0 0-54.37-20.54c-0.19-21.08-18.91-38.11-42-38.11a44.73 44.73 0 0 0-21.38 5.35c2.53-7.13 2.34-14.16-1.18-19.77-7.93-12.66-29.75-13.28-48.74-1.39a57.52 57.52 0 0 0-13.86 12.06 51.13 51.13 0 0 0-26.58-7.64c-35.38 0-64.06 37.92-64.06 84.7a108.93 108.93 0 0 0 4.21 30.2 61.77 61.77 0 0 0-30.54-8.14 62.4 62.4 0 0 0-34.92 10.86c-16.88-41.19-61.79-70.65-114.55-70.65a138 138 0 0 0-27.53 2.78c-20-42.12-61.65-71.1-109.84-71.1-38.87 0-73.5 18.85-95.93 48.25-8.39-11.05-22.85-18.36-39.3-18.36a52 52 0 0 0-27.19 7.5c-4.75-16.71-19.43-28.88-36.81-28.88-21.22 0-38.43 18.16-38.43 40.57a41.07 41.07 0 0 0 18.39 34.62l-4 490.68 1945.1 6.52v-411.2c23.05-5.4 40.51-30.57 40.51-60.83z" fill="url(#linear-gradient)" opacity=".08"/>
  <g class="cls-9" clip-path="url(#clip-path)">
   <g class="cls-10" opacity=".5">
    <g fill="url(#radialGradient2851)">
     <rect class="cls-11" x="4082.3" y="5781.2" width="76" height="24"/>
     <rect class="cls-11" x="4082.3" y="5817.7" width="76" height="24"/>
     <rect class="cls-11" x="4082.3" y="5854.2" width="76" height="24"/>
     <rect class="cls-11" x="4082.3" y="5890.7" width="76" height="24"/>
     <rect class="cls-11" x="4082.3" y="5927.2" width="76" height="24"/>
     <rect class="cls-11" x="4082.3" y="5963.7" width="76" height="24"/>
     <rect class="cls-11" x="4082.3" y="6000.2" width="76" height="24"/>
     <rect class="cls-11" x="4082.3" y="6036.7" width="76" height="24"/>
     <rect class="cls-11" x="4082.3" y="6073.2" width="76" height="24"/>
     <rect class="cls-11" x="4082.3" y="6109.7" width="76" height="24"/>
     <rect class="cls-11" x="3993.7" y="5525.7" width="76" height="24"/>
     <rect class="cls-11" x="3993.7" y="5562.2" width="76" height="24"/>
     <rect class="cls-11" x="3993.7" y="5598.7" width="76" height="24"/>
     <rect class="cls-11" x="3993.7" y="5635.2" width="76" height="24"/>
     <rect class="cls-11" x="3993.7" y="5671.7" width="76" height="24"/>
     <rect class="cls-11" x="3993.7" y="5708.2" width="76" height="24"/>
     <rect class="cls-11" x="3993.7" y="5744.7" width="76" height="24"/>
     <rect class="cls-11" x="3993.7" y="5781.2" width="76" height="24"/>
     <rect class="cls-11" x="3993.7" y="5817.7" width="76" height="24"/>
     <rect class="cls-11" x="3993.7" y="5854.2" width="76" height="24"/>
     <rect class="cls-11" x="3993.7" y="5890.7" width="76" height="24"/>
     <rect class="cls-11" x="3993.7" y="5927.2" width="76" height="24"/>
     <rect class="cls-11" x="3993.7" y="5963.7" width="76" height="24"/>
     <rect class="cls-11" x="3993.7" y="6000.2" width="76" height="24"/>
     <rect class="cls-11" x="3993.7" y="6036.7" width="76" height="24"/>
     <rect class="cls-11" x="3993.7" y="6073.2" width="76" height="24"/>
     <rect class="cls-11" x="3993.7" y="6109.7" width="76" height="24"/>
     <rect class="cls-11" x="3905" y="5525.7" width="76" height="24"/>
     <rect class="cls-11" x="3905" y="5562.2" width="76" height="24"/>
     <rect class="cls-11" x="3905" y="5598.7" width="76" height="24"/>
     <rect class="cls-11" x="3905" y="5635.2" width="76" height="24"/>
     <rect class="cls-11" x="3905" y="5671.7" width="76" height="24"/>
     <rect class="cls-11" x="3905" y="5708.2" width="76" height="24"/>
     <rect class="cls-11" x="3905" y="5744.7" width="76" height="24"/>
     <rect class="cls-11" x="3905" y="5781.2" width="76" height="24"/>
     <rect class="cls-11" x="3905" y="5817.7" width="76" height="24"/>
     <rect class="cls-11" x="3905" y="5854.2" width="76" height="24"/>
     <rect class="cls-11" x="3905" y="5890.7" width="76" height="24"/>
     <rect class="cls-11" x="3905" y="5927.2" width="76" height="24"/>
     <rect class="cls-11" x="3905" y="5963.7" width="76" height="24"/>
     <rect class="cls-11" x="3905" y="6000.2" width="76" height="24"/>
     <rect class="cls-11" x="3905" y="6036.7" width="76" height="24"/>
     <rect class="cls-11" x="3905" y="6073.2" width="76" height="24"/>
     <rect class="cls-11" x="3905" y="6109.7" width="76" height="24"/>
     <rect class="cls-11" x="3816.3" y="5927.2" width="76" height="24"/>
     <rect class="cls-11" x="3816.3" y="5963.7" width="76" height="24"/>
     <rect class="cls-11" x="3816.3" y="6000.2" width="76" height="24"/>
     <rect class="cls-11" x="3816.3" y="6036.7" width="76" height="24"/>
     <rect class="cls-11" x="3816.3" y="6073.2" width="76" height="24"/>
     <rect class="cls-11" x="3816.3" y="6109.7" width="76" height="24"/>
     <rect class="cls-11" x="3727.7" y="5525.7" width="76" height="24"/>
     <rect class="cls-11" x="3727.7" y="5562.2" width="76" height="24"/>
     <rect class="cls-11" x="3727.7" y="5598.7" width="76" height="24"/>
     <rect class="cls-11" x="3727.7" y="5635.2" width="76" height="24"/>
     <rect class="cls-11" x="3727.7" y="5671.7" width="76" height="24"/>
     <rect class="cls-11" x="3727.7" y="5708.2" width="76" height="24"/>
     <rect class="cls-11" x="3727.7" y="5744.7" width="76" height="24"/>
     <rect class="cls-11" x="3727.7" y="5781.2" width="76" height="24"/>
     <rect class="cls-11" x="3727.7" y="5817.7" width="76" height="24"/>
     <rect class="cls-11" x="3727.7" y="5854.2" width="76" height="24"/>
     <rect class="cls-11" x="3727.7" y="5890.7" width="76" height="24"/>
     <rect class="cls-11" x="3727.7" y="5927.2" width="76" height="24"/>
     <rect class="cls-11" x="3727.7" y="5963.7" width="76" height="24"/>
     <rect class="cls-11" x="3727.7" y="6000.2" width="76" height="24"/>
     <rect class="cls-11" x="3727.7" y="6036.7" width="76" height="24"/>
     <rect class="cls-11" x="3727.7" y="6073.2" width="76" height="24"/>
     <rect class="cls-11" x="3727.7" y="6109.7" width="76" height="24"/>
     <rect class="cls-11" x="3639" y="5525.7" width="76" height="24"/>
     <rect class="cls-11" x="3639" y="5562.2" width="76" height="24"/>
     <rect class="cls-11" x="3639" y="5598.7" width="76" height="24"/>
     <rect class="cls-11" x="3639" y="5635.2" width="76" height="24"/>
     <rect class="cls-11" x="3639" y="5671.7" width="76" height="24"/>
     <rect class="cls-11" x="3639" y="5708.2" width="76" height="24"/>
     <rect class="cls-11" x="3639" y="5744.7" width="76" height="24"/>
     <rect class="cls-11" x="3639" y="5781.2" width="76" height="24"/>
     <rect class="cls-11" x="3639" y="5817.7" width="76" height="24"/>
     <rect class="cls-11" x="3639" y="5854.2" width="76" height="24"/>
     <rect class="cls-11" x="3639" y="5890.7" width="76" height="24"/>
     <rect class="cls-11" x="3639" y="5927.2" width="76" height="24"/>
     <rect class="cls-11" x="3639" y="5963.7" width="76" height="24"/>
     <rect class="cls-11" x="3639" y="6000.2" width="76" height="24"/>
     <rect class="cls-11" x="3639" y="6036.7" width="76" height="24"/>
     <rect class="cls-11" x="3639" y="6073.2" width="76" height="24"/>
     <rect class="cls-11" x="3639" y="6109.7" width="76" height="24"/>
     <rect class="cls-11" x="3550.3" y="5708.2" width="76" height="24"/>
     <rect class="cls-11" x="3550.3" y="5744.7" width="76" height="24"/>
     <rect class="cls-11" x="3550.3" y="5781.2" width="76" height="24"/>
     <rect class="cls-11" x="3550.3" y="5817.7" width="76" height="24"/>
     <rect class="cls-11" x="3550.3" y="5854.2" width="76" height="24"/>
     <rect class="cls-11" x="3550.3" y="5890.7" width="76" height="24"/>
     <rect class="cls-11" x="3550.3" y="5927.2" width="76" height="24"/>
     <rect class="cls-11" x="3550.3" y="5963.7" width="76" height="24"/>
     <rect class="cls-11" x="3550.3" y="6000.2" width="76" height="24"/>
     <rect class="cls-11" x="3550.3" y="6036.7" width="76" height="24"/>
     <rect class="cls-11" x="3550.3" y="6073.2" width="76" height="24"/>
     <rect class="cls-11" x="3550.3" y="6109.7" width="76" height="24"/>
     <rect class="cls-11" x="3461.7" y="5525.7" width="76" height="24"/>
     <rect class="cls-11" x="3461.7" y="5562.2" width="76" height="24"/>
     <rect class="cls-11" x="3461.7" y="5598.7" width="76" height="24"/>
     <rect class="cls-11" x="3461.7" y="5635.2" width="76" height="24"/>
     <rect class="cls-11" x="3461.7" y="5671.7" width="76" height="24"/>
     <rect class="cls-11" x="3461.7" y="5708.2" width="76" height="24"/>
     <rect class="cls-11" x="3461.7" y="5744.7" width="76" height="24"/>
     <rect class="cls-11" x="3461.7" y="5781.2" width="76" height="24"/>
     <rect class="cls-11" x="3461.7" y="5817.7" width="76" height="24"/>
     <rect class="cls-11" x="3461.7" y="5854.2" width="76" height="24"/>
     <rect class="cls-11" x="3461.7" y="5890.7" width="76" height="24"/>
     <rect class="cls-11" x="3461.7" y="5927.2" width="76" height="24"/>
     <rect class="cls-11" x="3461.7" y="5963.7" width="76" height="24"/>
     <rect class="cls-11" x="3461.7" y="6000.2" width="76" height="24"/>
     <rect class="cls-11" x="3461.7" y="6036.7" width="76" height="24"/>
     <rect class="cls-11" x="3461.7" y="6073.2" width="76" height="24"/>
     <rect class="cls-11" x="3461.7" y="6109.7" width="76" height="24"/>
     <rect class="cls-11" x="3373" y="5525.7" width="76" height="24"/>
     <rect class="cls-11" x="3373" y="5562.2" width="76" height="24"/>
     <rect class="cls-11" x="3373" y="5598.7" width="76" height="24"/>
     <rect class="cls-11" x="3373" y="5635.2" width="76" height="24"/>
     <rect class="cls-11" x="3373" y="5671.7" width="76" height="24"/>
     <rect class="cls-11" x="3373" y="5708.2" width="76" height="24"/>
     <rect class="cls-11" x="3373" y="5744.7" width="76" height="24"/>
     <rect class="cls-11" x="3373" y="5781.2" width="76" height="24"/>
     <rect class="cls-11" x="3373" y="5817.7" width="76" height="24"/>
     <rect class="cls-11" x="3373" y="5854.2" width="76" height="24"/>
     <rect class="cls-11" x="3373" y="5890.7" width="76" height="24"/>
     <rect class="cls-11" x="3373" y="5927.2" width="76" height="24"/>
     <rect class="cls-11" x="3373" y="5963.7" width="76" height="24"/>
     <rect class="cls-11" x="3373" y="6000.2" width="76" height="24"/>
     <rect class="cls-11" x="3373" y="6036.7" width="76" height="24"/>
     <rect class="cls-11" x="3373" y="6073.2" width="76" height="24"/>
     <rect class="cls-11" x="3373" y="6109.7" width="76" height="24"/>
     <rect class="cls-11" x="3284.3" y="5854.2" width="76" height="24"/>
     <rect class="cls-11" x="3284.3" y="5890.7" width="76" height="24"/>
    </g>
    <rect class="cls-12" x="3284.3" y="5927.2" width="76" height="24" fill="url(#radial-gradient-133)"/>
    <g fill="url(#radialGradient2851)">
     <rect class="cls-11" x="3284.3" y="5963.7" width="76" height="24"/>
     <rect class="cls-11" x="3284.3" y="6000.2" width="76" height="24"/>
     <rect class="cls-11" x="3284.3" y="6036.7" width="76" height="24"/>
     <rect class="cls-11" x="3284.3" y="6073.2" width="76" height="24"/>
     <rect class="cls-11" x="3284.3" y="6109.7" width="76" height="24"/>
     <rect class="cls-11" x="3195.7" y="5525.7" width="76" height="24"/>
     <rect class="cls-11" x="3195.7" y="5562.2" width="76" height="24"/>
     <rect class="cls-11" x="3195.7" y="5598.7" width="76" height="24"/>
     <rect class="cls-11" x="3195.7" y="5635.2" width="76" height="24"/>
     <rect class="cls-11" x="3195.7" y="5671.7" width="76" height="24"/>
     <rect class="cls-11" x="3195.7" y="5708.2" width="76" height="24"/>
     <rect class="cls-11" x="3195.7" y="5744.7" width="76" height="24"/>
     <rect class="cls-11" x="3195.7" y="5781.2" width="76" height="24"/>
     <rect class="cls-11" x="3195.7" y="5817.7" width="76" height="24"/>
     <rect class="cls-11" x="3195.7" y="5854.2" width="76" height="24"/>
     <rect class="cls-11" x="3195.7" y="5890.7" width="76" height="24"/>
     <rect class="cls-11" x="3195.7" y="5927.2" width="76" height="24"/>
     <rect class="cls-11" x="3195.7" y="5963.7" width="76" height="24"/>
     <rect class="cls-11" x="3195.7" y="6000.2" width="76" height="24"/>
     <rect class="cls-11" x="3195.7" y="6036.7" width="76" height="24"/>
     <rect class="cls-11" x="3195.7" y="6073.2" width="76" height="24"/>
     <rect class="cls-11" x="3195.7" y="6109.7" width="76" height="24"/>
     <rect class="cls-11" x="3107" y="5525.7" width="76" height="24"/>
     <rect class="cls-11" x="3107" y="5562.2" width="76" height="24"/>
     <rect class="cls-11" x="3107" y="5598.7" width="76" height="24"/>
     <rect class="cls-11" x="3107" y="5635.2" width="76" height="24"/>
     <rect class="cls-11" x="3107" y="5671.7" width="76" height="24"/>
     <rect class="cls-11" x="3107" y="5708.2" width="76" height="24"/>
     <rect class="cls-11" x="3107" y="5744.7" width="76" height="24"/>
     <rect class="cls-11" x="3107" y="5781.2" width="76" height="24"/>
     <rect class="cls-11" x="3107" y="5817.7" width="76" height="24"/>
     <rect class="cls-11" x="3107" y="5854.2" width="76" height="24"/>
     <rect class="cls-11" x="3107" y="5890.7" width="76" height="24"/>
     <rect class="cls-11" x="3107" y="5927.2" width="76" height="24"/>
     <rect class="cls-11" x="3107" y="5963.7" width="76" height="24"/>
     <rect class="cls-11" x="3107" y="6000.2" width="76" height="24"/>
     <rect class="cls-11" x="3107" y="6036.7" width="76" height="24"/>
     <rect class="cls-11" x="3107" y="6073.2" width="76" height="24"/>
     <rect class="cls-11" x="3107" y="6109.7" width="76" height="24"/>
     <rect class="cls-11" x="3018.3" y="5635.2" width="76" height="24"/>
     <rect class="cls-11" x="3018.3" y="5671.7" width="76" height="24"/>
     <rect class="cls-11" x="3018.3" y="5708.2" width="76" height="24"/>
     <rect class="cls-11" x="3018.3" y="5744.7" width="76" height="24"/>
     <rect class="cls-11" x="3018.3" y="5781.2" width="76" height="24"/>
     <rect class="cls-11" x="3018.3" y="5817.7" width="76" height="24"/>
     <rect class="cls-11" x="3018.3" y="5854.2" width="76" height="24"/>
     <rect class="cls-11" x="3018.3" y="5890.7" width="76" height="24"/>
     <rect class="cls-11" x="3018.3" y="5927.2" width="76" height="24"/>
     <rect class="cls-11" x="3018.3" y="5963.7" width="76" height="24"/>
     <rect class="cls-11" x="3018.3" y="6000.2" width="76" height="24"/>
     <rect class="cls-11" x="3018.3" y="6036.7" width="76" height="24"/>
     <rect class="cls-11" x="3018.3" y="6073.2" width="76" height="24"/>
     <rect class="cls-11" x="3018.3" y="6109.7" width="76" height="24"/>
     <rect class="cls-11" x="2929.7" y="5708.2" width="76" height="24"/>
     <rect class="cls-11" x="2929.7" y="5744.7" width="76" height="24"/>
     <rect class="cls-11" x="2929.7" y="5781.2" width="76" height="24"/>
     <rect class="cls-11" x="2929.7" y="5817.7" width="76" height="24"/>
     <rect class="cls-11" x="2929.7" y="5854.2" width="76" height="24"/>
     <rect class="cls-11" x="2929.7" y="5890.7" width="76" height="24"/>
     <rect class="cls-11" x="2929.7" y="5927.2" width="76" height="24"/>
     <rect class="cls-11" x="2929.7" y="5963.7" width="76" height="24"/>
     <rect class="cls-11" x="2929.7" y="6000.2" width="76" height="24"/>
     <rect class="cls-11" x="2929.7" y="6036.7" width="76" height="24"/>
     <rect class="cls-11" x="2929.7" y="6073.2" width="76" height="24"/>
     <rect class="cls-11" x="2929.7" y="6109.7" width="76" height="24"/>
     <rect class="cls-11" x="2841" y="5598.7" width="76" height="24"/>
     <rect class="cls-11" x="2841" y="5635.2" width="76" height="24"/>
     <rect class="cls-11" x="2841" y="5671.7" width="76" height="24"/>
     <rect class="cls-11" x="2841" y="5708.2" width="76" height="24"/>
     <rect class="cls-11" x="2841" y="5744.7" width="76" height="24"/>
     <rect class="cls-11" x="2841" y="5781.2" width="76" height="24"/>
     <rect class="cls-11" x="2841" y="5817.7" width="76" height="24"/>
     <rect class="cls-11" x="2841" y="5854.2" width="76" height="24"/>
     <rect class="cls-11" x="2841" y="5890.7" width="76" height="24"/>
     <rect class="cls-11" x="2841" y="5927.2" width="76" height="24"/>
     <rect class="cls-11" x="2841" y="5963.7" width="76" height="24"/>
     <rect class="cls-11" x="2841" y="6000.2" width="76" height="24"/>
     <rect class="cls-11" x="2841" y="6036.7" width="76" height="24"/>
     <rect class="cls-11" x="2841" y="6073.2" width="76" height="24"/>
     <rect class="cls-11" x="2841" y="6109.7" width="76" height="24"/>
     <rect class="cls-11" x="2752.3" y="5635.2" width="76" height="24"/>
     <rect class="cls-11" x="2752.3" y="5671.7" width="76" height="24"/>
     <rect class="cls-11" x="2752.3" y="5708.2" width="76" height="24"/>
     <rect class="cls-11" x="2752.3" y="5744.7" width="76" height="24"/>
     <rect class="cls-11" x="2752.3" y="5781.2" width="76" height="24"/>
     <rect class="cls-11" x="2752.3" y="5817.7" width="76" height="24"/>
     <rect class="cls-11" x="2752.3" y="5854.2" width="76" height="24"/>
     <rect class="cls-11" x="2752.3" y="5890.7" width="76" height="24"/>
     <rect class="cls-11" x="2752.3" y="5927.2" width="76" height="24"/>
     <rect class="cls-11" x="2752.3" y="5963.7" width="76" height="24"/>
     <rect class="cls-11" x="2752.3" y="6000.2" width="76" height="24"/>
     <rect class="cls-11" x="2752.3" y="6036.7" width="76" height="24"/>
     <rect class="cls-11" x="2752.3" y="6073.2" width="76" height="24"/>
     <rect class="cls-11" x="2752.3" y="6109.7" width="76" height="24"/>
     <rect class="cls-11" x="2663.7" y="5671.7" width="76" height="24"/>
     <rect class="cls-11" x="2663.7" y="5708.2" width="76" height="24"/>
     <rect class="cls-11" x="2663.7" y="5744.7" width="76" height="24"/>
     <rect class="cls-11" x="2663.7" y="5781.2" width="76" height="24"/>
     <rect class="cls-11" x="2663.7" y="5817.7" width="76" height="24"/>
     <rect class="cls-11" x="2663.7" y="5854.2" width="76" height="24"/>
     <rect class="cls-11" x="2663.7" y="5890.7" width="76" height="24"/>
     <rect class="cls-11" x="2663.7" y="5927.2" width="76" height="24"/>
     <rect class="cls-11" x="2663.7" y="5963.7" width="76" height="24"/>
     <rect class="cls-11" x="2663.7" y="6000.2" width="76" height="24"/>
     <rect class="cls-11" x="2663.7" y="6036.7" width="76" height="24"/>
     <rect class="cls-11" x="2663.7" y="6073.2" width="76" height="24"/>
     <rect class="cls-11" x="2663.7" y="6109.7" width="76" height="24"/>
     <rect class="cls-11" x="2575" y="5525.7" width="76" height="24"/>
     <rect class="cls-11" x="2575" y="5562.2" width="76" height="24"/>
     <rect class="cls-11" x="2575" y="5598.7" width="76" height="24"/>
     <rect class="cls-11" x="2575" y="5635.2" width="76" height="24"/>
     <rect class="cls-11" x="2575" y="5671.7" width="76" height="24"/>
     <rect class="cls-11" x="2575" y="5708.2" width="76" height="24"/>
     <rect class="cls-11" x="2575" y="5744.7" width="76" height="24"/>
     <rect class="cls-11" x="2575" y="5781.2" width="76" height="24"/>
     <rect class="cls-11" x="2575" y="5817.7" width="76" height="24"/>
     <rect class="cls-11" x="2575" y="5854.2" width="76" height="24"/>
     <rect class="cls-11" x="2575" y="5890.7" width="76" height="24"/>
     <rect class="cls-11" x="2575" y="5927.2" width="76" height="24"/>
     <rect class="cls-11" x="2575" y="5963.7" width="76" height="24"/>
     <rect class="cls-11" x="2575" y="6000.2" width="76" height="24"/>
     <rect class="cls-11" x="2575" y="6036.7" width="76" height="24"/>
     <rect class="cls-11" x="2575" y="6073.2" width="76" height="24"/>
     <rect class="cls-11" x="2575" y="6109.7" width="76" height="24"/>
     <rect class="cls-11" x="2486.3" y="5817.7" width="76" height="24"/>
     <rect class="cls-11" x="2486.3" y="5854.2" width="76" height="24"/>
     <rect class="cls-11" x="2486.3" y="5890.7" width="76" height="24"/>
     <rect class="cls-11" x="2486.3" y="5927.2" width="76" height="24"/>
     <rect class="cls-11" x="2486.3" y="5963.7" width="76" height="24"/>
     <rect class="cls-11" x="2486.3" y="6000.2" width="76" height="24"/>
     <rect class="cls-11" x="2486.3" y="6036.7" width="76" height="24"/>
     <rect class="cls-11" x="2486.3" y="6073.2" width="76" height="24"/>
     <rect class="cls-11" x="2486.3" y="6109.7" width="76" height="24"/>
     <rect class="cls-11" x="2397.7" y="5635.2" width="76" height="24"/>
     <rect class="cls-11" x="2397.7" y="5671.7" width="76" height="24"/>
     <rect class="cls-11" x="2397.7" y="5708.2" width="76" height="24"/>
     <rect class="cls-11" x="2397.7" y="5744.7" width="76" height="24"/>
     <rect class="cls-11" x="2397.7" y="5781.2" width="76" height="24"/>
     <rect class="cls-11" x="2397.7" y="5817.7" width="76" height="24"/>
     <rect class="cls-11" x="2397.7" y="5854.2" width="76" height="24"/>
     <rect class="cls-11" x="2397.7" y="5890.7" width="76" height="24"/>
     <rect class="cls-11" x="2397.7" y="5927.2" width="76" height="24"/>
     <rect class="cls-11" x="2397.7" y="5963.7" width="76" height="24"/>
     <rect class="cls-11" x="2397.7" y="6000.2" width="76" height="24"/>
     <rect class="cls-11" x="2397.7" y="6036.7" width="76" height="24"/>
     <rect class="cls-11" x="2397.7" y="6073.2" width="76" height="24"/>
     <rect class="cls-11" x="2397.7" y="6109.7" width="76" height="24"/>
     <rect class="cls-11" x="2309" y="5635.2" width="76" height="24"/>
     <rect class="cls-11" x="2309" y="5671.7" width="76" height="24"/>
     <rect class="cls-11" x="2309" y="5708.2" width="76" height="24"/>
     <rect class="cls-11" x="2309" y="5744.7" width="76" height="24"/>
     <rect class="cls-11" x="2309" y="5781.2" width="76" height="24"/>
     <rect class="cls-11" x="2309" y="5817.7" width="76" height="24"/>
     <rect class="cls-11" x="2309" y="5854.2" width="76" height="24"/>
     <rect class="cls-11" x="2309" y="5890.7" width="76" height="24"/>
     <rect class="cls-11" x="2309" y="5927.2" width="76" height="24"/>
     <rect class="cls-11" x="2309" y="5963.7" width="76" height="24"/>
     <rect class="cls-11" x="2309" y="6000.2" width="76" height="24"/>
     <rect class="cls-11" x="2309" y="6036.7" width="76" height="24"/>
     <rect class="cls-11" x="2309" y="6073.2" width="76" height="24"/>
     <rect class="cls-11" x="2309" y="6109.7" width="76" height="24"/>
     <rect class="cls-11" x="4171" y="5963.7" width="76" height="24"/>
     <rect class="cls-11" x="4171" y="6000.2" width="76" height="24"/>
     <rect class="cls-11" x="4171" y="6036.7" width="76" height="24"/>
     <rect class="cls-11" x="4171" y="6073.2" width="76" height="24"/>
     <rect class="cls-11" x="4171" y="6109.7" width="76" height="24"/>
    </g>
   </g>
  </g>
 </g>
 <path class="cls-48" d="m1973 629.48c0-34.19-22.31-61.92-49.82-61.92-20.09 0-37.4 14.79-45.28 36.08a75.88 75.88 0 0 0-45.11-14.73 77.16 77.16 0 0 0-18.12 2.16c-8.86-30.94-35.32-53.4-66.58-53.4-21.32 0-40.39 10.45-53.18 26.9-22.17-19.32-52-31.17-84.9-31.17a130 130 0 0 0-73.73 22.53l-14.23-2.57c-8.07-12.08-22.54-20.41-39.31-21.3-5.42-14.91-21.27-25.71-40-25.71a47 47 0 0 0-14 2.12 34.87 34.87 0 0 0-67 18.78 79.05 79.05 0 0 0-100.76 95.05 70.1 70.1 0 0 0-35.26-9.19c-33 0-59.79 21.35-59.79 47.69a38.4 38.4 0 0 0 0.88 8.12 71.2 71.2 0 0 0-48-0.75 72.59 72.59 0 0 0-137.6 25.59c-15.91-15.1-43.87-25.13-75.73-25.13a137.47 137.47 0 0 0-44.14 7v-0.6c0-17.44-13.33-32.39-32.3-38.74a13.16 13.16 0 0 0 3.83-9c0-9.44-11.48-17.08-25.63-17.08a36.2 36.2 0 0 0-11.24 1.79 45.26 45.26 0 0 0-54.37-20.54c-0.19-21.08-18.91-38.11-42-38.11a44.73 44.73 0 0 0-21.38 5.35c2.53-7.13 2.34-14.16-1.18-19.77-7.93-12.66-29.75-13.28-48.74-1.39a57.52 57.52 0 0 0-13.86 12.06 51.13 51.13 0 0 0-26.58-7.64c-35.38 0-64.06 37.92-64.06 84.7a108.93 108.93 0 0 0 4.21 30.2 61.77 61.77 0 0 0-30.54-8.14 62.4 62.4 0 0 0-34.92 10.86c-16.88-41.19-61.79-70.65-114.55-70.65a138 138 0 0 0-27.53 2.78c-20-42.12-61.65-71.1-109.84-71.1-38.87 0-73.5 18.85-95.93 48.25-8.39-11.05-22.85-18.36-39.3-18.36a52 52 0 0 0-27.19 7.5c-4.75-16.71-19.43-28.88-36.81-28.88-21.22 0-38.43 18.16-38.43 40.57a41.07 41.07 0 0 0 18.39 34.62l-4 490.68 1945.1 6.52v-411.2c23.05-5.4 40.51-30.57 40.51-60.83z" fill="#fff" opacity=".3"/>
 <g class="cls-57" transform="translate(-2316 -5054.7)" opacity=".15">
  <path class="cls-50" transform="translate(2316 2893.7)" d="m243.92 2949c0.05-1 0.08-2.06 0.08-3.1a67.79 67.79 0 0 0-96.74-61.29 86.86 86.86 0 0 0-163.12-19.41 60.54 60.54 0 0 0-21.45-3.92 60.7 60.7 0 0 0-60.69 60.72 60.35 60.35 0 0 0 6.35 27z" fill="#97b0d4"/>
 </g>
 <g class="cls-57" transform="translate(-2316 -5054.7)" opacity=".15">
  <path class="cls-50" transform="translate(2316 2893.7)" d="m1561.1 3174c-0.06-1.28-0.1-2.56-0.1-3.84a84 84 0 0 1 119.94-76 107.67 107.67 0 0 1 202.22-24.07 75.24 75.24 0 0 1 94 103.89z" fill="#97b0d4"/>
 </g>
</svg>
