<svg id="Layer_1" data-name="Layer 1" xmlns="http://www.w3.org/2000/svg" xmlns:xlink="http://www.w3.org/1999/xlink" viewBox="0 0 2083 630.52" preserveAspectRatio="none">
  <defs>
    <style>
      .cls-1 {
        fill: none;
      }

      .cls-2 {
        clip-path: url(#clip-path);
      }

      .cls-3 {
        opacity: 0.75;
      }

      .cls-4 {
        opacity: 0.08;
        fill: url(#linear-gradient);
      }

      .cls-5 {
        clip-path: url(#clip-path-2);
      }

      .cls-6 {
        opacity: 0.5;
      }

      .cls-7 {
        fill: url(#radial-gradient);
      }

      .cls-8 {
        fill: url(#radial-gradient-133);
      }

      .cls-9 {
        opacity: 0.14;
      }

      .cls-10 {
        fill: #fff;
      }

      .cls-11 {
        opacity: 0.29;
      }
    </style>
    <clipPath id="clip-path" transform="translate(98 -423)">
      <rect class="cls-1" y="248" width="1920" height="805"/>
    </clipPath>
    <linearGradient id="linear-gradient" x1="969.41" y1="897.58" x2="975.41" y2="319.58" gradientUnits="userSpaceOnUse">
      <stop offset="0" stop-color="#daecf4"/>
      <stop offset="1" stop-color="#acd7ea"/>
    </linearGradient>
    <clipPath id="clip-path-2" transform="translate(98 -423)">
      <path class="cls-1" d="M1973,581.48c0-34.2-22.31-61.92-49.82-61.92-20.09,0-37.4,14.79-45.27,36.08a75.83,75.83,0,0,0-45.12-14.73,77,77,0,0,0-18.12,2.16c-8.86-30.95-35.32-53.41-66.58-53.41-21.32,0-40.38,10.45-53.18,26.9-22.17-19.32-52-31.17-84.9-31.17a130,130,0,0,0-73.73,22.53L1522,505.36c-8.07-12.08-22.54-20.41-39.31-21.3-5.42-14.91-21.27-25.71-40-25.71a47,47,0,0,0-14,2.12,34.88,34.88,0,0,0-67,18.78,79.05,79.05,0,0,0-100.76,95,70.09,70.09,0,0,0-35.26-9.18c-33,0-59.79,21.35-59.79,47.69a38.52,38.52,0,0,0,.88,8.12,71.21,71.21,0,0,0-48.05-.75,72.59,72.59,0,0,0-137.6,25.59c-15.91-15.1-43.87-25.13-75.73-25.13a137.32,137.32,0,0,0-44.15,7c0-.2,0-.4,0-.61,0-17.43-13.33-32.38-32.3-38.73a13.17,13.17,0,0,0,3.83-9c0-9.43-11.47-17.08-25.62-17.08A36.34,36.34,0,0,0,796,564a44.94,44.94,0,0,0-39.41-23.06,45.4,45.4,0,0,0-15,2.52c-.19-21.08-18.91-38.11-42-38.11a44.76,44.76,0,0,0-21.38,5.36c2.52-7.13,2.34-14.16-1.18-19.77-7.93-12.66-29.75-13.28-48.74-1.39a57.47,57.47,0,0,0-13.86,12.06,51.09,51.09,0,0,0-26.58-7.64c-35.38,0-64.06,37.92-64.06,84.7a108.93,108.93,0,0,0,4.21,30.2,61.48,61.48,0,0,0-65.46,2.72c-16.88-41.19-61.79-70.65-114.55-70.65a138.31,138.31,0,0,0-27.53,2.78c-20-42.12-61.65-71.1-109.84-71.1-38.87,0-73.5,18.86-95.93,48.25-8.39-11.05-22.86-18.36-39.3-18.36A51.92,51.92,0,0,0,48.24,510c-4.75-16.71-19.43-28.89-36.81-28.89C-9.79,481.13-27,499.29-27,521.7A41.06,41.06,0,0,0-8.61,556.32l-4,490.68,1945.1,6.52V642.32C1955.54,636.91,1973,611.74,1973,581.48Z"/>
    </clipPath>
    <radialGradient id="radial-gradient" cx="475" cy="470" r="1418.38" gradientUnits="userSpaceOnUse">
      <stop offset="0" stop-color="#ff97c5" stop-opacity="0.6"/>
      <stop offset="0.05" stop-color="#fd9cc0" stop-opacity="0.63"/>
      <stop offset="0.15" stop-color="#f8a8b4" stop-opacity="0.72"/>
      <stop offset="0.26" stop-color="#efbc9f" stop-opacity="0.86"/>
      <stop offset="0.36" stop-color="#e6cf8b"/>
      <stop offset="0.67" stop-color="#00a99d"/>
      <stop offset="0.99" stop-color="#003a7f"/>
    </radialGradient>
    <radialGradient id="radial-gradient-133" cx="475" r="1418.77" xlink:href="#radial-gradient"/>
  </defs>
  <title>Music Clouds</title>
  <g class="cls-2">
    <g class="cls-3">
      <path class="cls-4" d="M1973,581.48c0-34.2-22.31-61.92-49.82-61.92-20.09,0-37.4,14.79-45.27,36.08a75.83,75.83,0,0,0-45.12-14.73,77,77,0,0,0-18.12,2.16c-8.86-30.95-35.32-53.41-66.58-53.41-21.32,0-40.38,10.45-53.18,26.9-22.17-19.32-52-31.17-84.9-31.17a130,130,0,0,0-73.73,22.53L1522,505.36c-8.07-12.08-22.54-20.41-39.31-21.3-5.42-14.91-21.27-25.71-40-25.71a47,47,0,0,0-14,2.12,34.88,34.88,0,0,0-67,18.78,79.05,79.05,0,0,0-100.76,95,70.09,70.09,0,0,0-35.26-9.18c-33,0-59.79,21.35-59.79,47.69a38.52,38.52,0,0,0,.88,8.12,71.21,71.21,0,0,0-48.05-.75,72.59,72.59,0,0,0-137.6,25.59c-15.91-15.1-43.87-25.13-75.73-25.13a137.32,137.32,0,0,0-44.15,7c0-.2,0-.4,0-.61,0-17.43-13.33-32.38-32.3-38.73a13.17,13.17,0,0,0,3.83-9c0-9.43-11.47-17.08-25.62-17.08A36.34,36.34,0,0,0,796,564a44.94,44.94,0,0,0-39.41-23.06,45.4,45.4,0,0,0-15,2.52c-.19-21.08-18.91-38.11-42-38.11a44.76,44.76,0,0,0-21.38,5.36c2.52-7.13,2.34-14.16-1.18-19.77-7.93-12.66-29.75-13.28-48.74-1.39a57.47,57.47,0,0,0-13.86,12.06,51.09,51.09,0,0,0-26.58-7.64c-35.38,0-64.06,37.92-64.06,84.7a108.93,108.93,0,0,0,4.21,30.2,61.48,61.48,0,0,0-65.46,2.72c-16.88-41.19-61.79-70.65-114.55-70.65a138.31,138.31,0,0,0-27.53,2.78c-20-42.12-61.65-71.1-109.84-71.1-38.87,0-73.5,18.86-95.93,48.25-8.39-11.05-22.86-18.36-39.3-18.36A51.92,51.92,0,0,0,48.24,510c-4.75-16.71-19.43-28.89-36.81-28.89C-9.79,481.13-27,499.29-27,521.7A41.06,41.06,0,0,0-8.61,556.32l-4,490.68,1945.1,6.52V642.32C1955.54,636.91,1973,611.74,1973,581.48Z" transform="translate(98 -423)"/>
      <g class="cls-5">
        <g class="cls-6">
          <rect class="cls-7" x="1864.33" y="255.5" width="76" height="24"/>
          <rect class="cls-7" x="1864.33" y="292" width="76" height="24"/>
          <rect class="cls-7" x="1864.33" y="328.5" width="76" height="24"/>
          <rect class="cls-7" x="1864.33" y="365" width="76" height="24"/>
          <rect class="cls-7" x="1864.33" y="401.5" width="76" height="24"/>
          <rect class="cls-7" x="1864.33" y="438" width="76" height="24"/>
          <rect class="cls-7" x="1864.33" y="474.5" width="76" height="24"/>
          <rect class="cls-7" x="1864.33" y="511" width="76" height="24"/>
          <rect class="cls-7" x="1864.33" y="547.5" width="76" height="24"/>
          <rect class="cls-7" x="1864.33" y="584" width="76" height="24"/>
          <rect class="cls-7" x="1775.67" width="76" height="24"/>
          <rect class="cls-7" x="1775.67" y="36.5" width="76" height="24"/>
          <rect class="cls-7" x="1775.67" y="73" width="76" height="24"/>
          <rect class="cls-7" x="1775.67" y="109.5" width="76" height="24"/>
          <rect class="cls-7" x="1775.67" y="146" width="76" height="24"/>
          <rect class="cls-7" x="1775.67" y="182.5" width="76" height="24"/>
          <rect class="cls-7" x="1775.67" y="219" width="76" height="24"/>
          <rect class="cls-7" x="1775.67" y="255.5" width="76" height="24"/>
          <rect class="cls-7" x="1775.67" y="292" width="76" height="24"/>
          <rect class="cls-7" x="1775.67" y="328.5" width="76" height="24"/>
          <rect class="cls-7" x="1775.67" y="365" width="76" height="24"/>
          <rect class="cls-7" x="1775.67" y="401.5" width="76" height="24"/>
          <rect class="cls-7" x="1775.67" y="438" width="76" height="24"/>
          <rect class="cls-7" x="1775.67" y="474.5" width="76" height="24"/>
          <rect class="cls-7" x="1775.67" y="511" width="76" height="24"/>
          <rect class="cls-7" x="1775.67" y="547.5" width="76" height="24"/>
          <rect class="cls-7" x="1775.67" y="584" width="76" height="24"/>
          <rect class="cls-7" x="1687" width="76" height="24"/>
          <rect class="cls-7" x="1687" y="36.5" width="76" height="24"/>
          <rect class="cls-7" x="1687" y="73" width="76" height="24"/>
          <rect class="cls-7" x="1687" y="109.5" width="76" height="24"/>
          <rect class="cls-7" x="1687" y="146" width="76" height="24"/>
          <rect class="cls-7" x="1687" y="182.5" width="76" height="24"/>
          <rect class="cls-7" x="1687" y="219" width="76" height="24"/>
          <rect class="cls-7" x="1687" y="255.5" width="76" height="24"/>
          <rect class="cls-7" x="1687" y="292" width="76" height="24"/>
          <rect class="cls-7" x="1687" y="328.5" width="76" height="24"/>
          <rect class="cls-7" x="1687" y="365" width="76" height="24"/>
          <rect class="cls-7" x="1687" y="401.5" width="76" height="24"/>
          <rect class="cls-7" x="1687" y="438" width="76" height="24"/>
          <rect class="cls-7" x="1687" y="474.5" width="76" height="24"/>
          <rect class="cls-7" x="1687" y="511" width="76" height="24"/>
          <rect class="cls-7" x="1687" y="547.5" width="76" height="24"/>
          <rect class="cls-7" x="1687" y="584" width="76" height="24"/>
          <rect class="cls-7" x="1598.33" y="401.5" width="76" height="24"/>
          <rect class="cls-7" x="1598.33" y="438" width="76" height="24"/>
          <rect class="cls-7" x="1598.33" y="474.5" width="76" height="24"/>
          <rect class="cls-7" x="1598.33" y="511" width="76" height="24"/>
          <rect class="cls-7" x="1598.33" y="547.5" width="76" height="24"/>
          <rect class="cls-7" x="1598.33" y="584" width="76" height="24"/>
          <rect class="cls-7" x="1509.67" width="76" height="24"/>
          <rect class="cls-7" x="1509.67" y="36.5" width="76" height="24"/>
          <rect class="cls-7" x="1509.67" y="73" width="76" height="24"/>
          <rect class="cls-7" x="1509.67" y="109.5" width="76" height="24"/>
          <rect class="cls-7" x="1509.67" y="146" width="76" height="24"/>
          <rect class="cls-7" x="1509.67" y="182.5" width="76" height="24"/>
          <rect class="cls-7" x="1509.67" y="219" width="76" height="24"/>
          <rect class="cls-7" x="1509.67" y="255.5" width="76" height="24"/>
          <rect class="cls-7" x="1509.67" y="292" width="76" height="24"/>
          <rect class="cls-7" x="1509.67" y="328.5" width="76" height="24"/>
          <rect class="cls-7" x="1509.67" y="365" width="76" height="24"/>
          <rect class="cls-7" x="1509.67" y="401.5" width="76" height="24"/>
          <rect class="cls-7" x="1509.67" y="438" width="76" height="24"/>
          <rect class="cls-7" x="1509.67" y="474.5" width="76" height="24"/>
          <rect class="cls-7" x="1509.67" y="511" width="76" height="24"/>
          <rect class="cls-7" x="1509.67" y="547.5" width="76" height="24"/>
          <rect class="cls-7" x="1509.67" y="584" width="76" height="24"/>
          <rect class="cls-7" x="1421" width="76" height="24"/>
          <rect class="cls-7" x="1421" y="36.5" width="76" height="24"/>
          <rect class="cls-7" x="1421" y="73" width="76" height="24"/>
          <rect class="cls-7" x="1421" y="109.5" width="76" height="24"/>
          <rect class="cls-7" x="1421" y="146" width="76" height="24"/>
          <rect class="cls-7" x="1421" y="182.5" width="76" height="24"/>
          <rect class="cls-7" x="1421" y="219" width="76" height="24"/>
          <rect class="cls-7" x="1421" y="255.5" width="76" height="24"/>
          <rect class="cls-7" x="1421" y="292" width="76" height="24"/>
          <rect class="cls-7" x="1421" y="328.5" width="76" height="24"/>
          <rect class="cls-7" x="1421" y="365" width="76" height="24"/>
          <rect class="cls-7" x="1421" y="401.5" width="76" height="24"/>
          <rect class="cls-7" x="1421" y="438" width="76" height="24"/>
          <rect class="cls-7" x="1421" y="474.5" width="76" height="24"/>
          <rect class="cls-7" x="1421" y="511" width="76" height="24"/>
          <rect class="cls-7" x="1421" y="547.5" width="76" height="24"/>
          <rect class="cls-7" x="1421" y="584" width="76" height="24"/>
          <rect class="cls-7" x="1332.33" y="182.5" width="76" height="24"/>
          <rect class="cls-7" x="1332.33" y="219" width="76" height="24"/>
          <rect class="cls-7" x="1332.33" y="255.5" width="76" height="24"/>
          <rect class="cls-7" x="1332.33" y="292" width="76" height="24"/>
          <rect class="cls-7" x="1332.33" y="328.5" width="76" height="24"/>
          <rect class="cls-7" x="1332.33" y="365" width="76" height="24"/>
          <rect class="cls-7" x="1332.33" y="401.5" width="76" height="24"/>
          <rect class="cls-7" x="1332.33" y="438" width="76" height="24"/>
          <rect class="cls-7" x="1332.33" y="474.5" width="76" height="24"/>
          <rect class="cls-7" x="1332.33" y="511" width="76" height="24"/>
          <rect class="cls-7" x="1332.33" y="547.5" width="76" height="24"/>
          <rect class="cls-7" x="1332.33" y="584" width="76" height="24"/>
          <rect class="cls-7" x="1243.67" width="76" height="24"/>
          <rect class="cls-7" x="1243.67" y="36.5" width="76" height="24"/>
          <rect class="cls-7" x="1243.67" y="73" width="76" height="24"/>
          <rect class="cls-7" x="1243.67" y="109.5" width="76" height="24"/>
          <rect class="cls-7" x="1243.67" y="146" width="76" height="24"/>
          <rect class="cls-7" x="1243.67" y="182.5" width="76" height="24"/>
          <rect class="cls-7" x="1243.67" y="219" width="76" height="24"/>
          <rect class="cls-7" x="1243.67" y="255.5" width="76" height="24"/>
          <rect class="cls-7" x="1243.67" y="292" width="76" height="24"/>
          <rect class="cls-7" x="1243.67" y="328.5" width="76" height="24"/>
          <rect class="cls-7" x="1243.67" y="365" width="76" height="24"/>
          <rect class="cls-7" x="1243.67" y="401.5" width="76" height="24"/>
          <rect class="cls-7" x="1243.67" y="438" width="76" height="24"/>
          <rect class="cls-7" x="1243.67" y="474.5" width="76" height="24"/>
          <rect class="cls-7" x="1243.67" y="511" width="76" height="24"/>
          <rect class="cls-7" x="1243.67" y="547.5" width="76" height="24"/>
          <rect class="cls-7" x="1243.67" y="584" width="76" height="24"/>
          <rect class="cls-7" x="1155" width="76" height="24"/>
          <rect class="cls-7" x="1155" y="36.5" width="76" height="24"/>
          <rect class="cls-7" x="1155" y="73" width="76" height="24"/>
          <rect class="cls-7" x="1155" y="109.5" width="76" height="24"/>
          <rect class="cls-7" x="1155" y="146" width="76" height="24"/>
          <rect class="cls-7" x="1155" y="182.5" width="76" height="24"/>
          <rect class="cls-7" x="1155" y="219" width="76" height="24"/>
          <rect class="cls-7" x="1155" y="255.5" width="76" height="24"/>
          <rect class="cls-7" x="1155" y="292" width="76" height="24"/>
          <rect class="cls-7" x="1155" y="328.5" width="76" height="24"/>
          <rect class="cls-7" x="1155" y="365" width="76" height="24"/>
          <rect class="cls-7" x="1155" y="401.5" width="76" height="24"/>
          <rect class="cls-7" x="1155" y="438" width="76" height="24"/>
          <rect class="cls-7" x="1155" y="474.5" width="76" height="24"/>
          <rect class="cls-7" x="1155" y="511" width="76" height="24"/>
          <rect class="cls-7" x="1155" y="547.5" width="76" height="24"/>
          <rect class="cls-7" x="1155" y="584" width="76" height="24"/>
          <rect class="cls-7" x="1066.33" y="328.5" width="76" height="24"/>
          <rect class="cls-7" x="1066.33" y="365" width="76" height="24"/>
          <rect class="cls-8" x="1066.33" y="401.5" width="76" height="24"/>
          <rect class="cls-7" x="1066.33" y="438" width="76" height="24"/>
          <rect class="cls-7" x="1066.33" y="474.5" width="76" height="24"/>
          <rect class="cls-7" x="1066.33" y="511" width="76" height="24"/>
          <rect class="cls-7" x="1066.33" y="547.5" width="76" height="24"/>
          <rect class="cls-7" x="1066.33" y="584" width="76" height="24"/>
          <rect class="cls-7" x="977.67" width="76" height="24"/>
          <rect class="cls-7" x="977.67" y="36.5" width="76" height="24"/>
          <rect class="cls-7" x="977.67" y="73" width="76" height="24"/>
          <rect class="cls-7" x="977.67" y="109.5" width="76" height="24"/>
          <rect class="cls-7" x="977.67" y="146" width="76" height="24"/>
          <rect class="cls-7" x="977.67" y="182.5" width="76" height="24"/>
          <rect class="cls-7" x="977.67" y="219" width="76" height="24"/>
          <rect class="cls-7" x="977.67" y="255.5" width="76" height="24"/>
          <rect class="cls-7" x="977.67" y="292" width="76" height="24"/>
          <rect class="cls-7" x="977.67" y="328.5" width="76" height="24"/>
          <rect class="cls-7" x="977.67" y="365" width="76" height="24"/>
          <rect class="cls-7" x="977.67" y="401.5" width="76" height="24"/>
          <rect class="cls-7" x="977.67" y="438" width="76" height="24"/>
          <rect class="cls-7" x="977.67" y="474.5" width="76" height="24"/>
          <rect class="cls-7" x="977.67" y="511" width="76" height="24"/>
          <rect class="cls-7" x="977.67" y="547.5" width="76" height="24"/>
          <rect class="cls-7" x="977.67" y="584" width="76" height="24"/>
          <rect class="cls-7" x="889" width="76" height="24"/>
          <rect class="cls-7" x="889" y="36.5" width="76" height="24"/>
          <rect class="cls-7" x="889" y="73" width="76" height="24"/>
          <rect class="cls-7" x="889" y="109.5" width="76" height="24"/>
          <rect class="cls-7" x="889" y="146" width="76" height="24"/>
          <rect class="cls-7" x="889" y="182.5" width="76" height="24"/>
          <rect class="cls-7" x="889" y="219" width="76" height="24"/>
          <rect class="cls-7" x="889" y="255.5" width="76" height="24"/>
          <rect class="cls-7" x="889" y="292" width="76" height="24"/>
          <rect class="cls-7" x="889" y="328.5" width="76" height="24"/>
          <rect class="cls-7" x="889" y="365" width="76" height="24"/>
          <rect class="cls-7" x="889" y="401.5" width="76" height="24"/>
          <rect class="cls-7" x="889" y="438" width="76" height="24"/>
          <rect class="cls-7" x="889" y="474.5" width="76" height="24"/>
          <rect class="cls-7" x="889" y="511" width="76" height="24"/>
          <rect class="cls-7" x="889" y="547.5" width="76" height="24"/>
          <rect class="cls-7" x="889" y="584" width="76" height="24"/>
          <rect class="cls-7" x="800.33" y="109.5" width="76" height="24"/>
          <rect class="cls-7" x="800.33" y="146" width="76" height="24"/>
          <rect class="cls-7" x="800.33" y="182.5" width="76" height="24"/>
          <rect class="cls-7" x="800.33" y="219" width="76" height="24"/>
          <rect class="cls-7" x="800.33" y="255.5" width="76" height="24"/>
          <rect class="cls-7" x="800.33" y="292" width="76" height="24"/>
          <rect class="cls-7" x="800.33" y="328.5" width="76" height="24"/>
          <rect class="cls-7" x="800.33" y="365" width="76" height="24"/>
          <rect class="cls-7" x="800.33" y="401.5" width="76" height="24"/>
          <rect class="cls-7" x="800.33" y="438" width="76" height="24"/>
          <rect class="cls-7" x="800.33" y="474.5" width="76" height="24"/>
          <rect class="cls-7" x="800.33" y="511" width="76" height="24"/>
          <rect class="cls-7" x="800.33" y="547.5" width="76" height="24"/>
          <rect class="cls-7" x="800.33" y="584" width="76" height="24"/>
          <rect class="cls-7" x="711.67" y="182.5" width="76" height="24"/>
          <rect class="cls-7" x="711.67" y="219" width="76" height="24"/>
          <rect class="cls-7" x="711.67" y="255.5" width="76" height="24"/>
          <rect class="cls-7" x="711.67" y="292" width="76" height="24"/>
          <rect class="cls-7" x="711.67" y="328.5" width="76" height="24"/>
          <rect class="cls-7" x="711.67" y="365" width="76" height="24"/>
          <rect class="cls-7" x="711.67" y="401.5" width="76" height="24"/>
          <rect class="cls-7" x="711.67" y="438" width="76" height="24"/>
          <rect class="cls-7" x="711.67" y="474.5" width="76" height="24"/>
          <rect class="cls-7" x="711.67" y="511" width="76" height="24"/>
          <rect class="cls-7" x="711.67" y="547.5" width="76" height="24"/>
          <rect class="cls-7" x="711.67" y="584" width="76" height="24"/>
          <rect class="cls-7" x="623" y="73" width="76" height="24"/>
          <rect class="cls-7" x="623" y="109.5" width="76" height="24"/>
          <rect class="cls-7" x="623" y="146" width="76" height="24"/>
          <rect class="cls-7" x="623" y="182.5" width="76" height="24"/>
          <rect class="cls-7" x="623" y="219" width="76" height="24"/>
          <rect class="cls-7" x="623" y="255.5" width="76" height="24"/>
          <rect class="cls-7" x="623" y="292" width="76" height="24"/>
          <rect class="cls-7" x="623" y="328.5" width="76" height="24"/>
          <rect class="cls-7" x="623" y="365" width="76" height="24"/>
          <rect class="cls-7" x="623" y="401.5" width="76" height="24"/>
          <rect class="cls-7" x="623" y="438" width="76" height="24"/>
          <rect class="cls-7" x="623" y="474.5" width="76" height="24"/>
          <rect class="cls-7" x="623" y="511" width="76" height="24"/>
          <rect class="cls-7" x="623" y="547.5" width="76" height="24"/>
          <rect class="cls-7" x="623" y="584" width="76" height="24"/>
          <rect class="cls-7" x="534.33" y="109.5" width="76" height="24"/>
          <rect class="cls-7" x="534.33" y="146" width="76" height="24"/>
          <rect class="cls-7" x="534.33" y="182.5" width="76" height="24"/>
          <rect class="cls-7" x="534.33" y="219" width="76" height="24"/>
          <rect class="cls-7" x="534.33" y="255.5" width="76" height="24"/>
          <rect class="cls-7" x="534.33" y="292" width="76" height="24"/>
          <rect class="cls-7" x="534.33" y="328.5" width="76" height="24"/>
          <rect class="cls-7" x="534.33" y="365" width="76" height="24"/>
          <rect class="cls-7" x="534.33" y="401.5" width="76" height="24"/>
          <rect class="cls-7" x="534.33" y="438" width="76" height="24"/>
          <rect class="cls-7" x="534.33" y="474.5" width="76" height="24"/>
          <rect class="cls-7" x="534.33" y="511" width="76" height="24"/>
          <rect class="cls-7" x="534.33" y="547.5" width="76" height="24"/>
          <rect class="cls-7" x="534.33" y="584" width="76" height="24"/>
          <rect class="cls-7" x="445.67" y="146" width="76" height="24"/>
          <rect class="cls-7" x="445.67" y="182.5" width="76" height="24"/>
          <rect class="cls-7" x="445.67" y="219" width="76" height="24"/>
          <rect class="cls-7" x="445.67" y="255.5" width="76" height="24"/>
          <rect class="cls-7" x="445.67" y="292" width="76" height="24"/>
          <rect class="cls-7" x="445.67" y="328.5" width="76" height="24"/>
          <rect class="cls-7" x="445.67" y="365" width="76" height="24"/>
          <rect class="cls-7" x="445.67" y="401.5" width="76" height="24"/>
          <rect class="cls-7" x="445.67" y="438" width="76" height="24"/>
          <rect class="cls-7" x="445.67" y="474.5" width="76" height="24"/>
          <rect class="cls-7" x="445.67" y="511" width="76" height="24"/>
          <rect class="cls-7" x="445.67" y="547.5" width="76" height="24"/>
          <rect class="cls-7" x="445.67" y="584" width="76" height="24"/>
          <rect class="cls-7" x="357" width="76" height="24"/>
          <rect class="cls-7" x="357" y="36.5" width="76" height="24"/>
          <rect class="cls-7" x="357" y="73" width="76" height="24"/>
          <rect class="cls-7" x="357" y="109.5" width="76" height="24"/>
          <rect class="cls-7" x="357" y="146" width="76" height="24"/>
          <rect class="cls-7" x="357" y="182.5" width="76" height="24"/>
          <rect class="cls-7" x="357" y="219" width="76" height="24"/>
          <rect class="cls-7" x="357" y="255.5" width="76" height="24"/>
          <rect class="cls-7" x="357" y="292" width="76" height="24"/>
          <rect class="cls-7" x="357" y="328.5" width="76" height="24"/>
          <rect class="cls-7" x="357" y="365" width="76" height="24"/>
          <rect class="cls-7" x="357" y="401.5" width="76" height="24"/>
          <rect class="cls-7" x="357" y="438" width="76" height="24"/>
          <rect class="cls-7" x="357" y="474.5" width="76" height="24"/>
          <rect class="cls-7" x="357" y="511" width="76" height="24"/>
          <rect class="cls-7" x="357" y="547.5" width="76" height="24"/>
          <rect class="cls-7" x="357" y="584" width="76" height="24"/>
          <rect class="cls-7" x="268.33" y="292" width="76" height="24"/>
          <rect class="cls-7" x="268.33" y="328.5" width="76" height="24"/>
          <rect class="cls-7" x="268.33" y="365" width="76" height="24"/>
          <rect class="cls-7" x="268.33" y="401.5" width="76" height="24"/>
          <rect class="cls-7" x="268.33" y="438" width="76" height="24"/>
          <rect class="cls-7" x="268.33" y="474.5" width="76" height="24"/>
          <rect class="cls-7" x="268.33" y="511" width="76" height="24"/>
          <rect class="cls-7" x="268.33" y="547.5" width="76" height="24"/>
          <rect class="cls-7" x="268.33" y="584" width="76" height="24"/>
          <rect class="cls-7" x="179.67" y="109.5" width="76" height="24"/>
          <rect class="cls-7" x="179.67" y="146" width="76" height="24"/>
          <rect class="cls-7" x="179.67" y="182.5" width="76" height="24"/>
          <rect class="cls-7" x="179.67" y="219" width="76" height="24"/>
          <rect class="cls-7" x="179.67" y="255.5" width="76" height="24"/>
          <rect class="cls-7" x="179.67" y="292" width="76" height="24"/>
          <rect class="cls-7" x="179.67" y="328.5" width="76" height="24"/>
          <rect class="cls-7" x="179.67" y="365" width="76" height="24"/>
          <rect class="cls-7" x="179.67" y="401.5" width="76" height="24"/>
          <rect class="cls-7" x="179.67" y="438" width="76" height="24"/>
          <rect class="cls-7" x="179.67" y="474.5" width="76" height="24"/>
          <rect class="cls-7" x="179.67" y="511" width="76" height="24"/>
          <rect class="cls-7" x="179.67" y="547.5" width="76" height="24"/>
          <rect class="cls-7" x="179.67" y="584" width="76" height="24"/>
          <rect class="cls-7" x="91" y="109.5" width="76" height="24"/>
          <rect class="cls-7" x="91" y="146" width="76" height="24"/>
          <rect class="cls-7" x="91" y="182.5" width="76" height="24"/>
          <rect class="cls-7" x="91" y="219" width="76" height="24"/>
          <rect class="cls-7" x="91" y="255.5" width="76" height="24"/>
          <rect class="cls-7" x="91" y="292" width="76" height="24"/>
          <rect class="cls-7" x="91" y="328.5" width="76" height="24"/>
          <rect class="cls-7" x="91" y="365" width="76" height="24"/>
          <rect class="cls-7" x="91" y="401.5" width="76" height="24"/>
          <rect class="cls-7" x="91" y="438" width="76" height="24"/>
          <rect class="cls-7" x="91" y="474.5" width="76" height="24"/>
          <rect class="cls-7" x="91" y="511" width="76" height="24"/>
          <rect class="cls-7" x="91" y="547.5" width="76" height="24"/>
          <rect class="cls-7" x="91" y="584" width="76" height="24"/>
          <rect class="cls-7" x="1953" y="438" width="76" height="24"/>
          <rect class="cls-7" x="1953" y="474.5" width="76" height="24"/>
          <rect class="cls-7" x="1953" y="511" width="76" height="24"/>
          <rect class="cls-7" x="1953" y="547.5" width="76" height="24"/>
          <rect class="cls-7" x="1953" y="584" width="76" height="24"/>
        </g>
      </g>
    </g>
    <g class="cls-9">
      <path class="cls-10" d="M243.92,740c0-1,.08-2.06.08-3.1a67.79,67.79,0,0,0-96.74-61.29A86.85,86.85,0,0,0-15.86,656.2a60.53,60.53,0,0,0-21.45-3.91A60.69,60.69,0,0,0-98,713a60.42,60.42,0,0,0,6.35,27Z" transform="translate(98 -423)"/>
    </g>
    <g class="cls-11">
      <path class="cls-10" d="M1561.1,965c-.06-1.28-.1-2.56-.1-3.84a84,84,0,0,1,119.94-76,107.68,107.68,0,0,1,202.22-24.07,75.25,75.25,0,0,1,94,103.89Z" transform="translate(98 -423)"/>
    </g>
  </g>
</svg>
