<?xml version="1.0" encoding="UTF-8" standalone="no"?>
<svg
   xmlns:dc="http://purl.org/dc/elements/1.1/"
   xmlns:cc="http://creativecommons.org/ns#"
   xmlns:rdf="http://www.w3.org/1999/02/22-rdf-syntax-ns#"
   xmlns:svg="http://www.w3.org/2000/svg"
   xmlns="http://www.w3.org/2000/svg"
   xmlns:sodipodi="http://sodipodi.sourceforge.net/DTD/sodipodi-0.dtd"
   xmlns:inkscape="http://www.inkscape.org/namespaces/inkscape"
   height="2048"
   width="2048"
   version="1.1"
   id="svg4"
   sodipodi:docname="github-white.svg"
   inkscape:version="0.92.2 2405546, 2018-03-11">
  <metadata
     id="metadata10">
    <rdf:RDF>
      <cc:Work
         rdf:about="">
        <dc:format>image/svg+xml</dc:format>
        <dc:type
           rdf:resource="http://purl.org/dc/dcmitype/StillImage" />
        <dc:title></dc:title>
      </cc:Work>
    </rdf:RDF>
  </metadata>
  <defs
     id="defs8" />
  <sodipodi:namedview
     pagecolor="#ffffff"
     bordercolor="#666666"
     borderopacity="1"
     objecttolerance="10"
     gridtolerance="10"
     guidetolerance="10"
     inkscape:pageopacity="0"
     inkscape:pageshadow="2"
     inkscape:window-width="3000"
     inkscape:window-height="1884"
     id="namedview6"
     showgrid="false"
     inkscape:pagecheckerboard="true"
     inkscape:zoom="0.65186406"
     inkscape:cx="432.03718"
     inkscape:cy="791.39279"
     inkscape:window-x="0"
     inkscape:window-y="60"
     inkscape:window-maximized="1"
     inkscape:current-layer="svg4" />
  <path
     d="m 1024,524.62416 c -282.75,0 -512,229.25 -512,512.00004 0,226.25 146.688,418.125 350.156,485.812 25.594,4.688 34.938,-11.125 34.938,-24.625 0,-12.188 -0.469,-52.562 -0.719,-95.312 -142.375,30.937 -172.469,-60.375 -172.469,-60.375 -23.312,-59.125 -56.844,-74.875 -56.844,-74.875 -46.531,-31.75 3.53,-31.125 3.53,-31.125 51.406,3.562 78.47,52.75 78.47,52.75 45.688,78.25 119.875,55.625 149,42.5 4.654,-33 17.904,-55.625 32.5,-68.375 -113.656,-12.937 -233.218,-56.875 -233.218,-253.063 0,-55.93804 19.969,-101.56204 52.656,-137.40604 -5.219,-13 -22.844,-65.094 5.062,-135.562 0,0 42.938,-13.75 140.812,52.5 40.812,-11.406 84.594,-17.031 128.125,-17.219 43.5,0.188 87.312,5.875 128.188,17.281 97.688,-66.312 140.688,-52.5 140.688,-52.5 28,70.531 10.375,122.562 5.125,135.5 32.812,35.844 52.625,81.469 52.625,137.40604 0,196.688 -119.75,240 -233.812,252.688 18.438,15.875 34.75,47 34.75,94.75 0,68.438 -0.688,123.625 -0.688,140.5 0,13.625 9.312,29.562 35.25,24.562 203.313,-67.812 349.875,-259.687 349.875,-485.812 0,-282.75004 -229.25,-512.00004 -512,-512.00004 z"
     id="path2"
     style="fill:#ffffff"
     inkscape:connector-curvature="0" />
</svg>
