<?xml version="1.0" encoding="UTF-8"?>
<svg width="748.63" height="687.28" data-name="Layer 1" version="1.1" viewBox="0 0 748.63 687.28" xmlns="http://www.w3.org/2000/svg" xmlns:cc="http://creativecommons.org/ns#" xmlns:dc="http://purl.org/dc/elements/1.1/" xmlns:rdf="http://www.w3.org/1999/02/22-rdf-syntax-ns#">
 <metadata>
  <rdf:RDF>
   <cc:Work rdf:about="">
    <dc:format>image/svg+xml</dc:format>
    <dc:type rdf:resource="http://purl.org/dc/dcmitype/StillImage"/>
    <dc:title>VH Logo and Date</dc:title>
   </cc:Work>
  </rdf:RDF>
 </metadata>
 <title>VH Logo and Date</title>
 <g fill="#ed725a">
  <g aria-label="VANDYHACKS V">
   <path d="m5.8027 463.11h-5.8027l17.664 58.795h5.888l17.579-58.795h-5.8027l-14.763 49.579z"/>
   <path d="m62.779 521.9 5.888-15.445h27.221l5.9733 15.445h6.0587l-22.613-58.795h-5.9733l-22.613 58.795zm31.147-20.736h-23.211l11.605-30.208z"/>
   <path d="m173.52 521.9v-58.795h-5.632v48.896l-29.696-48.896h-6.0587v58.795h5.632v-49.237l29.952 49.237z"/>
   <path d="m226.73 521.9c16.64 0 26.027-12.629 26.027-29.269 0-16.725-9.3867-29.525-26.027-29.525h-22.101v58.795zm-16.469-53.163h16.469c13.568 0 20.395 10.325 20.395 23.893s-6.8267 23.637-20.395 23.637h-16.469z"/>
   <path d="m297.7 494.59 22.357-31.488h-6.8267l-18.432 25.344-18.261-25.344h-6.7413l22.101 31.488v27.307h5.8027z"/>
   <path d="m387.15 463.11h-5.632v26.965h-32.256v-26.965h-5.632v58.795h5.632v-26.539h32.256v26.539h5.632z"/>
   <path d="m417.45 521.9 5.888-15.445h27.221l5.9733 15.445h6.0587l-22.613-58.795h-5.9733l-22.613 58.795zm31.147-20.736h-23.211l11.605-30.208z"/>
   <path d="m527.11 509.95c-4.352 4.4373-10.325 7.168-17.067 7.168-13.568 0-22.869-10.923-22.869-24.491s9.3013-24.576 22.869-24.576c6.7413 0 12.629 2.7307 16.981 7.0827l3.9253-3.9253c-5.2907-5.4613-12.629-8.7893-20.907-8.7893-16.64 0-28.501 13.483-28.501 30.208 0 16.64 11.861 30.123 28.501 30.123 8.2773 0 15.701-3.328 20.992-8.7893z"/>
   <path d="m567.74 492.55 22.869-29.44h-6.656l-22.187 28.587v-28.587h-5.632v58.795h5.632v-27.648l26.197 27.648h7.5947z"/>
   <path d="m618.59 505.01h-5.632c0 8.6187 7.424 17.749 19.029 17.749 12.117 0 18.603-7.424 19.968-14.251 1.7067-11.264-6.0587-16.811-15.445-18.944l-8.0213-1.792c-8.2773-1.8773-9.3867-6.2293-9.3867-9.3013 0-6.2293 6.3147-10.411 12.8-10.411 7.2533 0 12.8 4.352 12.8 11.179h5.632c0-10.24-8.0213-16.811-18.432-16.811-9.3867 0-18.432 6.4853-18.432 16.043 0 4.9493 1.6213 12.032 13.824 14.763l7.936 1.792c6.656 1.536 12.288 5.2053 11.179 12.459-0.93867 4.608-5.5467 9.6427-14.421 9.6427-8.192 0-13.397-6.2293-13.397-12.117z"/>
   <path d="m713.3 463.11h-5.8027l17.664 58.795h5.888l17.579-58.795h-5.8027l-14.763 49.579z"/>
  </g>
  <g id="VH" transform="matrix(1.21 0 0 1.21 -720.67 -365.54)">
   <title>VandyHacks Logo</title>
   <g fill="#ed725a">
    <path class="cls-2" d="m753.57 306.74 116.1 313.26c0.92 2.49-0.48 4.52-3.14 4.52h-18.76a7.43 7.43 0 0 1-6.49-4.52l-116.1-313.26c-0.92-2.49 0.48-4.52 3.14-4.52h18.75a7.43 7.43 0 0 1 6.5 4.52z"/>
    <path class="cls-2" d="m801.29 306.74 92.71 249.36c0.93 2.49-0.48 4.52-3.14 4.52h-18.72a7.44 7.44 0 0 1-6.5-4.52l-92.74-249.36c-0.93-2.49 0.48-4.52 3.14-4.52h18.75a7.44 7.44 0 0 1 6.5 4.52z"/>
    <path class="cls-2" d="m871.77 620.34 116.23-313.61c0.92-2.49-0.48-4.52-3.14-4.52h-18.76a7.43 7.43 0 0 0-6.49 4.52l-116.23 313.61c-0.92 2.49 0.48 4.52 3.14 4.52h18.75a7.43 7.43 0 0 0 6.5-4.52z"/>
    <path class="cls-2" d="m968.49 620.34 116.23-313.61c0.92-2.49-0.48-4.52-3.14-4.52h-18.75a7.43 7.43 0 0 0-6.49 4.52l-116.24 313.61c-0.92 2.49 0.48 4.52 3.14 4.52h18.76a7.43 7.43 0 0 0 6.49-4.52z"/>
    <path class="cls-2" d="m919.77 620.35 49-132.13c0.92-2.49-0.48-4.52-3.14-4.52h-18.79a7.43 7.43 0 0 0-6.49 4.52l-49 132.13c-0.92 2.49 0.48 4.52 3.14 4.52h18.75a7.43 7.43 0 0 0 6.53-4.52z"/>
    <path class="cls-2" d="m979.39 459.08 56.5-152.46c0.92-2.49-0.48-4.52-3.14-4.52h-18.75a7.43 7.43 0 0 0-6.49 4.52l-56.51 152.46c-0.92 2.49 0.48 4.52 3.14 4.52h18.76a7.43 7.43 0 0 0 6.49-4.52z"/>
   </g>
  </g>
  <g aria-label="November 2-4, 2018 Vanderbilt University">
   <path d="m162.64 601.89v-36.747h-3.52v30.56l-18.56-30.56h-3.7867v36.747h3.52v-30.773l18.72 30.773z"/>
   <path d="m183.11 602.43c7.0933 0 13.013-5.1733 13.013-13.067s-5.92-12.907-13.013-12.907c-7.0933 0-13.013 5.0133-13.013 12.907s5.92 13.067 13.013 13.067zm0-3.52c-5.1733 0-9.4933-3.7867-9.4933-9.5467s4.32-9.3867 9.4933-9.3867c5.1733 0 9.4933 3.6267 9.4933 9.3867s-4.32 9.5467-9.4933 9.5467z"/>
   <path d="m199.39 576.99 10.293 24.907h3.84-0.0533l10.347-24.907h-3.7867l-8.4267 20.747-8.48-20.747z"/>
   <path d="m239.66 602.43c5.0133 0 9.3333-2.6133 11.36-7.04-1.12-0.26667-2.5067-0.53334-3.5733-0.8-1.5467 2.72-4.4267 4.32-7.7867 4.32-4.64 0-8.32-3.04-8.96-7.8933h21.12c0.0533-0.48 0.0533-1.12 0.0533-1.6533 0-7.8933-5.12-12.907-12.213-12.907-7.0933 0-12.587 5.0133-12.587 12.907s5.4933 13.067 12.587 13.067zm-8.96-14.72c0.69333-4.7467 4.32-7.7333 8.96-7.7333 4.5867 0 7.8933 2.9867 8.5867 7.7333z"/>
   <path d="m279.91 588.29c0-6.08 4.32-8.32 8.2667-8.32 3.84 0 6.0267 2.8267 6.0267 7.4133v14.507h3.5733v-14.507c0.0533-6.7733-3.52-10.933-9.6-10.933-2.5067 0-6.9867 0.74667-9.2267 5.44-1.44-3.4667-4.4267-5.44-8.64-5.44-2.2933 0-6.72 1.3867-8.2667 4.64v-4.1067h-3.5733v24.907h3.5733v-13.6c0-6.08 4.32-8.32 8.2667-8.32 3.84 0 6.0267 2.8267 6.0267 7.4133v14.507h3.5733z"/>
   <path d="m306.07 601.89h3.5733v-4.2667c1.8667 3.1467 5.76 4.8 9.3867 4.8 7.0933 0 12.747-5.1733 12.747-13.067s-5.6533-12.907-12.747-12.907c-3.6267 0-7.52 1.4933-9.3867 4.64v-17.6h-3.5733zm22.133-12.533c0 5.5467-4 9.4933-9.1733 9.4933-5.0667 0-9.3867-3.36-9.3867-9.4933s4.9067-9.3333 9.3867-9.3333c5.1733 0 9.1733 3.6267 9.1733 9.3333z"/>
   <path d="m349.56 602.43c5.0133 0 9.3333-2.6133 11.36-7.04-1.12-0.26667-2.5067-0.53334-3.5733-0.8-1.5467 2.72-4.4267 4.32-7.7867 4.32-4.64 0-8.32-3.04-8.96-7.8933h21.12c0.0533-0.48 0.0533-1.12 0.0533-1.6533 0-7.8933-5.12-12.907-12.213-12.907-7.0933 0-12.587 5.0133-12.587 12.907s5.4933 13.067 12.587 13.067zm-8.96-14.72c0.69334-4.7467 4.32-7.7333 8.96-7.7333 4.5867 0 7.8933 2.9867 8.5867 7.7333z"/>
   <path d="m383.14 577.41c-0.48-0.42666-2.3467-0.96-4.0533-0.96-3.6267 0-5.92 1.92-7.1467 6.1867v-5.6533h-3.5733v24.907h3.5733v-9.28c0-6.6133 2.08-12.587 7.1467-12.587 0.90667 0 2.4533 0.26666 3.6267 0.85333z"/>
   <path d="m400.32 600.67v1.2267h21.28v-3.52h-15.04l11.147-13.173c2.24-2.56 3.84-5.7067 3.84-9.0667 0-6.0267-4.8533-10.133-10.88-10.133-5.3867 0-9.8667 3.2-10.72 8.3733l3.2533 0.85334c0.48-3.5733 3.7333-5.7067 7.4667-5.7067 4.0533 0 7.36 2.56 7.36 6.6133 0 2.3467-1.12 4.48-2.88 6.56z"/>
   <path d="m428.3 587.76v3.36h18.187v-3.36z"/>
   <path d="m473.92 594.32h5.3333v-3.2533h-5.3333v-24.64h-2.6133l-19.467 27.893h18.56v7.5733h3.52zm-15.627-3.2533 12.107-17.6v17.6z"/>
   <path d="m485.22 608.93c2.1333-1.76 4.5867-5.8667 5.0133-12h-4.1067c0.10667 4.96-1.44 8.5333-3.36 11.253z"/>
   <path d="m511.98 600.67v1.2267h21.28v-3.52h-15.04l11.147-13.173c2.24-2.56 3.84-5.7067 3.84-9.0667 0-6.0267-4.8533-10.133-10.88-10.133-5.3867 0-9.8667 3.2-10.72 8.3733l3.2533 0.85334c0.48-3.5733 3.7333-5.7067 7.4667-5.7067 4.0533 0 7.36 2.56 7.36 6.6133 0 2.3467-1.12 4.48-2.88 6.56z"/>
   <path d="m540.38 584.24c0 10.027 2.56 18.187 12.64 18.187s12.587-8.16 12.587-18.187c0-10.08-2.5067-18.24-12.587-18.24s-12.64 8.16-12.64 18.24zm3.52 0c0-8.16 1.8133-14.72 9.12-14.72 7.3067 0 9.0667 6.56 9.0667 14.72 0 8.1067-1.76 14.667-9.0667 14.667-7.3067 0-9.12-6.56-9.12-14.667z"/>
   <path d="m577.52 601.89h3.52v-35.467l-9.5467 3.4667v3.2l6.0267-2.08z"/>
   <path d="m592.41 574.69c0 2.72 1.1733 5.0667 3.0933 6.6133-3.6267 1.9733-5.9733 5.6533-5.9733 9.8133 0 6.2933 5.1733 11.307 11.947 11.307 6.7733 0 12-5.0133 12-11.307 0-4.16-2.4-7.84-6.0267-9.8133 1.9733-1.5467 3.2533-3.8933 3.2533-6.6133 0-4.8-4-8.6933-9.2267-8.6933-5.1733 0-9.0667 3.8933-9.0667 8.6933zm0.64 16.427c0-4.16 3.4667-7.7867 8.0533-7.9467h0.37334c4.8 0 8.48 3.68 8.48 7.9467 0 4.32-3.68 7.7867-8.48 7.7867s-8.4267-3.4667-8.4267-7.7867zm2.88-16.427c0-2.88 2.4-5.1733 5.5467-5.1733 3.2533 0 5.7067 2.2933 5.7067 5.1733 0 2.8267-2.3467 5.1733-5.4933 5.28h-0.48c-3.04-0.10666-5.28-2.4533-5.28-5.28z"/>
   <path d="m134.33 638.48h-3.6267l11.04 36.747h3.68l10.987-36.747h-3.6267l-9.2267 30.987z"/>
   <path d="m184.08 650.32h-3.5733v4.1067c-1.8667-3.1467-5.76-4.64-9.3867-4.64-7.0933 0-12.747 5.0133-12.747 12.907 0 7.8933 5.6533 13.067 12.747 13.067 3.6267 0 7.52-1.6533 9.3867-4.8v4.2667h3.5733zm-22.133 12.373c0-5.7067 4-9.3333 9.1733-9.3333 4.48 0 9.3867 3.2 9.3867 9.3333 0 6.1333-4.32 9.4933-9.3867 9.4933-5.1733 0-9.1733-3.9467-9.1733-9.4933z"/>
   <path d="m196.26 661.63c0-6.08 4.32-8.32 8.2667-8.32 3.84 0 6.0267 2.8267 6.0267 7.4133v14.507h3.5733v-14.507c0.0533-6.7733-3.52-10.933-9.6-10.933-2.88 0-6.72 1.3867-8.2667 4.64v-4.1067h-3.5733v24.907h3.5733z"/>
   <path d="m246.48 636.83h-3.5733v17.6c-1.8667-3.1467-5.76-4.64-9.3867-4.64-7.0933 0-12.747 5.0133-12.747 12.907 0 7.8933 5.6533 13.067 12.747 13.067 3.6267 0 7.52-1.6533 9.3867-4.8v4.2667h3.5733zm-22.133 25.867c0-5.7067 4-9.3333 9.1733-9.3333 4.48 0 9.3867 3.2 9.3867 9.3333 0 6.1333-4.32 9.4933-9.3867 9.4933-5.1733 0-9.1733-3.9467-9.1733-9.4933z"/>
   <path d="m265.96 675.76c5.0133 0 9.3333-2.6133 11.36-7.04-1.12-0.26666-2.5067-0.53333-3.5733-0.8-1.5467 2.72-4.4267 4.32-7.7867 4.32-4.64 0-8.32-3.04-8.96-7.8933h21.12c0.0533-0.48 0.0533-1.12 0.0533-1.6533 0-7.8933-5.12-12.907-12.213-12.907-7.0933 0-12.587 5.0133-12.587 12.907 0 7.8933 5.4933 13.067 12.587 13.067zm-8.96-14.72c0.69333-4.7467 4.32-7.7333 8.96-7.7333 4.5867 0 7.8933 2.9867 8.5867 7.7333z"/>
   <path d="m299.54 650.75c-0.48-0.42667-2.3467-0.96-4.0533-0.96-3.6267 0-5.92 1.92-7.1467 6.1867v-5.6533h-3.5733v24.907h3.5733v-9.28c0-6.6133 2.08-12.587 7.1467-12.587 0.90667 0 2.4533 0.26667 3.6267 0.85334z"/>
   <path d="m304.87 675.23h3.5733v-4.2667c1.8667 3.1467 5.76 4.8 9.3867 4.8 7.0933 0 12.747-5.1733 12.747-13.067 0-7.8933-5.6533-12.907-12.747-12.907-3.6267 0-7.52 1.4933-9.3867 4.64v-17.6h-3.5733zm22.133-12.533c0 5.5467-4 9.4933-9.1733 9.4933-5.0667 0-9.3867-3.36-9.3867-9.4933 0-6.1333 4.9067-9.3333 9.3867-9.3333 5.1733 0 9.1733 3.6267 9.1733 9.3333z"/>
   <path d="m341 675.23h-3.52v-24.907h3.52zm-4.4267-34.187c0 1.4933 1.2267 2.56 2.72 2.56 1.4933 0 2.72-1.0667 2.72-2.56 0-1.4933-1.2267-2.56-2.72-2.56-1.4933 0-2.72 1.0667-2.72 2.56z"/>
   <path d="m353.19 636.83h-3.52v38.4h3.52z"/>
   <path d="m367.08 675.23v-21.707h5.28v-3.2h-5.28v-9.3333h-3.5733v9.3333h-4.48v3.2h4.48v21.707z"/>
   <path d="m405.09 672.24c-5.1733 0-9.4933-3.68-9.4933-9.44v-24.32h-3.52v24.32c0 7.8933 5.92 12.96 13.013 12.96 7.0933 0 13.013-5.0667 13.013-12.96v-24.32h-3.52v24.32c0 5.76-4.32 9.44-9.4933 9.44z"/>
   <path d="m430.63 661.63c0-6.08 4.32-8.32 8.2667-8.32 3.84 0 6.0267 2.8267 6.0267 7.4133v14.507h3.5733v-14.507c0.0533-6.7733-3.52-10.933-9.6-10.933-2.88 0-6.72 1.3867-8.2667 4.64v-4.1067h-3.5733v24.907h3.5733z"/>
   <path d="m460.37 675.23h-3.52v-24.907h3.52zm-4.4267-34.187c0 1.4933 1.2267 2.56 2.72 2.56s2.72-1.0667 2.72-2.56c0-1.4933-1.2267-2.56-2.72-2.56s-2.72 1.0667-2.72 2.56z"/>
   <path d="m466 650.32 10.293 24.907h3.84-0.0533l10.347-24.907h-3.7867l-8.4267 20.747-8.48-20.747z"/>
   <path d="m506.27 675.76c5.0133 0 9.3333-2.6133 11.36-7.04-1.12-0.26666-2.5067-0.53333-3.5733-0.8-1.5467 2.72-4.4267 4.32-7.7867 4.32-4.64 0-8.32-3.04-8.96-7.8933h21.12c0.0533-0.48 0.0533-1.12 0.0533-1.6533 0-7.8933-5.12-12.907-12.213-12.907-7.0933 0-12.587 5.0133-12.587 12.907 0 7.8933 5.4933 13.067 12.587 13.067zm-8.96-14.72c0.69334-4.7467 4.32-7.7333 8.96-7.7333 4.5867 0 7.8933 2.9867 8.5867 7.7333z"/>
   <path d="m539.86 650.75c-0.48-0.42667-2.3467-0.96-4.0533-0.96-3.6267 0-5.92 1.92-7.1467 6.1867v-5.6533h-3.5733v24.907h3.5733v-9.28c0-6.6133 2.08-12.587 7.1467-12.587 0.90667 0 2.4533 0.26667 3.6267 0.85334z"/>
   <path d="m543.21 668.08c0.21333 4.8533 4.48 7.68 8.6933 7.68 5.1733 0 9.12-2.9867 9.12-7.3067 0-3.4133-1.6-6.1333-6.2933-7.2533l-3.4133-0.8c-1.76-0.42666-4.2133-1.28-3.68-4.16 0.26667-1.76 2.24-3.04 4.64-3.04 2.1333 0 3.9467 1.12 4.3733 3.04h3.4667c-0.64-4.5867-4-6.4533-7.84-6.4533-4.0533 0-7.5733 2.3467-8.1067 5.92-0.64 5.8133 3.2 7.36 6.2933 8.1067l3.4667 0.8c2.6133 0.64 3.5733 2.1867 3.5733 3.84 0 2.3467-2.08 3.9467-5.28 3.9467-4.2133 0-5.3867-2.4533-5.8667-4.32z"/>
   <path d="m571.31 675.23h-3.52v-24.907h3.52zm-4.4267-34.187c0 1.4933 1.2267 2.56 2.72 2.56s2.72-1.0667 2.72-2.56c0-1.4933-1.2267-2.56-2.72-2.56s-2.72 1.0667-2.72 2.56z"/>
   <path d="m585.2 675.23v-21.707h5.28v-3.2h-5.28v-9.3333h-3.5733v9.3333h-4.48v3.2h4.48v21.707z"/>
   <path d="m602.36 687.28 15.467-36.96h-3.7867l-8.48 20.267-8.4267-20.267h-3.7333l10.24 24.853-4.96 12.107z"/>
  </g>
  <g transform="translate(-.43352 -9.9887e-6)" aria-label="®">
   <path d="m333.33 468.95h-0.80818l-1.1143-1.5551h-0.45307v1.5551h-0.67349v-4.2858h1.6286c0.91839 0 1.347 0.68573 1.347 1.3714 0 0.60002-0.35511 1.2123-1.0531 1.3347zm-2.3756-3.6123v1.396h0.93063c0.45307 0 0.71022-0.34287 0.71022-0.69798 0-0.3551-0.25715-0.69797-0.68573-0.69797zm-3.6001 1.4204c0 2.3878 1.8858 4.3225 4.2736 4.3225s4.2858-1.9347 4.2858-4.3225-1.898-4.3348-4.2858-4.3348-4.2736 1.947-4.2736 4.3348zm0.68573 0c0-2.0082 1.5796-3.6368 3.5878-3.6368 2.0082 0 3.5878 1.6286 3.5878 3.6368s-1.5796 3.6246-3.5878 3.6246c-2.0082 0-3.5878-1.6164-3.5878-3.6246z" stroke-width=".30613"/>
  </g>
 </g>
</svg>
