<?xml version="1.0" encoding="UTF-8" standalone="no"?>
<svg
   xmlns:dc="http://purl.org/dc/elements/1.1/"
   xmlns:cc="http://creativecommons.org/ns#"
   xmlns:rdf="http://www.w3.org/1999/02/22-rdf-syntax-ns#"
   xmlns:svg="http://www.w3.org/2000/svg"
   xmlns="http://www.w3.org/2000/svg"
   xmlns:sodipodi="http://sodipodi.sourceforge.net/DTD/sodipodi-0.dtd"
   xmlns:inkscape="http://www.inkscape.org/namespaces/inkscape"
   id="Layer_1"
   data-name="Layer 1"
   viewBox="0 0 729.12731 687.21376"
   version="1.1"
   sodipodi:docname="vh-logo-date.svg"
   width="729.12732"
   height="687.21375"
   inkscape:version="0.92.2 2405546, 2018-03-11">
  <metadata
     id="metadata1091">
    <rdf:RDF>
      <cc:Work
         rdf:about="">
        <dc:format>image/svg+xml</dc:format>
        <dc:type
           rdf:resource="http://purl.org/dc/dcmitype/StillImage" />
        <dc:title>VH Logo and Date</dc:title>
      </cc:Work>
    </rdf:RDF>
  </metadata>
  <sodipodi:namedview
     pagecolor="#ffffff"
     bordercolor="#666666"
     borderopacity="1"
     objecttolerance="10"
     gridtolerance="10"
     guidetolerance="10"
     inkscape:pageopacity="0"
     inkscape:pageshadow="2"
     inkscape:window-width="3000"
     inkscape:window-height="1884"
     id="namedview1089"
     showgrid="false"
     inkscape:pagecheckerboard="true"
     inkscape:zoom="1.7457144"
     inkscape:cx="391.34421"
     inkscape:cy="272.86834"
     inkscape:window-x="0"
     inkscape:window-y="60"
     inkscape:window-maximized="1"
     inkscape:current-layer="Layer_1" />
  <defs
     id="defs1006">
    <style
       id="style1001">
      .cls-1 {
        fill: none;
      }

      .cls-2 {
        font-size: 70px;
        font-family: SofiaProRegular, Sofia Pro;
      }

      .cls-12, .cls-14, .cls-18, .cls-19, .cls-2 {
        fill: #fff;
      }

      .cls-3 {
        letter-spacing: -0.01em;
      }

      .cls-4 {
        letter-spacing: -0.01em;
      }

      .cls-5 {
        letter-spacing: -0.02em;
      }

      .cls-6 {
        letter-spacing: -0.05em;
      }

      .cls-7 {
        letter-spacing: -0.02em;
      }

      .cls-8 {
        letter-spacing: -0.01em;
      }

      .cls-9 {
        letter-spacing: -0.01em;
      }

      .cls-10 {
        letter-spacing: 0em;
      }

      .cls-11 {
        letter-spacing: -0.03em;
      }

      .cls-13 {
        clip-path: url(#clip-path);
      }

      .cls-14, .cls-19 {
        font-size: 91.96px;
        font-family: SofiaProCondensedRegular, Sofia Pro Condensed;
      }

      .cls-14 {
        letter-spacing: 0.17em;
      }

      .cls-15, .cls-19 {
        letter-spacing: 0.2em;
      }

      .cls-16 {
        letter-spacing: 0.17em;
      }

      .cls-17 {
        letter-spacing: 0.1em;
      }

      .cls-18 {
        font-size: 20.18px;
        font-family: SofiaProLight, Sofia Pro;
        letter-spacing: 0.2em;
      }

      .cls-20 {
        letter-spacing: 0.19em;
      }

      .cls-21 {
        letter-spacing: 0.19em;
      }

      .cls-22 {
        letter-spacing: 0.17em;
      }

      .cls-23 {
        letter-spacing: 0.17em;
      }
    </style>
    <clipPath
       id="clip-path"
       transform="translate(-228.28 -123.99)">
      <path
         class="cls-1"
         d="M 779,509.74 920.15,128.91 c 1,-2.64 -0.51,-4.78 -3.33,-4.78 h -24.15 a 7.87,7.87 0 0 0 -6.87,4.78 L 744.66,509.74 c -1,2.64 0.51,4.78 3.33,4.78 h 24.15 a 7.87,7.87 0 0 0 6.86,-4.78 z"
         id="path1003"
         inkscape:connector-curvature="0"
         style="fill:none" />
    </clipPath>
  </defs>
  <title
     id="title1008">VH Logo and Date</title>
  <text
     class="cls-2"
     id="text1042"
     style="font-size:70px;line-height:100%;font-family:SofiaProRegular, 'Sofia Pro';text-align:start;letter-spacing:0px;text-anchor:start;fill:#ffffff"
     x="45.123646"
     y="624.55035">
    <tspan
       class="cls-3"
       id="tspan1010"
       style="line-height:100%;text-align:start;letter-spacing:0px;text-anchor:start" />
  </text>
  <g
     id="g1086"
     transform="translate(-170.75539,-0.13)">
    <g
       id="g1060"
       transform="translate(2.2690399)">
      <path
         class="cls-12"
         d="m 578.16,129.6 140.48,379.06 c 1.12,3 -0.58,5.47 -3.8,5.47 h -22.69 a 9,9 0 0 1 -7.85,-5.47 L 543.81,129.6 c -1.12,-3 0.58,-5.47 3.8,-5.47 h 22.69 a 9,9 0 0 1 7.86,5.47 z"
         transform="translate(-228.28,-123.99)"
         id="path1044"
         inkscape:connector-curvature="0"
         style="fill:#ffffff" />
      <path
         class="cls-12"
         d="m 635.91,129.6 112.21,301.72 c 1.12,3 -0.58,5.46 -3.8,5.46 h -22.69 a 9,9 0 0 1 -7.86,-5.46 L 601.56,129.6 c -1.12,-3 0.58,-5.46 3.8,-5.46 H 628 a 9,9 0 0 1 7.91,5.46 z"
         transform="translate(-228.28,-123.99)"
         id="path1046"
         inkscape:connector-curvature="0"
         style="fill:#ffffff" />
      <path
         class="cls-12"
         d="M 721.19,509.06 861.82,129.59 c 1.12,-3 -0.58,-5.47 -3.8,-5.47 h -22.69 a 9,9 0 0 0 -7.85,5.47 L 686.84,509.06 c -1.12,3 0.58,5.47 3.8,5.47 h 22.69 a 9,9 0 0 0 7.86,-5.47 z"
         transform="translate(-228.28,-123.99)"
         id="path1048"
         inkscape:connector-curvature="0"
         style="fill:#ffffff" />
      <path
         class="cls-12"
         d="M 838.22,509.06 978.85,129.59 c 1.12,-3 -0.58,-5.47 -3.8,-5.47 h -22.69 a 9,9 0 0 0 -7.85,5.47 L 803.87,509.06 c -1.12,3 0.58,5.47 3.8,5.47 h 22.69 a 9,9 0 0 0 7.86,-5.47 z"
         transform="translate(-228.28,-123.99)"
         id="path1050"
         inkscape:connector-curvature="0"
         style="fill:#ffffff" />
      <g
         class="cls-13"
         clip-path="url(#clip-path)"
         id="g1058">
        <g
           id="g1056">
          <path
             class="cls-12"
             d="m 779.27,509.06 59.25,-159.88 c 1.12,-3 -0.58,-5.47 -3.8,-5.47 H 812 a 9,9 0 0 0 -7.85,5.47 l -59.23,159.88 c -1.12,3 0.58,5.47 3.8,5.47 h 22.69 a 9,9 0 0 0 7.86,-5.47 z"
             transform="translate(-228.28,-123.99)"
             id="path1052"
             inkscape:connector-curvature="0"
             style="fill:#ffffff" />
          <path
             class="cls-12"
             d="m 851.41,313.93 68.36,-184.47 c 1.12,-3 -0.58,-5.47 -3.8,-5.47 h -22.7 a 9,9 0 0 0 -7.85,5.47 l -68.36,184.47 c -1.12,3 0.58,5.47 3.8,5.47 h 22.69 a 9,9 0 0 0 7.86,-5.47 z"
             transform="translate(-228.28,-123.99)"
             id="path1054"
             inkscape:connector-curvature="0"
             style="fill:#ffffff" />
        </g>
      </g>
    </g>
    <g
       id="g1648"
       transform="translate(30.347585)">
      <text
         y="557.87335"
         x="130.6474"
         style="font-size:74.77654266px;font-family:SofiaProCondensedRegular, 'Sofia Pro Condensed';letter-spacing:0.17em;fill:#ffffff;stroke-width:0.81314206"
         id="text1068"
         transform="scale(1.0699238,0.93464601)"
         class="cls-14">
        <tspan
           id="tspan1636"
           style="letter-spacing:14.96000004px;stroke-width:0.81314206">VANDY</tspan>
      </text>
      <text
         y="487.75"
         x="473.67999"
         style="font-size:20.18000031px;font-family:SofiaProLight, 'Sofia Pro';letter-spacing:0.2em;fill:#ffffff"
         id="text1070"
         class="cls-18">®</text>
      <text
         style="font-size:91.95999908px;font-family:SofiaProCondensedRegular, 'Sofia Pro Condensed';letter-spacing:0.2em;fill:#ffffff"
         id="text1084"
         transform="matrix(0.87,0,0,0.76,490.15,521.38)"
         class="cls-19">H<tspan
   style="letter-spacing:0.19em"
   id="tspan1072"
   y="0"
   x="73.889999"
   class="cls-20">A</tspan>
<tspan
   id="tspan1074"
   y="0"
   x="141.81">C</tspan>
<tspan
   style="letter-spacing:0.19em"
   id="tspan1076"
   y="0"
   x="212.42"
   class="cls-21">K</tspan>
<tspan
   id="tspan1078"
   y="0"
   x="274.28">S</tspan>
<tspan
   style="letter-spacing:0.17em"
   id="tspan1080"
   y="0"
   x="338.07001"
   class="cls-22" />
<tspan
   style="letter-spacing:0.17em"
   id="tspan1082"
   y="0"
   x="373.92999"
   class="cls-23">V</tspan>
</text>
    </g>
  </g>
  <flowRoot
     xml:space="preserve"
     id="flowRoot1666"
     style="font-style:normal;font-variant:normal;font-weight:normal;font-stretch:normal;font-size:40px;line-height:1.25;font-family:SofiaProRegular, 'Sofia Pro';-inkscape-font-specification:'SofiaProRegular, Sofia Pro';letter-spacing:0px;word-spacing:0px;fill:#000000;fill-opacity:1;stroke:none"
     transform="translate(-181.06635,-8.1496395)"><flowRegion
       id="flowRegion1668"
       style="font-style:normal;font-variant:normal;font-weight:normal;font-stretch:normal;font-family:SofiaProRegular, 'Sofia Pro';-inkscape-font-specification:'SofiaProRegular, Sofia Pro'"><rect
         id="rect1670"
         width="889.0343"
         height="206.2193"
         x="602.61865"
         y="679.96094"
         style="font-style:normal;font-variant:normal;font-weight:normal;font-stretch:normal;font-family:SofiaProRegular, 'Sofia Pro';-inkscape-font-specification:'SofiaProRegular, Sofia Pro'" /></flowRegion><flowPara
       id="flowPara1672"></flowPara></flowRoot>  <flowRoot
     xml:space="preserve"
     id="flowRoot1681"
     style="font-style:normal;font-variant:normal;font-weight:normal;font-stretch:normal;font-size:40px;line-height:1.25;font-family:SofiaProRegular, 'Sofia Pro';-inkscape-font-specification:'SofiaProRegular, Sofia Pro';letter-spacing:0px;word-spacing:0px;fill:#000000;fill-opacity:1;stroke:none"
     transform="translate(-181.06635,-8.1496395)"><flowRegion
       id="flowRegion1683"
       style="font-style:normal;font-variant:normal;font-weight:normal;font-stretch:normal;font-family:SofiaProRegular, 'Sofia Pro';-inkscape-font-specification:'SofiaProRegular, Sofia Pro'"><rect
         id="rect1685"
         width="774.46802"
         height="189.03436"
         x="170.70375"
         y="568.83167"
         style="font-style:normal;font-variant:normal;font-weight:normal;font-stretch:normal;font-family:SofiaProRegular, 'Sofia Pro';-inkscape-font-specification:'SofiaProRegular, Sofia Pro'" /></flowRegion><flowPara
       id="flowPara1687"></flowPara></flowRoot>  <flowRoot
     xml:space="preserve"
     id="flowRoot1689"
     style="font-style:normal;font-weight:normal;font-size:40px;line-height:1.25;font-family:sans-serif;text-align:center;letter-spacing:0px;word-spacing:0px;text-anchor:middle;fill:#000000;fill-opacity:1;stroke:none"
     transform="matrix(0.82006768,0,0,0.82006768,-80.13847,108.79532)"><flowRegion
       id="flowRegion1691"
       style="text-align:center;text-anchor:middle"><rect
         id="rect1693"
         width="804.25525"
         height="209.6563"
         x="140.91652"
         y="541.33575"
         style="text-align:center;text-anchor:middle" /></flowRegion><flowPara
       id="flowPara1695"
       style="font-style:normal;font-variant:normal;font-weight:normal;font-stretch:normal;font-size:70px;font-family:SofiaProRegular, 'Sofia Pro';-inkscape-font-specification:'SofiaProRegular, Sofia Pro';text-align:center;text-anchor:middle;fill:#ffffff">November 2-4, 2018</flowPara><flowPara
       id="flowPara1697"
       style="font-style:normal;font-variant:normal;font-weight:normal;font-stretch:normal;font-size:70px;font-family:SofiaProRegular, 'Sofia Pro';-inkscape-font-specification:'SofiaProRegular, Sofia Pro';text-align:center;text-anchor:middle;fill:#ffffff">Vanderbilt University</flowPara></flowRoot></svg>
