<?xml version="1.0" encoding="UTF-8" standalone="no"?>
<svg
   xmlns:dc="http://purl.org/dc/elements/1.1/"
   xmlns:cc="http://creativecommons.org/ns#"
   xmlns:rdf="http://www.w3.org/1999/02/22-rdf-syntax-ns#"
   xmlns:svg="http://www.w3.org/2000/svg"
   xmlns="http://www.w3.org/2000/svg"
   xmlns:sodipodi="http://sodipodi.sourceforge.net/DTD/sodipodi-0.dtd"
   xmlns:inkscape="http://www.inkscape.org/namespaces/inkscape"
   id="Layer_1"
   data-name="Layer 1"
   viewBox="0 0 746.148 687.21901"
   version="1.1"
   sodipodi:docname="vh-logo-date.svg"
   width="746.14801"
   height="687.21899"
   inkscape:version="0.92.2 2405546, 2018-03-11">
  <metadata
     id="metadata1091">
    <rdf:RDF>
      <cc:Work
         rdf:about="">
        <dc:format>image/svg+xml</dc:format>
        <dc:type
           rdf:resource="http://purl.org/dc/dcmitype/StillImage" />
        <dc:title>VH Logo and Date</dc:title>
      </cc:Work>
    </rdf:RDF>
  </metadata>
  <sodipodi:namedview
     pagecolor="#ffffff"
     bordercolor="#666666"
     borderopacity="1"
     objecttolerance="10"
     gridtolerance="10"
     guidetolerance="10"
     inkscape:pageopacity="0"
     inkscape:pageshadow="2"
     inkscape:window-width="3000"
     inkscape:window-height="1884"
     id="namedview1089"
     showgrid="false"
     inkscape:pagecheckerboard="true"
     inkscape:zoom="1.7457144"
     inkscape:cx="372.41698"
     inkscape:cy="386.13538"
     inkscape:window-x="0"
     inkscape:window-y="60"
     inkscape:window-maximized="1"
     inkscape:current-layer="Layer_1" />
  <defs
     id="defs1006">
    <style
       id="style1001">
      .cls-1 {
        fill: none;
      }

      .cls-2 {
        font-size: 70px;
        font-family: SofiaProRegular, Sofia Pro;
      }

      .cls-12, .cls-14, .cls-18, .cls-19, .cls-2 {
        fill: #fff;
      }

      .cls-3 {
        letter-spacing: -0.01em;
      }

      .cls-4 {
        letter-spacing: -0.01em;
      }

      .cls-5 {
        letter-spacing: -0.02em;
      }

      .cls-6 {
        letter-spacing: -0.05em;
      }

      .cls-7 {
        letter-spacing: -0.02em;
      }

      .cls-8 {
        letter-spacing: -0.01em;
      }

      .cls-9 {
        letter-spacing: -0.01em;
      }

      .cls-10 {
        letter-spacing: 0em;
      }

      .cls-11 {
        letter-spacing: -0.03em;
      }

      .cls-13 {
        clip-path: url(#clip-path);
      }

      .cls-14, .cls-19 {
        font-size: 91.96px;
        font-family: SofiaProCondensedRegular, Sofia Pro Condensed;
      }

      .cls-14 {
        letter-spacing: 0.17em;
      }

      .cls-15, .cls-19 {
        letter-spacing: 0.2em;
      }

      .cls-16 {
        letter-spacing: 0.17em;
      }

      .cls-17 {
        letter-spacing: 0.1em;
      }

      .cls-18 {
        font-size: 20.18px;
        font-family: SofiaProLight, Sofia Pro;
        letter-spacing: 0.2em;
      }

      .cls-20 {
        letter-spacing: 0.19em;
      }

      .cls-21 {
        letter-spacing: 0.19em;
      }

      .cls-22 {
        letter-spacing: 0.17em;
      }

      .cls-23 {
        letter-spacing: 0.17em;
      }
    </style>
    <clipPath
       id="clip-path"
       transform="translate(-228.28 -123.99)">
      <path
         class="cls-1"
         d="M 779,509.74 920.15,128.91 c 1,-2.64 -0.51,-4.78 -3.33,-4.78 h -24.15 a 7.87,7.87 0 0 0 -6.87,4.78 L 744.66,509.74 c -1,2.64 0.51,4.78 3.33,4.78 h 24.15 a 7.87,7.87 0 0 0 6.86,-4.78 z"
         id="path1003"
         inkscape:connector-curvature="0"
         style="fill:none" />
    </clipPath>
    <clipPath
       id="clip-path-5">
      <path
         inkscape:connector-curvature="0"
         class="cls-1"
         d="M 919.55,620.91 1036.2,306.17 a 2.74,2.74 0 0 0 -2.75,-4 h -20 a 6.5,6.5 0 0 0 -5.68,4 l -116.6,314.74 a 2.74,2.74 0 0 0 2.75,4 h 20 a 6.5,6.5 0 0 0 5.63,-4 z"
         id="path4"
         style="fill:none" />
    </clipPath>
  </defs>
  <title
     id="title1008">VH Logo and Date</title>
  <text
     class="cls-2"
     id="text1042"
     style="font-size:70px;line-height:100%;font-family:SofiaProRegular, 'Sofia Pro';text-align:start;letter-spacing:0px;text-anchor:start;fill:#ffffff"
     x="53.634003"
     y="624.55566">
    <tspan
       class="cls-3"
       id="tspan1010"
       style="line-height:100%;text-align:start;letter-spacing:0px;text-anchor:start" />
  </text>
  <g
     id="g1086"
     transform="translate(-180.32986,-0.12471848)">
    <g
       id="g1648"
       transform="translate(30.347585)">
      <g
         id="g1900"
         transform="translate(-0.4255386)">
        <g
           aria-label="VANDY"
           transform="scale(1.0699238,0.93464601)"
           style="font-size:74.77654266px;font-family:SofiaProCondensedRegular, 'Sofia Pro Condensed';letter-spacing:0.17em;fill:#ffffff;stroke-width:0.81314206"
           id="text1068">
          <path
             d="m 161.38989,557.87335 -20.81183,-54.51239 h 7.70403 l 17.27016,45.89556 17.30668,-45.89556 h 7.66752 l -20.77532,54.51239 z"
             style="letter-spacing:10px;stroke-width:0.81314206"
             id="path2197" />
          <path
             d="m 221.84945,510.62685 -10.00428,27.1284 h 20.04508 z m -4.16237,-7.26589 h 8.36125 l 20.77532,54.51239 h -7.66752 l -4.96563,-13.98409 h -24.57256 l -4.96563,13.98409 h -7.77706 z"
             style="letter-spacing:10px;stroke-width:0.81314206"
             id="path2199" />
          <path
             d="m 264.74675,503.36096 h 9.93126 l 24.17093,45.60347 v -45.60347 h 7.15635 v 54.51239 h -9.93126 l -24.17094,-45.60347 v 45.60347 h -7.15634 z"
             style="letter-spacing:10px;stroke-width:0.81314206"
             id="path2201" />
          <path
             d="m 338.05852,509.42195 v 42.39041 h 8.90893 q 11.2822,0 16.50341,-5.11167 5.25773,-5.11168 5.25773,-16.1383 0,-10.9536 -5.25773,-16.02876 -5.22121,-5.11168 -16.50341,-5.11168 z m -7.37542,-6.06099 h 15.15247 q 15.84621,0 23.25814,6.60867 7.41193,6.57216 7.41193,20.59276 0,14.09362 -7.44844,20.70229 -7.44845,6.60867 -23.22163,6.60867 H 330.6831 Z"
             style="letter-spacing:10px;stroke-width:0.81314206"
             id="path2203" />
          <path
             d="m 386.6517,503.36096 h 7.9231 l 15.11596,22.41836 15.00642,-22.41836 h 7.9231 l -19.27832,28.55237 v 25.96002 h -7.41194 v -25.96002 z"
             style="letter-spacing:10px;stroke-width:0.81314206"
             id="path2205" />
        </g>
        <g
           aria-label="®"
           style="font-size:20.18000031px;font-family:SofiaProLight, 'Sofia Pro';letter-spacing:0.2em;fill:#ffffff"
           id="text1070">
          <path
             d="m 473.43641,474.13244 q -1.29082,0 -2.40426,0.46312 -1.11345,0.46311 -2.03968,1.38934 -0.92623,0.92623 -1.3992,2.05939 -0.47297,1.1233 -0.47297,2.40425 0,1.27111 0.47297,2.39441 0.47297,1.11345 1.3992,2.03968 0.92623,0.92623 2.03968,1.3992 1.11344,0.46311 2.40426,0.46311 1.30066,0 2.41411,-0.46311 1.1233,-0.47297 2.04953,-1.3992 0.91637,-0.91638 1.36964,-2.02983 0.46311,-1.11344 0.46311,-2.40426 0,-1.31051 -0.46311,-2.42396 -0.46312,-1.1233 -1.36964,-2.03968 -0.92623,-0.92623 -2.04953,-1.38934 -1.11345,-0.46312 -2.41411,-0.46312 z m 0,-1.01491 q 1.49773,0 2.78854,0.54194 1.30066,0.54195 2.3747,1.61598 1.07403,1.07403 1.60612,2.36484 0.53209,1.29081 0.53209,2.80825 0,1.49774 -0.53209,2.78855 -0.53209,1.28096 -1.60612,2.35499 -1.07404,1.07403 -2.3747,1.61598 -1.29081,0.54194 -2.78854,0.54194 -1.49774,0 -2.7984,-0.54194 -1.29081,-0.54195 -2.36485,-1.61598 -1.07403,-1.07403 -1.60612,-2.35499 -0.53209,-1.29081 -0.53209,-2.78855 0,-1.51744 0.53209,-2.80825 0.53209,-1.29081 1.60612,-2.36484 1.07404,-1.07403 2.36485,-1.61598 1.30066,-0.54194 2.7984,-0.54194 z m -0.26605,4.07935 h -1.21198 v 2.71957 h 1.21198 q 1.08389,0 1.50759,-0.30545 0.43355,-0.30546 0.43355,-1.04448 0,-0.74886 -0.43355,-1.05432 -0.43356,-0.31532 -1.50759,-0.31532 z m 0.069,-1.01491 q 1.73422,0 2.59148,0.59121 0.85726,0.58136 0.85726,1.77364 0,0.8474 -0.52224,1.3992 -0.51238,0.55179 -1.45832,0.7193 0.23648,0.0788 0.56165,0.46312 0.33502,0.37443 0.78828,1.09374 l 1.34993,2.19733 h -1.6948 l -1.27111,-2.05938 q -0.58135,-0.94594 -0.94593,-1.19228 -0.35473,-0.25619 -0.88682,-0.25619 h -0.65033 v 3.50785 h -1.5273 v -8.23754 z"
             style="font-size:20.18000031px;font-family:SofiaProLight, 'Sofia Pro';letter-spacing:0.2em;fill:#ffffff"
             id="path2208" />
        </g>
        <g
           aria-label="HACKS V"
           transform="scale(1.0699238,0.93464601)"
           style="font-size:74.77654266px;font-family:SofiaProCondensedRegular, 'Sofia Pro Condensed';letter-spacing:0.2em;fill:#ffffff;stroke-width:0.81314206"
           id="text1084">
          <path
             d="m 456.1092,503.32446 h 7.37542 v 22.34534 h 26.7998 v -22.34534 h 7.37542 v 54.51239 h -7.37542 v -25.96002 h -26.7998 v 25.96002 h -7.37542 z"
             style="letter-spacing:10px;stroke-width:0.81314206"
             id="path2211" />
          <path
             d="m 540.55714,510.59035 -10.00429,27.1284 h 20.04508 z m -4.16237,-7.26589 h 8.36125 l 20.77531,54.51239 h -7.66751 l -4.96563,-13.98409 h -24.57257 l -4.96563,13.98409 h -7.77705 z"
             style="letter-spacing:10px;stroke-width:0.81314206"
             id="path2213" />
          <path
             d="m 622.9604,507.52334 v 7.77705 q -3.72422,-3.46864 -7.95961,-5.1847 -4.19888,-1.71606 -8.94544,-1.71606 -9.34707,0 -14.3127,5.73238 -4.96563,5.69587 -4.96563,16.50342 0,10.77103 4.96563,16.50341 4.96563,5.69587 14.3127,5.69587 4.74656,0 8.94544,-1.71606 4.23539,-1.71607 7.95961,-5.1847 v 7.70402 q -3.87027,2.62887 -8.2152,3.9433 -4.30841,1.31443 -9.12799,1.31443 -12.37756,0 -19.4974,-7.55798 -7.11984,-7.59449 -7.11984,-20.70229 0,-13.14432 7.11984,-20.7023 7.11984,-7.59449 19.4974,-7.59449 4.8926,0 9.20102,1.31443 4.34492,1.27792 8.14217,3.87027 z"
             style="letter-spacing:10px;stroke-width:0.81314206"
             id="path2215" />
          <path
             d="m 644.42517,503.32446 h 7.37542 v 23.03906 l 24.46303,-23.03906 h 9.49311 l -27.05538,25.41234 28.99052,29.10005 h -9.71219 l -26.17909,-26.25211 v 26.25211 h -7.37542 z"
             style="letter-spacing:10px;stroke-width:0.81314206"
             id="path2217" />
          <path
             d="m 736.17549,505.11355 v 7.19286 q -4.19888,-2.00816 -7.9231,-2.99398 -3.72422,-0.98583 -7.19286,-0.98583 -6.02448,0 -9.31056,2.33677 -3.24956,2.33677 -3.24956,6.64518 0,3.61469 2.1542,5.4768 2.19072,1.8256 8.25171,2.95747 l 4.45446,0.9128 q 8.25171,1.57001 12.15849,5.54982 3.9433,3.94329 3.9433,10.58848 0,7.9231 -5.33075,12.01244 -5.29424,4.08934 -15.55411,4.08934 -3.87027,0 -8.2517,-0.87629 -4.34493,-0.87628 -9.01846,-2.59235 v -7.59449 q 4.49097,2.51933 8.79938,3.79725 4.30842,1.27792 8.47078,1.27792 6.31658,0 9.7487,-2.48282 3.43213,-2.48281 3.43213,-7.08332 0,-4.01632 -2.48282,-6.28007 -2.4463,-2.26374 -8.06914,-3.39561 l -4.49098,-0.87629 q -8.25171,-1.64304 -11.93942,-5.14819 -3.68771,-3.50515 -3.68771,-9.7487 0,-7.22937 5.07517,-11.39174 5.11168,-4.16236 14.05711,-4.16236 3.83376,0 7.81357,0.69373 3.9798,0.69372 8.14217,2.08118 z"
             style="letter-spacing:10px;stroke-width:0.81314206"
             id="path2219" />
          <path
             d="m 808.82577,557.83685 -20.81183,-54.51239 h 7.70403 l 17.27017,45.89556 17.30668,-45.89556 h 7.66751 l -20.77531,54.51239 z"
             style="letter-spacing:10px;stroke-width:0.81314206"
             id="path2221" />
        </g>
      </g>
    </g>
  </g>
  <flowRoot
     xml:space="preserve"
     id="flowRoot1666"
     style="font-style:normal;font-variant:normal;font-weight:normal;font-stretch:normal;font-size:40px;line-height:1.25;font-family:SofiaProRegular, 'Sofia Pro';-inkscape-font-specification:'SofiaProRegular, Sofia Pro';letter-spacing:0px;word-spacing:0px;fill:#000000;fill-opacity:1;stroke:none"
     transform="translate(-172.55599,-8.1443579)"><flowRegion
       id="flowRegion1668"
       style="font-style:normal;font-variant:normal;font-weight:normal;font-stretch:normal;font-family:SofiaProRegular, 'Sofia Pro';-inkscape-font-specification:'SofiaProRegular, Sofia Pro'"><rect
         id="rect1670"
         width="889.0343"
         height="206.2193"
         x="602.61865"
         y="679.96094"
         style="font-style:normal;font-variant:normal;font-weight:normal;font-stretch:normal;font-family:SofiaProRegular, 'Sofia Pro';-inkscape-font-specification:'SofiaProRegular, Sofia Pro'" /></flowRegion><flowPara
       id="flowPara1672"></flowPara></flowRoot>  <flowRoot
     xml:space="preserve"
     id="flowRoot1681"
     style="font-style:normal;font-variant:normal;font-weight:normal;font-stretch:normal;font-size:40px;line-height:1.25;font-family:SofiaProRegular, 'Sofia Pro';-inkscape-font-specification:'SofiaProRegular, Sofia Pro';letter-spacing:0px;word-spacing:0px;fill:#000000;fill-opacity:1;stroke:none"
     transform="translate(-172.55599,-8.1443579)"><flowRegion
       id="flowRegion1683"
       style="font-style:normal;font-variant:normal;font-weight:normal;font-stretch:normal;font-family:SofiaProRegular, 'Sofia Pro';-inkscape-font-specification:'SofiaProRegular, Sofia Pro'"><rect
         id="rect1685"
         width="774.46802"
         height="189.03436"
         x="170.70375"
         y="568.83167"
         style="font-style:normal;font-variant:normal;font-weight:normal;font-stretch:normal;font-family:SofiaProRegular, 'Sofia Pro';-inkscape-font-specification:'SofiaProRegular, Sofia Pro'" /></flowRegion><flowPara
       id="flowPara1687"></flowPara></flowRoot>  <g
     aria-label="November 2-4, 2018
Vanderbilt University"
     transform="matrix(0.82006768,0,0,0.82006768,-71.6281,108.80061)"
     style="font-style:normal;font-weight:normal;font-size:40px;line-height:1.25;font-family:sans-serif;text-align:center;letter-spacing:0px;word-spacing:0px;text-anchor:middle;fill:#000000;fill-opacity:1;stroke:none"
     id="flowRoot1689">
    <path
       d="m 188.01953,552.23926 h 9.29688 l 22.62695,42.69043 v -42.69043 h 6.69922 v 51.03027 H 217.3457 L 194.71875,560.5791 v 42.69043 h -6.69922 z"
       style="font-style:normal;font-variant:normal;font-weight:normal;font-stretch:normal;font-size:70px;font-family:SofiaProRegular, 'Sofia Pro';-inkscape-font-specification:'SofiaProRegular, Sofia Pro';text-align:center;text-anchor:middle;fill:#ffffff"
       id="path2124" />
    <path
       d="m 254.94336,569.39746 q -5.05859,0 -7.99805,3.96484 -2.93945,3.93067 -2.93945,10.80079 0,6.87011 2.90527,10.83496 2.93946,3.93066 8.03223,3.93066 5.02441,0 7.96387,-3.96484 2.93945,-3.96485 2.93945,-10.80078 0,-6.80176 -2.93945,-10.76661 -2.93946,-3.99902 -7.96387,-3.99902 z m 0,-5.33203 q 8.20312,0 12.88574,5.33203 4.68262,5.33203 4.68262,14.76563 0,9.39941 -4.68262,14.76562 -4.68262,5.33203 -12.88574,5.33203 -8.23731,0 -12.91992,-5.33203 -4.64844,-5.36621 -4.64844,-14.76562 0,-9.4336 4.64844,-14.76563 4.68261,-5.33203 12.91992,-5.33203 z"
       style="font-style:normal;font-variant:normal;font-weight:normal;font-stretch:normal;font-size:70px;font-family:SofiaProRegular, 'Sofia Pro';-inkscape-font-specification:'SofiaProRegular, Sofia Pro';text-align:center;text-anchor:middle;fill:#ffffff"
       id="path2126" />
    <path
       d="m 278.39062,564.98828 h 6.66504 l 11.96289,32.12891 11.9629,-32.12891 h 6.66503 l -14.35546,38.28125 h -8.54493 z"
       style="font-style:normal;font-variant:normal;font-weight:normal;font-stretch:normal;font-size:70px;font-family:SofiaProRegular, 'Sofia Pro';-inkscape-font-specification:'SofiaProRegular, Sofia Pro';text-align:center;text-anchor:middle;fill:#ffffff"
       id="path2128" />
    <path
       d="m 357.07227,582.55664 v 3.07617 h -28.91602 q 0.41016,6.49414 3.89648,9.91211 3.52051,3.38379 9.77539,3.38379 3.62305,0 7.00684,-0.88867 3.41797,-0.88867 6.76758,-2.66602 v 5.94727 q -3.38379,1.43555 -6.93848,2.1875 -3.55469,0.75195 -7.21191,0.75195 -9.16016,0 -14.52637,-5.33203 -5.33203,-5.33203 -5.33203,-14.42383 0,-9.39941 5.05859,-14.90234 5.09278,-5.53711 13.70606,-5.53711 7.72461,0 12.20215,4.99023 4.51172,4.95606 4.51172,13.50098 z m -6.28907,-1.8457 q -0.0684,-5.16114 -2.90527,-8.23731 -2.80273,-3.07617 -7.45117,-3.07617 -5.26367,0 -8.44239,2.97363 -3.14453,2.97364 -3.62304,8.37403 z"
       style="font-style:normal;font-variant:normal;font-weight:normal;font-stretch:normal;font-size:70px;font-family:SofiaProRegular, 'Sofia Pro';-inkscape-font-specification:'SofiaProRegular, Sofia Pro';text-align:center;text-anchor:middle;fill:#ffffff"
       id="path2130" />
    <path
       d="m 397.19922,572.33691 q 2.3584,-4.23828 5.63965,-6.25488 3.28125,-2.0166 7.72461,-2.0166 5.98144,0 9.22851,4.2041 3.24707,4.16992 3.24707,11.89453 v 23.10547 h -6.32324 v -22.90039 q 0,-5.50293 -1.94824,-8.16894 -1.94824,-2.66602 -5.94727,-2.66602 -4.88769,0 -7.72461,3.24707 -2.83691,3.24707 -2.83691,8.85254 v 21.63574 h -6.32324 v -22.90039 q 0,-5.53711 -1.94825,-8.16894 -1.94824,-2.66602 -6.01562,-2.66602 -4.81934,0 -7.65625,3.28125 -2.83691,3.24707 -2.83691,8.81836 v 21.63574 h -6.32325 v -38.28125 h 6.32325 v 5.94727 q 2.15332,-3.52051 5.16113,-5.19532 3.00781,-1.6748 7.14355,-1.6748 4.16992,0 7.0752,2.11914 2.93945,2.11914 4.34082,6.15234 z"
       style="font-style:normal;font-variant:normal;font-weight:normal;font-stretch:normal;font-size:70px;font-family:SofiaProRegular, 'Sofia Pro';-inkscape-font-specification:'SofiaProRegular, Sofia Pro';text-align:center;text-anchor:middle;fill:#ffffff"
       id="path2132" />
    <path
       d="m 463.09766,584.16309 q 0,-6.93848 -2.8711,-10.86914 -2.83691,-3.96485 -7.82715,-3.96485 -4.99023,0 -7.86132,3.96485 -2.83692,3.93066 -2.83692,10.86914 0,6.93847 2.83692,10.90332 2.87109,3.93066 7.86132,3.93066 4.99024,0 7.82715,-3.93066 2.8711,-3.96485 2.8711,-10.90332 z m -21.39649,-13.36426 q 1.98242,-3.41797 4.99024,-5.0586 3.04199,-1.6748 7.24609,-1.6748 6.97266,0 11.31348,5.53711 4.375,5.53711 4.375,14.56055 0,9.02343 -4.375,14.56054 -4.34082,5.53711 -11.31348,5.53711 -4.2041,0 -7.24609,-1.64062 -3.00782,-1.67481 -4.99024,-5.09278 v 5.74219 h -6.32324 v -53.18359 h 6.32324 z"
       style="font-style:normal;font-variant:normal;font-weight:normal;font-stretch:normal;font-size:70px;font-family:SofiaProRegular, 'Sofia Pro';-inkscape-font-specification:'SofiaProRegular, Sofia Pro';text-align:center;text-anchor:middle;fill:#ffffff"
       id="path2134" />
    <path
       d="m 512.79492,582.55664 v 3.07617 h -28.91601 q 0.41015,6.49414 3.89648,9.91211 3.52051,3.38379 9.77539,3.38379 3.62305,0 7.00684,-0.88867 3.41797,-0.88867 6.76758,-2.66602 v 5.94727 q -3.38379,1.43555 -6.93848,2.1875 -3.55469,0.75195 -7.21192,0.75195 -9.16015,0 -14.52636,-5.33203 -5.33203,-5.33203 -5.33203,-14.42383 0,-9.39941 5.05859,-14.90234 5.09277,-5.53711 13.70605,-5.53711 7.72461,0 12.20215,4.99023 4.51172,4.95606 4.51172,13.50098 z m -6.28906,-1.8457 q -0.0684,-5.16114 -2.90527,-8.23731 -2.80274,-3.07617 -7.45118,-3.07617 -5.26367,0 -8.44238,2.97363 -3.14453,2.97364 -3.62305,8.37403 z"
       style="font-style:normal;font-variant:normal;font-weight:normal;font-stretch:normal;font-size:70px;font-family:SofiaProRegular, 'Sofia Pro';-inkscape-font-specification:'SofiaProRegular, Sofia Pro';text-align:center;text-anchor:middle;fill:#ffffff"
       id="path2136" />
    <path
       d="m 545.2998,570.86719 q -1.05957,-0.61524 -2.32421,-0.88867 -1.23047,-0.30762 -2.73438,-0.30762 -5.33203,0 -8.20312,3.48633 -2.83692,3.45214 -2.83692,9.94629 v 20.16601 h -6.32324 v -38.28125 h 6.32324 v 5.94727 q 1.98242,-3.48633 5.16113,-5.16114 3.17872,-1.70898 7.72461,-1.70898 0.64942,0 1.43555,0.10254 0.78613,0.0684 1.74316,0.23926 z"
       style="font-style:normal;font-variant:normal;font-weight:normal;font-stretch:normal;font-size:70px;font-family:SofiaProRegular, 'Sofia Pro';-inkscape-font-specification:'SofiaProRegular, Sofia Pro';text-align:center;text-anchor:middle;fill:#ffffff"
       id="path2138" />
    <path
       d="m 581.08594,597.45898 h 24.09668 v 5.81055 h -32.40235 v -5.81055 q 3.93067,-4.06738 10.69825,-10.90332 6.80175,-6.87011 8.54492,-8.85254 3.31543,-3.72558 4.61426,-6.28906 1.333,-2.59765 1.333,-5.09277 0,-4.06738 -2.87109,-6.63086 -2.83691,-2.56348 -7.41699,-2.56348 -3.24707,0 -6.87012,1.12793 -3.58887,1.12793 -7.69043,3.41797 v -6.97265 q 4.16992,-1.67481 7.79297,-2.5293 3.62305,-0.85449 6.63086,-0.85449 7.92969,0 12.64648,3.96484 4.7168,3.96484 4.7168,10.5957 0,3.14453 -1.19629,5.98145 -1.16211,2.80273 -4.27246,6.63086 -0.85449,0.99121 -5.43457,5.74219 -4.58008,4.71679 -12.91992,13.22753 z"
       style="font-style:normal;font-variant:normal;font-weight:normal;font-stretch:normal;font-size:70px;font-family:SofiaProRegular, 'Sofia Pro';-inkscape-font-specification:'SofiaProRegular, Sofia Pro';text-align:center;text-anchor:middle;fill:#ffffff"
       id="path2140" />
    <path
       d="m 615.6416,581.29199 h 18.42285 v 5.60547 H 615.6416 Z"
       style="font-style:normal;font-variant:normal;font-weight:normal;font-stretch:normal;font-size:70px;font-family:SofiaProRegular, 'Sofia Pro';-inkscape-font-specification:'SofiaProRegular, Sofia Pro';text-align:center;text-anchor:middle;fill:#ffffff"
       id="path2142" />
    <path
       d="m 663.97168,558.25488 -17.43164,27.24121 h 17.43164 z m -1.81152,-6.01562 h 8.68164 v 33.25683 h 7.28027 v 5.74219 h -7.28027 v 12.03125 h -6.87012 v -12.03125 h -23.03711 v -6.66504 z"
       style="font-style:normal;font-variant:normal;font-weight:normal;font-stretch:normal;font-size:70px;font-family:SofiaProRegular, 'Sofia Pro';-inkscape-font-specification:'SofiaProRegular, Sofia Pro';text-align:center;text-anchor:middle;fill:#ffffff"
       id="path2144" />
    <path
       d="m 690.29004,594.58789 h 7.21191 v 5.87891 l -5.60547,10.9375 h -4.40918 l 2.80274,-10.9375 z"
       style="font-style:normal;font-variant:normal;font-weight:normal;font-stretch:normal;font-size:70px;font-family:SofiaProRegular, 'Sofia Pro';-inkscape-font-specification:'SofiaProRegular, Sofia Pro';text-align:center;text-anchor:middle;fill:#ffffff"
       id="path2146" />
    <path
       d="m 740.08984,597.45898 h 24.09668 v 5.81055 h -32.40234 v -5.81055 q 3.93066,-4.06738 10.69824,-10.90332 6.80176,-6.87011 8.54492,-8.85254 3.31543,-3.72558 4.61426,-6.28906 1.33301,-2.59765 1.33301,-5.09277 0,-4.06738 -2.87109,-6.63086 -2.83692,-2.56348 -7.417,-2.56348 -3.24707,0 -6.87011,1.12793 -3.58887,1.12793 -7.69043,3.41797 v -6.97265 q 4.16992,-1.67481 7.79297,-2.5293 3.62304,-0.85449 6.63085,-0.85449 7.92969,0 12.64649,3.96484 4.7168,3.96484 4.7168,10.5957 0,3.14453 -1.19629,5.98145 -1.16211,2.80273 -4.27246,6.63086 -0.8545,0.99121 -5.43457,5.74219 -4.58008,4.71679 -12.91993,13.22753 z"
       style="font-style:normal;font-variant:normal;font-weight:normal;font-stretch:normal;font-size:70px;font-family:SofiaProRegular, 'Sofia Pro';-inkscape-font-specification:'SofiaProRegular, Sofia Pro';text-align:center;text-anchor:middle;fill:#ffffff"
       id="path2148" />
    <path
       d="m 793.47852,556.78516 q -5.33204,0 -8.03223,5.26367 -2.66602,5.22949 -2.66602,15.75683 0,10.49317 2.66602,15.75684 2.70019,5.22949 8.03223,5.22949 5.36621,0 8.03222,-5.22949 2.7002,-5.26367 2.7002,-15.75684 0,-10.52734 -2.7002,-15.75683 -2.66601,-5.26367 -8.03222,-5.26367 z m 0,-5.46875 q 8.5791,0 13.09082,6.80175 4.54589,6.76758 4.54589,19.6875 0,12.88575 -4.54589,19.6875 -4.51172,6.76758 -13.09082,6.76758 -8.57911,0 -13.125,-6.76758 -4.51172,-6.80175 -4.51172,-19.6875 0,-12.91992 4.51172,-19.6875 4.54589,-6.80175 13.125,-6.80175 z"
       style="font-style:normal;font-variant:normal;font-weight:normal;font-stretch:normal;font-size:70px;font-family:SofiaProRegular, 'Sofia Pro';-inkscape-font-specification:'SofiaProRegular, Sofia Pro';text-align:center;text-anchor:middle;fill:#ffffff"
       id="path2150" />
    <path
       d="m 824.47949,597.45898 h 11.2793 v -38.93066 l -12.27051,2.46094 v -6.28906 l 12.20215,-2.46094 h 6.9043 v 45.21972 h 11.27929 v 5.81055 h -29.39453 z"
       style="font-style:normal;font-variant:normal;font-weight:normal;font-stretch:normal;font-size:70px;font-family:SofiaProRegular, 'Sofia Pro';-inkscape-font-specification:'SofiaProRegular, Sofia Pro';text-align:center;text-anchor:middle;fill:#ffffff"
       id="path2152" />
    <path
       d="m 882.61914,579.03613 q -4.92187,0 -7.75879,2.63184 -2.80273,2.63183 -2.80273,7.24609 0,4.61426 2.80273,7.2461 2.83692,2.63183 7.75879,2.63183 4.92188,0 7.75879,-2.63183 2.83691,-2.66602 2.83691,-7.2461 0,-4.61426 -2.83691,-7.24609 -2.80273,-2.63184 -7.75879,-2.63184 z m -6.9043,-2.93945 q -4.44336,-1.09375 -6.93847,-4.13574 -2.46094,-3.04199 -2.46094,-7.41699 0,-6.11817 4.34082,-9.67286 4.375,-3.55468 11.96289,-3.55468 7.62207,0 11.96289,3.55468 4.34082,3.55469 4.34082,9.67286 0,4.375 -2.49512,7.41699 -2.46093,3.04199 -6.87011,4.13574 4.99023,1.16211 7.75879,4.5459 2.80273,3.38379 2.80273,8.27148 0,7.41699 -4.5459,11.38184 -4.51172,3.96484 -12.9541,3.96484 -8.44238,0 -12.98828,-3.96484 -4.51172,-3.96485 -4.51172,-11.38184 0,-4.88769 2.80273,-8.27148 2.80274,-3.38379 7.79297,-4.5459 z m -2.52929,-10.90332 q 0,3.96484 2.46093,6.18652 2.49512,2.22168 6.97266,2.22168 4.44336,0 6.93848,-2.22168 2.52929,-2.22168 2.52929,-6.18652 0,-3.96484 -2.52929,-6.18652 -2.49512,-2.22168 -6.93848,-2.22168 -4.47754,0 -6.97266,2.22168 -2.46093,2.22168 -2.46093,6.18652 z"
       style="font-style:normal;font-variant:normal;font-weight:normal;font-stretch:normal;font-size:70px;font-family:SofiaProRegular, 'Sofia Pro';-inkscape-font-specification:'SofiaProRegular, Sofia Pro';text-align:center;text-anchor:middle;fill:#ffffff"
       id="path2154" />
    <path
       d="m 196.87207,690.76953 -19.48242,-51.03027 h 7.21191 l 16.16699,42.96386 16.20118,-42.96386 h 7.17773 l -19.44824,51.03027 z"
       style="font-style:normal;font-variant:normal;font-weight:normal;font-stretch:normal;font-size:70px;font-family:SofiaProRegular, 'Sofia Pro';-inkscape-font-specification:'SofiaProRegular, Sofia Pro';text-align:center;text-anchor:middle;fill:#ffffff"
       id="path2156" />
    <path
       d="m 243.21973,671.52637 q -7.62207,0 -10.56153,1.74316 -2.93945,1.74317 -2.93945,5.94727 0,3.34961 2.1875,5.33203 2.22168,1.94824 6.01562,1.94824 5.2295,0 8.37403,-3.69141 3.17871,-3.72558 3.17871,-9.87793 v -1.40136 z m 12.54394,-2.59766 v 21.84082 h -6.28906 v -5.81055 q -2.15332,3.48633 -5.36621,5.16114 -3.21289,1.64062 -7.86133,1.64062 -5.87891,0 -9.36523,-3.28125 -3.45215,-3.31543 -3.45215,-8.85254 0,-6.45996 4.30664,-9.74121 4.34082,-3.28125 12.91992,-3.28125 h 8.81836 v -0.61523 q 0,-4.34082 -2.87109,-6.69922 -2.83692,-2.39258 -7.99805,-2.39258 -3.28125,0 -6.3916,0.78613 -3.11035,0.78614 -5.98145,2.3584 v -5.81054 q 3.45215,-1.33301 6.69922,-1.98243 3.24707,-0.68359 6.32324,-0.68359 8.30567,0 12.40723,4.30664 4.10156,4.30664 4.10156,13.05664 z"
       style="font-style:normal;font-variant:normal;font-weight:normal;font-stretch:normal;font-size:70px;font-family:SofiaProRegular, 'Sofia Pro';-inkscape-font-specification:'SofiaProRegular, Sofia Pro';text-align:center;text-anchor:middle;fill:#ffffff"
       id="path2158" />
    <path
       d="m 300.57324,667.66406 v 23.10547 h -6.28906 v -22.90039 q 0,-5.43457 -2.11914,-8.13477 -2.11914,-2.70019 -6.35742,-2.70019 -5.09278,0 -8.03223,3.24707 -2.93945,3.24707 -2.93945,8.85254 v 21.63574 h -6.32324 v -38.28125 h 6.32324 v 5.94727 q 2.25586,-3.45215 5.29785,-5.16114 3.07617,-1.70898 7.07519,-1.70898 6.59668,0 9.98047,4.10156 3.38379,4.06738 3.38379,11.99707 z"
       style="font-style:normal;font-variant:normal;font-weight:normal;font-stretch:normal;font-size:70px;font-family:SofiaProRegular, 'Sofia Pro';-inkscape-font-specification:'SofiaProRegular, Sofia Pro';text-align:center;text-anchor:middle;fill:#ffffff"
       id="path2160" />
    <path
       d="m 338.37598,658.29883 v -20.71289 h 6.28906 v 53.18359 h -6.28906 v -5.74219 q -1.98243,3.41797 -5.02442,5.09278 -3.00781,1.64062 -7.24609,1.64062 -6.93848,0 -11.31348,-5.53711 -4.34082,-5.53711 -4.34082,-14.56054 0,-9.02344 4.34082,-14.56055 4.375,-5.53711 11.31348,-5.53711 4.23828,0 7.24609,1.6748 3.04199,1.64063 5.02442,5.0586 z m -21.43067,13.36426 q 0,6.93847 2.83692,10.90332 2.87109,3.93066 7.86132,3.93066 4.99024,0 7.86133,-3.93066 2.8711,-3.96485 2.8711,-10.90332 0,-6.93848 -2.8711,-10.86914 -2.87109,-3.96485 -7.86133,-3.96485 -4.99023,0 -7.86132,3.96485 -2.83692,3.93066 -2.83692,10.86914 z"
       style="font-style:normal;font-variant:normal;font-weight:normal;font-stretch:normal;font-size:70px;font-family:SofiaProRegular, 'Sofia Pro';-inkscape-font-specification:'SofiaProRegular, Sofia Pro';text-align:center;text-anchor:middle;fill:#ffffff"
       id="path2162" />
    <path
       d="m 390.36328,670.05664 v 3.07617 h -28.91601 q 0.41015,6.49414 3.89648,9.91211 3.52051,3.38379 9.77539,3.38379 3.62305,0 7.00684,-0.88867 3.41797,-0.88867 6.76757,-2.66602 v 5.94727 q -3.38378,1.43555 -6.93847,2.1875 -3.55469,0.75195 -7.21192,0.75195 -9.16015,0 -14.52636,-5.33203 -5.33203,-5.33203 -5.33203,-14.42383 0,-9.39941 5.05859,-14.90234 5.09277,-5.53711 13.70605,-5.53711 7.72461,0 12.20215,4.99023 4.51172,4.95606 4.51172,13.50098 z m -6.28906,-1.8457 q -0.0684,-5.16114 -2.90527,-8.23731 -2.80274,-3.07617 -7.45118,-3.07617 -5.26367,0 -8.44238,2.97363 -3.14453,2.97364 -3.62305,8.37403 z"
       style="font-style:normal;font-variant:normal;font-weight:normal;font-stretch:normal;font-size:70px;font-family:SofiaProRegular, 'Sofia Pro';-inkscape-font-specification:'SofiaProRegular, Sofia Pro';text-align:center;text-anchor:middle;fill:#ffffff"
       id="path2164" />
    <path
       d="m 422.86816,658.36719 q -1.05957,-0.61524 -2.32421,-0.88867 -1.23047,-0.30762 -2.73438,-0.30762 -5.33203,0 -8.20312,3.48633 -2.83692,3.45214 -2.83692,9.94629 v 20.16601 h -6.32324 v -38.28125 h 6.32324 v 5.94727 q 1.98242,-3.48633 5.16113,-5.16114 3.17871,-1.70898 7.72461,-1.70898 0.64942,0 1.43555,0.10254 0.78613,0.0684 1.74316,0.23926 z"
       style="font-style:normal;font-variant:normal;font-weight:normal;font-stretch:normal;font-size:70px;font-family:SofiaProRegular, 'Sofia Pro';-inkscape-font-specification:'SofiaProRegular, Sofia Pro';text-align:center;text-anchor:middle;fill:#ffffff"
       id="path2166" />
    <path
       d="m 457.01367,671.66309 q 0,-6.93848 -2.87109,-10.86914 -2.83692,-3.96485 -7.82715,-3.96485 -4.99023,0 -7.86133,3.96485 -2.83691,3.93066 -2.83691,10.86914 0,6.93847 2.83691,10.90332 2.8711,3.93066 7.86133,3.93066 4.99023,0 7.82715,-3.93066 2.87109,-3.96485 2.87109,-10.90332 z m -21.39648,-13.36426 q 1.98242,-3.41797 4.99023,-5.0586 3.04199,-1.6748 7.2461,-1.6748 6.97265,0 11.31347,5.53711 4.375,5.53711 4.375,14.56055 0,9.02343 -4.375,14.56054 -4.34082,5.53711 -11.31347,5.53711 -4.20411,0 -7.2461,-1.64062 -3.00781,-1.67481 -4.99023,-5.09278 v 5.74219 h -6.32324 v -53.18359 h 6.32324 z"
       style="font-style:normal;font-variant:normal;font-weight:normal;font-stretch:normal;font-size:70px;font-family:SofiaProRegular, 'Sofia Pro';-inkscape-font-specification:'SofiaProRegular, Sofia Pro';text-align:center;text-anchor:middle;fill:#ffffff"
       id="path2168" />
    <path
       d="m 473.9668,652.48828 h 6.28906 v 38.28125 h -6.28906 z m 0,-14.90234 h 6.28906 v 7.96386 h -6.28906 z"
       style="font-style:normal;font-variant:normal;font-weight:normal;font-stretch:normal;font-size:70px;font-family:SofiaProRegular, 'Sofia Pro';-inkscape-font-specification:'SofiaProRegular, Sofia Pro';text-align:center;text-anchor:middle;fill:#ffffff"
       id="path2170" />
    <path
       d="m 493.38086,637.58594 h 6.28906 v 53.18359 h -6.28906 z"
       style="font-style:normal;font-variant:normal;font-weight:normal;font-stretch:normal;font-size:70px;font-family:SofiaProRegular, 'Sofia Pro';-inkscape-font-specification:'SofiaProRegular, Sofia Pro';text-align:center;text-anchor:middle;fill:#ffffff"
       id="path2172" />
    <path
       d="m 519.01562,641.61914 v 10.86914 h 12.95411 v 4.8877 h -12.95411 v 20.78125 q 0,4.68261 1.26465,6.01562 1.29883,1.33301 5.2295,1.33301 h 6.45996 v 5.26367 h -6.45996 q -7.28028,0 -10.04883,-2.70019 -2.76856,-2.73438 -2.76856,-9.91211 v -20.78125 h -4.61426 v -4.8877 h 4.61426 v -10.86914 z"
       style="font-style:normal;font-variant:normal;font-weight:normal;font-stretch:normal;font-size:70px;font-family:SofiaProRegular, 'Sofia Pro';-inkscape-font-specification:'SofiaProRegular, Sofia Pro';text-align:center;text-anchor:middle;fill:#ffffff"
       id="path2174" />
    <path
       d="m 562.04785,639.73926 h 6.93848 v 31.00097 q 0,8.20313 2.97363,11.82618 2.97363,3.58886 9.63867,3.58886 6.63086,0 9.60449,-3.58886 2.97364,-3.62305 2.97364,-11.82618 v -31.00097 h 6.93847 v 31.85547 q 0,9.98047 -4.95605,15.07324 -4.92188,5.09277 -14.56055,5.09277 -9.67285,0 -14.6289,-5.09277 -4.92188,-5.09277 -4.92188,-15.07324 z"
       style="font-style:normal;font-variant:normal;font-weight:normal;font-stretch:normal;font-size:70px;font-family:SofiaProRegular, 'Sofia Pro';-inkscape-font-specification:'SofiaProRegular, Sofia Pro';text-align:center;text-anchor:middle;fill:#ffffff"
       id="path2176" />
    <path
       d="m 645.65137,667.66406 v 23.10547 h -6.28907 v -22.90039 q 0,-5.43457 -2.11914,-8.13477 -2.11914,-2.70019 -6.35742,-2.70019 -5.09277,0 -8.03222,3.24707 -2.93946,3.24707 -2.93946,8.85254 v 21.63574 h -6.32324 v -38.28125 h 6.32324 v 5.94727 q 2.25586,-3.45215 5.29785,-5.16114 3.07618,-1.70898 7.0752,-1.70898 6.59668,0 9.98047,4.10156 3.38379,4.06738 3.38379,11.99707 z"
       style="font-style:normal;font-variant:normal;font-weight:normal;font-stretch:normal;font-size:70px;font-family:SofiaProRegular, 'Sofia Pro';-inkscape-font-specification:'SofiaProRegular, Sofia Pro';text-align:center;text-anchor:middle;fill:#ffffff"
       id="path2178" />
    <path
       d="m 658.26367,652.48828 h 6.28906 v 38.28125 h -6.28906 z m 0,-14.90234 h 6.28906 v 7.96386 h -6.28906 z"
       style="font-style:normal;font-variant:normal;font-weight:normal;font-stretch:normal;font-size:70px;font-family:SofiaProRegular, 'Sofia Pro';-inkscape-font-specification:'SofiaProRegular, Sofia Pro';text-align:center;text-anchor:middle;fill:#ffffff"
       id="path2180" />
    <path
       d="m 673.16602,652.48828 h 6.66503 l 11.9629,32.12891 11.96289,-32.12891 h 6.66503 l -14.35546,38.28125 h -8.54493 z"
       style="font-style:normal;font-variant:normal;font-weight:normal;font-stretch:normal;font-size:70px;font-family:SofiaProRegular, 'Sofia Pro';-inkscape-font-specification:'SofiaProRegular, Sofia Pro';text-align:center;text-anchor:middle;fill:#ffffff"
       id="path2182" />
    <path
       d="m 751.84766,670.05664 v 3.07617 h -28.91602 q 0.41016,6.49414 3.89648,9.91211 3.52051,3.38379 9.7754,3.38379 3.62304,0 7.00683,-0.88867 3.41797,-0.88867 6.76758,-2.66602 v 5.94727 q -3.38379,1.43555 -6.93848,2.1875 -3.55468,0.75195 -7.21191,0.75195 -9.16016,0 -14.52637,-5.33203 -5.33203,-5.33203 -5.33203,-14.42383 0,-9.39941 5.05859,-14.90234 5.09278,-5.53711 13.70606,-5.53711 7.72461,0 12.20215,4.99023 4.51172,4.95606 4.51172,13.50098 z m -6.28907,-1.8457 q -0.0684,-5.16114 -2.90527,-8.23731 -2.80273,-3.07617 -7.45117,-3.07617 -5.26367,0 -8.44238,2.97363 -3.14454,2.97364 -3.62305,8.37403 z"
       style="font-style:normal;font-variant:normal;font-weight:normal;font-stretch:normal;font-size:70px;font-family:SofiaProRegular, 'Sofia Pro';-inkscape-font-specification:'SofiaProRegular, Sofia Pro';text-align:center;text-anchor:middle;fill:#ffffff"
       id="path2184" />
    <path
       d="m 784.35254,658.36719 q -1.05957,-0.61524 -2.32422,-0.88867 -1.23047,-0.30762 -2.73437,-0.30762 -5.33204,0 -8.20313,3.48633 -2.83691,3.45214 -2.83691,9.94629 v 20.16601 h -6.32325 v -38.28125 h 6.32325 v 5.94727 q 1.98242,-3.48633 5.16113,-5.16114 3.17871,-1.70898 7.72461,-1.70898 0.64941,0 1.43555,0.10254 0.78613,0.0684 1.74316,0.23926 z"
       style="font-style:normal;font-variant:normal;font-weight:normal;font-stretch:normal;font-size:70px;font-family:SofiaProRegular, 'Sofia Pro';-inkscape-font-specification:'SofiaProRegular, Sofia Pro';text-align:center;text-anchor:middle;fill:#ffffff"
       id="path2186" />
    <path
       d="m 815.42187,653.61621 v 5.94727 q -2.66601,-1.36719 -5.5371,-2.05078 -2.8711,-0.6836 -5.94727,-0.6836 -4.68262,0 -7.04102,1.43555 -2.32421,1.43555 -2.32421,4.30664 0,2.1875 1.6748,3.45215 1.6748,1.23047 6.7334,2.3584 l 2.15332,0.47851 q 6.69922,1.43555 9.50195,4.06738 2.83692,2.59766 2.83692,7.28028 0,5.33203 -4.23829,8.44238 -4.2041,3.11035 -11.58691,3.11035 -3.07617,0 -6.42578,-0.61523 -3.31543,-0.58106 -7.00684,-1.77735 v -6.49414 q 3.48633,1.81153 6.87012,2.73438 3.38379,0.88867 6.69922,0.88867 4.44336,0 6.83594,-1.50391 2.39258,-1.53808 2.39258,-4.30664 0,-2.56347 -1.74317,-3.93066 -1.70898,-1.36719 -7.55371,-2.63184 l -2.1875,-0.51269 q -5.84473,-1.23047 -8.44238,-3.75977 -2.59766,-2.56347 -2.59766,-7.00683 0,-5.40039 3.82813,-8.33985 3.82812,-2.93945 10.86914,-2.93945 3.48632,0 6.5625,0.51269 3.07617,0.5127 5.67382,1.53809 z"
       style="font-style:normal;font-variant:normal;font-weight:normal;font-stretch:normal;font-size:70px;font-family:SofiaProRegular, 'Sofia Pro';-inkscape-font-specification:'SofiaProRegular, Sofia Pro';text-align:center;text-anchor:middle;fill:#ffffff"
       id="path2188" />
    <path
       d="m 827.52148,652.48828 h 6.28907 v 38.28125 h -6.28907 z m 0,-14.90234 h 6.28907 v 7.96386 h -6.28907 z"
       style="font-style:normal;font-variant:normal;font-weight:normal;font-stretch:normal;font-size:70px;font-family:SofiaProRegular, 'Sofia Pro';-inkscape-font-specification:'SofiaProRegular, Sofia Pro';text-align:center;text-anchor:middle;fill:#ffffff"
       id="path2190" />
    <path
       d="m 853.15625,641.61914 v 10.86914 h 12.9541 v 4.8877 h -12.9541 v 20.78125 q 0,4.68261 1.26465,6.01562 1.29883,1.33301 5.22949,1.33301 h 6.45996 v 5.26367 h -6.45996 q -7.28027,0 -10.04883,-2.70019 -2.76855,-2.73438 -2.76855,-9.91211 v -20.78125 h -4.61426 v -4.8877 h 4.61426 v -10.86914 z"
       style="font-style:normal;font-variant:normal;font-weight:normal;font-stretch:normal;font-size:70px;font-family:SofiaProRegular, 'Sofia Pro';-inkscape-font-specification:'SofiaProRegular, Sofia Pro';text-align:center;text-anchor:middle;fill:#ffffff"
       id="path2192" />
    <path
       d="m 890.34375,694.32422 q -2.66602,6.83594 -5.19531,8.9209 -2.5293,2.08496 -6.76758,2.08496 h -5.02441 v -5.26367 h 3.6914 q 2.59766,0 4.0332,-1.23047 1.43555,-1.23047 3.17872,-5.81055 l 1.12793,-2.87109 -15.4834,-37.66602 h 6.66504 l 11.96289,29.94141 11.96289,-29.94141 h 6.66504 z"
       style="font-style:normal;font-variant:normal;font-weight:normal;font-stretch:normal;font-size:70px;font-family:SofiaProRegular, 'Sofia Pro';-inkscape-font-specification:'SofiaProRegular, Sofia Pro';text-align:center;text-anchor:middle;fill:#ffffff"
       id="path2194" />
  </g>
  <g
     transform="matrix(1.2099769,0,0,1.2099769,-721.89458,-365.595)"
     id="g27">
    <path
       inkscape:connector-curvature="0"
       class="cls-2"
       d="M 753.57,306.74 869.67,620 c 0.92,2.49 -0.48,4.52 -3.14,4.52 H 847.77 A 7.43,7.43 0 0 1 841.28,620 L 725.18,306.74 c -0.92,-2.49 0.48,-4.52 3.14,-4.52 h 18.75 a 7.43,7.43 0 0 1 6.5,4.52 z"
       id="path11"
       style="font-size:70px;font-family:SofiaProRegular, 'Sofia Pro';fill:#ffffff" />
    <path
       inkscape:connector-curvature="0"
       class="cls-2"
       d="M 801.29,306.74 894,556.1 c 0.93,2.49 -0.48,4.52 -3.14,4.52 h -18.72 a 7.44,7.44 0 0 1 -6.5,-4.52 L 772.9,306.74 c -0.93,-2.49 0.48,-4.52 3.14,-4.52 h 18.75 a 7.44,7.44 0 0 1 6.5,4.52 z"
       id="path13"
       style="font-size:70px;font-family:SofiaProRegular, 'Sofia Pro';fill:#ffffff" />
    <path
       inkscape:connector-curvature="0"
       class="cls-2"
       d="M 871.77,620.34 988,306.73 c 0.92,-2.49 -0.48,-4.52 -3.14,-4.52 H 966.1 a 7.43,7.43 0 0 0 -6.49,4.52 L 843.38,620.34 c -0.92,2.49 0.48,4.52 3.14,4.52 h 18.75 a 7.43,7.43 0 0 0 6.5,-4.52 z"
       id="path15"
       style="font-size:70px;font-family:SofiaProRegular, 'Sofia Pro';fill:#ffffff" />
    <path
       inkscape:connector-curvature="0"
       class="cls-2"
       d="m 968.49,620.34 116.23,-313.61 c 0.92,-2.49 -0.48,-4.52 -3.14,-4.52 h -18.75 a 7.43,7.43 0 0 0 -6.49,4.52 L 940.1,620.34 c -0.92,2.49 0.48,4.52 3.14,4.52 H 962 a 7.43,7.43 0 0 0 6.49,-4.52 z"
       id="path17"
       style="font-size:70px;font-family:SofiaProRegular, 'Sofia Pro';fill:#ffffff" />
    <g
       class="cls-3"
       clip-path="url(#clip-path-5)"
       id="g25"
       style="letter-spacing:-0.01em">
      <g
         id="g23">
        <path
           inkscape:connector-curvature="0"
           class="cls-2"
           d="m 919.77,620.35 49,-132.13 c 0.92,-2.49 -0.48,-4.52 -3.14,-4.52 h -18.79 a 7.43,7.43 0 0 0 -6.49,4.52 l -49,132.13 c -0.92,2.49 0.48,4.52 3.14,4.52 h 18.75 a 7.43,7.43 0 0 0 6.53,-4.52 z"
           id="path19"
           style="font-size:70px;font-family:SofiaProRegular, 'Sofia Pro';fill:#ffffff" />
        <path
           inkscape:connector-curvature="0"
           class="cls-2"
           d="m 979.39,459.08 56.5,-152.46 c 0.92,-2.49 -0.48,-4.52 -3.14,-4.52 H 1014 a 7.43,7.43 0 0 0 -6.49,4.52 L 951,459.08 c -0.92,2.49 0.48,4.52 3.14,4.52 h 18.76 a 7.43,7.43 0 0 0 6.49,-4.52 z"
           id="path21"
           style="font-size:70px;font-family:SofiaProRegular, 'Sofia Pro';fill:#ffffff" />
      </g>
    </g>
  </g>
</svg>
