<?xml version="1.0" encoding="UTF-8"?>
<svg width="748.63" height="687.28" data-name="Layer 1" version="1.1" viewBox="0 0 748.63 687.28" xmlns="http://www.w3.org/2000/svg" xmlns:cc="http://creativecommons.org/ns#" xmlns:dc="http://purl.org/dc/elements/1.1/" xmlns:rdf="http://www.w3.org/1999/02/22-rdf-syntax-ns#">
 <metadata>
  <rdf:RDF>
   <cc:Work rdf:about="">
    <dc:format>image/svg+xml</dc:format>
    <dc:type rdf:resource="http://purl.org/dc/dcmitype/StillImage"/>
    <dc:title>VH Logo and Date</dc:title>
   </cc:Work>
  </rdf:RDF>
 </metadata>
 <title>VH Logo and Date</title>
 <g fill="#ed725a">
  <g aria-label="VANDYHACKS V">
   <path d="m5.8027 463.11h-5.8027l17.664 58.795h5.888l17.579-58.795h-5.8027l-14.763 49.579z"/>
   <path d="m62.779 521.9 5.888-15.445h27.221l5.9733 15.445h6.0587l-22.613-58.795h-5.9733l-22.613 58.795zm31.147-20.736h-23.211l11.605-30.208z"/>
   <path d="m173.52 521.9v-58.795h-5.632v48.896l-29.696-48.896h-6.0587v58.795h5.632v-49.237l29.952 49.237z"/>
   <path d="m226.73 521.9c16.64 0 26.027-12.629 26.027-29.269 0-16.725-9.3867-29.525-26.027-29.525h-22.101v58.795zm-16.469-53.163h16.469c13.568 0 20.395 10.325 20.395 23.893s-6.8267 23.637-20.395 23.637h-16.469z"/>
   <path d="m297.7 494.59 22.357-31.488h-6.8267l-18.432 25.344-18.261-25.344h-6.7413l22.101 31.488v27.307h5.8027z"/>
   <path d="m387.15 463.11h-5.632v26.965h-32.256v-26.965h-5.632v58.795h5.632v-26.539h32.256v26.539h5.632z"/>
   <path d="m417.45 521.9 5.888-15.445h27.221l5.9733 15.445h6.0587l-22.613-58.795h-5.9733l-22.613 58.795zm31.147-20.736h-23.211l11.605-30.208z"/>
   <path d="m527.11 509.95c-4.352 4.4373-10.325 7.168-17.067 7.168-13.568 0-22.869-10.923-22.869-24.491s9.3013-24.576 22.869-24.576c6.7413 0 12.629 2.7307 16.981 7.0827l3.9253-3.9253c-5.2907-5.4613-12.629-8.7893-20.907-8.7893-16.64 0-28.501 13.483-28.501 30.208 0 16.64 11.861 30.123 28.501 30.123 8.2773 0 15.701-3.328 20.992-8.7893z"/>
   <path d="m567.74 492.55 22.869-29.44h-6.656l-22.187 28.587v-28.587h-5.632v58.795h5.632v-27.648l26.197 27.648h7.5947z"/>
   <path d="m618.59 505.01h-5.632c0 8.6187 7.424 17.749 19.029 17.749 12.117 0 18.603-7.424 19.968-14.251 1.7067-11.264-6.0587-16.811-15.445-18.944l-8.0213-1.792c-8.2773-1.8773-9.3867-6.2293-9.3867-9.3013 0-6.2293 6.3147-10.411 12.8-10.411 7.2533 0 12.8 4.352 12.8 11.179h5.632c0-10.24-8.0213-16.811-18.432-16.811-9.3867 0-18.432 6.4853-18.432 16.043 0 4.9493 1.6213 12.032 13.824 14.763l7.936 1.792c6.656 1.536 12.288 5.2053 11.179 12.459-0.93867 4.608-5.5467 9.6427-14.421 9.6427-8.192 0-13.397-6.2293-13.397-12.117z"/>
   <path d="m713.3 463.11h-5.8027l17.664 58.795h5.888l17.579-58.795h-5.8027l-14.763 49.579z"/>
  </g>
  <g id="VH" transform="matrix(1.21 0 0 1.21 -720.67 -365.54)">
   <title>VandyHacks Logo</title>
   <g fill="#ed725a">
    <path class="cls-2" d="m753.57 306.74 116.1 313.26c0.92 2.49-0.48 4.52-3.14 4.52h-18.76a7.43 7.43 0 0 1-6.49-4.52l-116.1-313.26c-0.92-2.49 0.48-4.52 3.14-4.52h18.75a7.43 7.43 0 0 1 6.5 4.52z"/>
    <path class="cls-2" d="m801.29 306.74 92.71 249.36c0.93 2.49-0.48 4.52-3.14 4.52h-18.72a7.44 7.44 0 0 1-6.5-4.52l-92.74-249.36c-0.93-2.49 0.48-4.52 3.14-4.52h18.75a7.44 7.44 0 0 1 6.5 4.52z"/>
    <path class="cls-2" d="m871.77 620.34 116.23-313.61c0.92-2.49-0.48-4.52-3.14-4.52h-18.76a7.43 7.43 0 0 0-6.49 4.52l-116.23 313.61c-0.92 2.49 0.48 4.52 3.14 4.52h18.75a7.43 7.43 0 0 0 6.5-4.52z"/>
    <path class="cls-2" d="m968.49 620.34 116.23-313.61c0.92-2.49-0.48-4.52-3.14-4.52h-18.75a7.43 7.43 0 0 0-6.49 4.52l-116.24 313.61c-0.92 2.49 0.48 4.52 3.14 4.52h18.76a7.43 7.43 0 0 0 6.49-4.52z"/>
    <path class="cls-2" d="m919.77 620.35 49-132.13c0.92-2.49-0.48-4.52-3.14-4.52h-18.79a7.43 7.43 0 0 0-6.49 4.52l-49 132.13c-0.92 2.49 0.48 4.52 3.14 4.52h18.75a7.43 7.43 0 0 0 6.53-4.52z"/>
    <path class="cls-2" d="m979.39 459.08 56.5-152.46c0.92-2.49-0.48-4.52-3.14-4.52h-18.75a7.43 7.43 0 0 0-6.49 4.52l-56.51 152.46c-0.92 2.49 0.48 4.52 3.14 4.52h18.76a7.43 7.43 0 0 0 6.49-4.52z"/>
   </g>
  </g>
  <g aria-label="November 2-4, 2018 Vanderbilt University">
   <path d="m120.37 592.82v-44.096h-4.224v36.672l-22.272-36.672h-4.544v44.096h4.224v-36.928l22.464 36.928z"/>
   <path d="m144.93 593.46c8.512 0 15.616-6.208 15.616-15.68s-7.104-15.488-15.616-15.488-15.616 6.016-15.616 15.488 7.104 15.68 15.616 15.68zm0-4.224c-6.208 0-11.392-4.544-11.392-11.456s5.184-11.264 11.392-11.264 11.392 4.352 11.392 11.264-5.184 11.456-11.392 11.456z"/>
   <path d="m164.46 562.93 12.352 29.888h4.608-0.064l12.416-29.888h-4.544l-10.112 24.896-10.176-24.896z"/>
   <path d="m212.79 593.46c6.016 0 11.2-3.136 13.632-8.448-1.344-0.32-3.008-0.64-4.288-0.96-1.856 3.264-5.312 5.184-9.344 5.184-5.568 0-9.984-3.648-10.752-9.472h25.344c0.064-0.576 0.064-1.344 0.064-1.984 0-9.472-6.144-15.488-14.656-15.488s-15.104 6.016-15.104 15.488 6.592 15.68 15.104 15.68zm-10.752-17.664c0.832-5.696 5.184-9.28 10.752-9.28 5.504 0 9.472 3.584 10.304 9.28z"/>
   <path d="m261.09 576.5c0-7.296 5.184-9.984 9.92-9.984 4.608 0 7.232 3.392 7.232 8.896v17.408h4.288v-17.408c0.064-8.128-4.224-13.12-11.52-13.12-3.008 0-8.384 0.896-11.072 6.528-1.728-4.16-5.312-6.528-10.368-6.528-2.752 0-8.064 1.664-9.92 5.568v-4.928h-4.288v29.888h4.288v-16.32c0-7.296 5.184-9.984 9.92-9.984 4.608 0 7.232 3.392 7.232 8.896v17.408h4.288z"/>
   <path d="m292.49 592.82h4.288v-5.12c2.24 3.776 6.912 5.76 11.264 5.76 8.512 0 15.296-6.208 15.296-15.68s-6.784-15.488-15.296-15.488c-4.352 0-9.024 1.792-11.264 5.568v-21.12h-4.288zm26.56-15.04c0 6.656-4.8 11.392-11.008 11.392-6.08 0-11.264-4.032-11.264-11.392s5.888-11.2 11.264-11.2c6.208 0 11.008 4.352 11.008 11.2z"/>
   <path d="m344.67 593.46c6.016 0 11.2-3.136 13.632-8.448-1.344-0.32-3.008-0.64-4.288-0.96-1.856 3.264-5.312 5.184-9.344 5.184-5.568 0-9.984-3.648-10.752-9.472h25.344c0.064-0.576 0.064-1.344 0.064-1.984 0-9.472-6.144-15.488-14.656-15.488s-15.104 6.016-15.104 15.488 6.592 15.68 15.104 15.68zm-10.752-17.664c0.832-5.696 5.184-9.28 10.752-9.28 5.504 0 9.472 3.584 10.304 9.28z"/>
   <path d="m384.97 563.44c-0.576-0.512-2.816-1.152-4.864-1.152-4.352 0-7.104 2.304-8.576 7.424v-6.784h-4.288v29.888h4.288v-11.136c0-7.936 2.496-15.104 8.576-15.104 1.088 0 2.944 0.32 4.352 1.024z"/>
   <path d="m405.58 591.34v1.472h25.536v-4.224h-18.048l13.376-15.808c2.688-3.072 4.608-6.848 4.608-10.88 0-7.232-5.824-12.16-13.056-12.16-6.464 0-11.84 3.84-12.864 10.048l3.904 1.024c0.576-4.288 4.48-6.848 8.96-6.848 4.864 0 8.832 3.072 8.832 7.936 0 2.816-1.344 5.376-3.456 7.872z"/>
   <path d="m439.16 575.86v4.032h21.824v-4.032z"/>
   <path d="m493.91 583.73h6.4v-3.904h-6.4v-29.568h-3.136l-23.36 33.472h22.272v9.088h4.224zm-18.752-3.904 14.528-21.12v21.12z"/>
   <path d="m507.47 601.26c2.56-2.112 5.504-7.04 6.016-14.4h-4.928c0.128 5.952-1.728 10.24-4.032 13.504z"/>
   <path d="m539.58 591.34v1.472h25.536v-4.224h-18.048l13.376-15.808c2.688-3.072 4.608-6.848 4.608-10.88 0-7.232-5.824-12.16-13.056-12.16-6.464 0-11.84 3.84-12.864 10.048l3.904 1.024c0.576-4.288 4.48-6.848 8.96-6.848 4.864 0 8.832 3.072 8.832 7.936 0 2.816-1.344 5.376-3.456 7.872z"/>
   <path d="m573.66 571.63c0 12.032 3.072 21.824 15.168 21.824s15.104-9.792 15.104-21.824c0-12.096-3.008-21.888-15.104-21.888s-15.168 9.792-15.168 21.888zm4.224 0c0-9.792 2.176-17.664 10.944-17.664s10.88 7.872 10.88 17.664c0 9.728-2.112 17.6-10.88 17.6s-10.944-7.872-10.944-17.6z"/>
   <path d="m618.22 592.82h4.224v-42.56l-11.456 4.16v3.84l7.232-2.496z"/>
   <path d="m636.1 560.18c0 3.264 1.408 6.08 3.712 7.936-4.352 2.368-7.168 6.784-7.168 11.776 0 7.552 6.208 13.568 14.336 13.568s14.4-6.016 14.4-13.568c0-4.992-2.88-9.408-7.232-11.776 2.368-1.856 3.904-4.672 3.904-7.936 0-5.76-4.8-10.432-11.072-10.432-6.208 0-10.88 4.672-10.88 10.432zm0.768 19.712c0-4.992 4.16-9.344 9.664-9.536h0.448c5.76 0 10.176 4.416 10.176 9.536 0 5.184-4.416 9.344-10.176 9.344s-10.112-4.16-10.112-9.344zm3.456-19.712c0-3.456 2.88-6.208 6.656-6.208 3.904 0 6.848 2.752 6.848 6.208 0 3.392-2.816 6.208-6.592 6.336h-0.576c-3.648-0.128-6.336-2.944-6.336-6.336z"/>
   <path d="m86.394 628.72h-4.352l13.248 44.096h4.416l13.184-44.096h-4.352l-11.072 37.184z"/>
   <path d="m146.1 642.93h-4.288v4.928c-2.24-3.776-6.912-5.568-11.264-5.568-8.512 0-15.296 6.016-15.296 15.488s6.784 15.68 15.296 15.68c4.352 0 9.024-1.984 11.264-5.76v5.12h4.288zm-26.56 14.848c0-6.848 4.8-11.2 11.008-11.2 5.376 0 11.264 3.84 11.264 11.2s-5.184 11.392-11.264 11.392c-6.208 0-11.008-4.736-11.008-11.392z"/>
   <path d="m160.71 656.5c0-7.296 5.184-9.984 9.92-9.984 4.608 0 7.232 3.392 7.232 8.896v17.408h4.288v-17.408c0.064-8.128-4.224-13.12-11.52-13.12-3.456 0-8.064 1.664-9.92 5.568v-4.928h-4.288v29.888h4.288z"/>
   <path d="m220.97 626.74h-4.288v21.12c-2.24-3.776-6.912-5.568-11.264-5.568-8.512 0-15.296 6.016-15.296 15.488s6.784 15.68 15.296 15.68c4.352 0 9.024-1.984 11.264-5.76v5.12h4.288zm-26.56 31.04c0-6.848 4.8-11.2 11.008-11.2 5.376 0 11.264 3.84 11.264 11.2s-5.184 11.392-11.264 11.392c-6.208 0-11.008-4.736-11.008-11.392z"/>
   <path d="m244.36 673.46c6.016 0 11.2-3.136 13.632-8.448-1.344-0.32-3.008-0.64-4.288-0.96-1.856 3.264-5.312 5.184-9.344 5.184-5.568 0-9.984-3.648-10.752-9.472h25.344c0.064-0.576 0.064-1.344 0.064-1.984 0-9.472-6.144-15.488-14.656-15.488s-15.104 6.016-15.104 15.488 6.592 15.68 15.104 15.68zm-10.752-17.664c0.832-5.696 5.184-9.28 10.752-9.28 5.504 0 9.472 3.584 10.304 9.28z"/>
   <path d="m284.65 643.44c-0.576-0.512-2.816-1.152-4.864-1.152-4.352 0-7.104 2.304-8.576 7.424v-6.784h-4.288v29.888h4.288v-11.136c0-7.936 2.496-15.104 8.576-15.104 1.088 0 2.944 0.32 4.352 1.024z"/>
   <path d="m291.05 672.82h4.288v-5.12c2.24 3.776 6.912 5.76 11.264 5.76 8.512 0 15.296-6.208 15.296-15.68s-6.784-15.488-15.296-15.488c-4.352 0-9.024 1.792-11.264 5.568v-21.12h-4.288zm26.56-15.04c0 6.656-4.8 11.392-11.008 11.392-6.08 0-11.264-4.032-11.264-11.392s5.888-11.2 11.264-11.2c6.208 0 11.008 4.352 11.008 11.2z"/>
   <path d="m334.4 672.82h-4.224v-29.888h4.224zm-5.312-41.024c0 1.792 1.472 3.072 3.264 3.072s3.264-1.28 3.264-3.072-1.472-3.072-3.264-3.072-3.264 1.28-3.264 3.072z"/>
   <path d="m349.02 626.74h-4.224v46.08h4.224z"/>
   <path d="m365.7 672.82v-26.048h6.336v-3.84h-6.336v-11.2h-4.288v11.2h-5.376v3.84h5.376v26.048z"/>
   <path d="m411.31 669.23c-6.208 0-11.392-4.416-11.392-11.328v-29.184h-4.224v29.184c0 9.472 7.104 15.552 15.616 15.552s15.616-6.08 15.616-15.552v-29.184h-4.224v29.184c0 6.912-5.184 11.328-11.392 11.328z"/>
   <path d="m441.96 656.5c0-7.296 5.184-9.984 9.92-9.984 4.608 0 7.232 3.392 7.232 8.896v17.408h4.288v-17.408c0.064-8.128-4.224-13.12-11.52-13.12-3.456 0-8.064 1.664-9.92 5.568v-4.928h-4.288v29.888h4.288z"/>
   <path d="m477.65 672.82h-4.224v-29.888h4.224zm-5.312-41.024c0 1.792 1.472 3.072 3.264 3.072s3.264-1.28 3.264-3.072-1.472-3.072-3.264-3.072-3.264 1.28-3.264 3.072z"/>
   <path d="m484.4 642.93 12.352 29.888h4.608-0.064l12.416-29.888h-4.544l-10.112 24.896-10.176-24.896z"/>
   <path d="m532.73 673.46c6.016 0 11.2-3.136 13.632-8.448-1.344-0.32-3.008-0.64-4.288-0.96-1.856 3.264-5.312 5.184-9.344 5.184-5.568 0-9.984-3.648-10.752-9.472h25.344c0.064-0.576 0.064-1.344 0.064-1.984 0-9.472-6.144-15.488-14.656-15.488s-15.104 6.016-15.104 15.488 6.592 15.68 15.104 15.68zm-10.752-17.664c0.832-5.696 5.184-9.28 10.752-9.28 5.504 0 9.472 3.584 10.304 9.28z"/>
   <path d="m573.03 643.44c-0.576-0.512-2.816-1.152-4.864-1.152-4.352 0-7.104 2.304-8.576 7.424v-6.784h-4.288v29.888h4.288v-11.136c0-7.936 2.496-15.104 8.576-15.104 1.088 0 2.944 0.32 4.352 1.024z"/>
   <path d="m577.06 664.24c0.256 5.824 5.376 9.216 10.432 9.216 6.208 0 10.944-3.584 10.944-8.768 0-4.096-1.92-7.36-7.552-8.704l-4.096-0.96c-2.112-0.512-5.056-1.536-4.416-4.992 0.32-2.112 2.688-3.648 5.568-3.648 2.56 0 4.736 1.344 5.248 3.648h4.16c-0.768-5.504-4.8-7.744-9.408-7.744-4.864 0-9.088 2.816-9.728 7.104-0.768 6.976 3.84 8.832 7.552 9.728l4.16 0.96c3.136 0.768 4.288 2.624 4.288 4.608 0 2.816-2.496 4.736-6.336 4.736-5.056 0-6.464-2.944-7.04-5.184z"/>
   <path d="m610.77 672.82h-4.224v-29.888h4.224zm-5.312-41.024c0 1.792 1.472 3.072 3.264 3.072s3.264-1.28 3.264-3.072-1.472-3.072-3.264-3.072-3.264 1.28-3.264 3.072z"/>
   <path d="m627.45 672.82v-26.048h6.336v-3.84h-6.336v-11.2h-4.288v11.2h-5.376v3.84h5.376v26.048z"/>
   <path d="m648.03 687.28 18.56-44.352h-4.544l-10.176 24.32-10.112-24.32h-4.48l12.288 29.824-5.952 14.528z"/>
  </g>
  <g aria-label="®">
   <path d="m333.33 468.95h-0.80818l-1.1143-1.5551h-0.45307v1.5551h-0.67349v-4.2858h1.6286c0.91839 0 1.347 0.68573 1.347 1.3714 0 0.60002-0.35511 1.2123-1.0531 1.3347zm-2.3756-3.6123v1.396h0.93063c0.45307 0 0.71022-0.34287 0.71022-0.69798 0-0.3551-0.25715-0.69797-0.68573-0.69797zm-3.6001 1.4204c0 2.3878 1.8858 4.3225 4.2736 4.3225s4.2858-1.9347 4.2858-4.3225-1.898-4.3348-4.2858-4.3348-4.2736 1.947-4.2736 4.3348zm0.68573 0c0-2.0082 1.5796-3.6368 3.5878-3.6368 2.0082 0 3.5878 1.6286 3.5878 3.6368s-1.5796 3.6246-3.5878 3.6246c-2.0082 0-3.5878-1.6164-3.5878-3.6246z" stroke-width=".30613"/>
  </g>
 </g>
</svg>
