<?xml version="1.0" encoding="UTF-8"?>
<svg width="746.15" height="687.22" data-name="Layer 1" version="1.1" viewBox="0 0 746.15 687.22" xmlns="http://www.w3.org/2000/svg" xmlns:cc="http://creativecommons.org/ns#" xmlns:dc="http://purl.org/dc/elements/1.1/" xmlns:rdf="http://www.w3.org/1999/02/22-rdf-syntax-ns#">
 <metadata>
  <rdf:RDF>
   <cc:Work rdf:about="">
    <dc:format>image/svg+xml</dc:format>
    <dc:type rdf:resource="http://purl.org/dc/dcmitype/StillImage"/>
    <dc:title>VH Logo and Date</dc:title>
   </cc:Work>
  </rdf:RDF>
 </metadata>
 <defs>
  <clipPath id="clip-path" transform="translate(-228.28 -123.99)">
   <path class="cls-1" d="m779 509.74 141.15-380.83c1-2.64-0.51-4.78-3.33-4.78h-24.15a7.87 7.87 0 0 0-6.87 4.78l-141.14 380.83c-1 2.64 0.51 4.78 3.33 4.78h24.15a7.87 7.87 0 0 0 6.86-4.78z" fill="none"/>
  </clipPath>
 </defs>
 <title>VH Logo and Date</title>
 <g fill="#ed725a">
  <g id="VANDYHACKSV" transform="translate(-180.33 -.12472)">
   <title>VandyHacks V Text</title>
   <g fill="#ed725a">
    <path d="m202.6 521.41-22.267-50.95h8.2427l18.478 42.896 18.517-42.896h8.2037l-22.228 50.95z"/>
    <path d="m267.28 477.26-10.704 25.355h21.447zm-4.4534-6.791h8.9459l22.228 50.95h-8.2037l-5.3128-13.07h-26.291l-5.3128 13.07h-8.3209z"/>
    <path d="m313.18 470.46h10.626l25.861 42.623v-42.623h7.6568v50.95h-10.626l-25.861-42.623v42.623h-7.6567z"/>
    <path d="m391.62 476.13v39.62h9.5319q12.071 0 17.657-4.7776 5.6254-4.7776 5.6254-15.084 0-10.238-5.6254-14.981-5.5863-4.7776-17.657-4.7776zm-7.8911-5.6649h16.212q16.954 0 24.884 6.1768 7.9302 6.1426 7.9302 19.247 0 13.173-7.9693 19.349-7.9693 6.1768-24.845 6.1768h-16.212z"/>
    <path d="m443.61 470.46h8.4771l16.173 20.953 16.056-20.953h8.4771l-20.626 26.686v24.263h-7.9302v-24.263z"/>
    <path d="m503.36 474.13q-1.2908 0-2.4043 0.46312-1.1134 0.46311-2.0397 1.3893t-1.3992 2.0594q-0.47297 1.1233-0.47297 2.4042 0 1.2711 0.47297 2.3944 0.47297 1.1134 1.3992 2.0397t2.0397 1.3992q1.1134 0.46311 2.4043 0.46311 1.3007 0 2.4141-0.46311 1.1233-0.47297 2.0495-1.3992 0.91637-0.91638 1.3696-2.0298 0.46311-1.1134 0.46311-2.4043 0-1.3105-0.46311-2.424-0.46312-1.1233-1.3696-2.0397-0.92623-0.92623-2.0495-1.3893-1.1134-0.46312-2.4141-0.46312zm0-1.0149q1.4977 0 2.7885 0.54194 1.3007 0.54195 2.3747 1.616 1.074 1.074 1.6061 2.3648t0.53209 2.8082q0 1.4977-0.53209 2.7886-0.53209 1.281-1.6061 2.355-1.074 1.074-2.3747 1.616-1.2908 0.54194-2.7885 0.54194-1.4977 0-2.7984-0.54194-1.2908-0.54195-2.3648-1.616-1.074-1.074-1.6061-2.355-0.53209-1.2908-0.53209-2.7886 0-1.5174 0.53209-2.8082t1.6061-2.3648q1.074-1.074 2.3648-1.616 1.3007-0.54194 2.7984-0.54194zm-0.26605 4.0794h-1.212v2.7196h1.212q1.0839 0 1.5076-0.30545 0.43355-0.30546 0.43355-1.0445 0-0.74886-0.43355-1.0543-0.43356-0.31532-1.5076-0.31532zm0.069-1.0149q1.7342 0 2.5915 0.59121 0.85726 0.58136 0.85726 1.7736 0 0.8474-0.52224 1.3992-0.51238 0.55179-1.4583 0.7193 0.23648 0.0788 0.56165 0.46312 0.33502 0.37443 0.78828 1.0937l1.3499 2.1973h-1.6948l-1.2711-2.0594q-0.58135-0.94594-0.94593-1.1923-0.35473-0.25619-0.88682-0.25619h-0.65033v3.5078h-1.5273v-8.2375z"/>
    <path d="m517.92 470.43h7.8911v20.885h28.674v-20.885h7.8911v50.95h-7.8911v-24.263h-28.674v24.263h-7.8911z"/>
    <path d="m608.28 477.22-10.704 25.355h21.447zm-4.4534-6.791h8.9459l22.228 50.95h-8.2037l-5.3128-13.07h-26.291l-5.3128 13.07h-8.3209z"/>
    <path d="m696.44 474.35v7.2688q-3.9846-3.242-8.5162-4.8459-4.4925-1.6039-9.5709-1.6039-10.001 0-15.314 5.3577-5.3128 5.3236-5.3128 15.425 0 10.067 5.3128 15.425 5.3128 5.3236 15.314 5.3236 5.0785 0 9.5709-1.6039 4.5315-1.6039 8.5162-4.8459v7.2005q-4.1409 2.4571-8.7896 3.6856-4.6097 1.2285-9.7663 1.2285-13.243 0-20.861-7.064-7.6177-7.0982-7.6177-19.349 0-12.285 7.6177-19.349 7.6177-7.0982 20.861-7.0982 5.2347 0 9.8444 1.2285 4.6487 1.1944 8.7115 3.6173z"/>
    <path d="m719.41 470.43h7.8911v21.533l26.174-21.533h10.157l-28.947 23.752 31.018 27.198h-10.391l-28.01-24.536v24.536h-7.8911z"/>
    <path d="m817.57 472.1v6.7228q-4.4925-1.8769-8.4771-2.7983-3.9846-0.9214-7.6958-0.9214-6.4457 0-9.9616 2.184-3.4768 2.184-3.4768 6.2109 0 3.3785 2.3048 5.1189 2.3439 1.7063 8.8287 2.7642l4.7659 0.85314q8.8287 1.4674 13.009 5.1871 4.219 3.6856 4.219 9.8965 0 7.4053-5.7035 11.227-5.6644 3.8221-16.642 3.8221-4.1409 0-8.8287-0.81902-4.6487-0.81902-9.6491-2.4229v-7.0982q4.805 2.3547 9.4147 3.5491 4.6097 1.1944 9.0631 1.1944 6.7583 0 10.43-2.3206t3.6721-6.6204q0-3.7538-2.6564-5.8696-2.6174-2.1158-8.6334-3.1737l-4.805-0.81902q-8.8287-1.5357-12.774-4.8117-3.9456-3.2761-3.9456-9.1116 0-6.7569 5.43-10.647 5.4691-3.8903 15.04-3.8903 4.1018 0 8.3599 0.64839 4.2581 0.64838 8.7115 1.9452z"/>
    <path d="m895.3 521.38-22.267-50.95h8.2427l18.478 42.896 18.517-42.896h8.2037l-22.228 50.95z"/>
   </g>
  </g>
  <g id="Date" transform="matrix(.82007 0 0 .82007 -71.628 108.8)" font-family="sans-serif" font-size="40px" letter-spacing="0px" text-align="center" text-anchor="middle" word-spacing="0px" style="line-height:1.25" aria-label="November 2-4, 2018 Vanderbilt University">
   <title>Date Text</title>
   <g fill="#ed725a">
    <path d="m188.02 552.24h9.2969l22.627 42.69v-42.69h6.6992v51.03h-9.2969l-22.627-42.69v42.69h-6.6992z"/>
    <path d="m254.94 569.4q-5.0586 0-7.998 3.9648-2.9394 3.9307-2.9394 10.801 0 6.8701 2.9053 10.835 2.9395 3.9307 8.0322 3.9307 5.0244 0 7.9639-3.9648 2.9394-3.9648 2.9394-10.801 0-6.8018-2.9394-10.767-2.9395-3.999-7.9639-3.999zm0-5.332q8.2031 0 12.886 5.332t4.6826 14.766q0 9.3994-4.6826 14.766-4.6826 5.332-12.886 5.332-8.2373 0-12.92-5.332-4.6484-5.3662-4.6484-14.766 0-9.4336 4.6484-14.766 4.6826-5.332 12.92-5.332z"/>
    <path d="m278.39 564.99h6.665l11.963 32.129 11.963-32.129h6.665l-14.355 38.281h-8.5449z"/>
    <path d="m357.07 582.56v3.0762h-28.916q0.41016 6.4941 3.8965 9.9121 3.5205 3.3838 9.7754 3.3838 3.623 0 7.0068-0.88867 3.418-0.88867 6.7676-2.666v5.9473q-3.3838 1.4356-6.9385 2.1875t-7.2119 0.75195q-9.1602 0-14.526-5.332-5.332-5.332-5.332-14.424 0-9.3994 5.0586-14.902 5.0928-5.5371 13.706-5.5371 7.7246 0 12.202 4.9902 4.5117 4.9561 4.5117 13.501zm-6.2891-1.8457q-0.0684-5.1611-2.9053-8.2373-2.8027-3.0762-7.4512-3.0762-5.2637 0-8.4424 2.9736-3.1445 2.9736-3.623 8.374z"/>
    <path d="m397.2 572.34q2.3584-4.2383 5.6396-6.2549t7.7246-2.0166q5.9814 0 9.2285 4.2041 3.2471 4.1699 3.2471 11.895v23.105h-6.3232v-22.9q0-5.5029-1.9482-8.1689-1.9482-2.666-5.9473-2.666-4.8877 0-7.7246 3.2471-2.8369 3.2471-2.8369 8.8525v21.636h-6.3232v-22.9q0-5.5371-1.9482-8.1689-1.9482-2.666-6.0156-2.666-4.8193 0-7.6562 3.2812-2.8369 3.2471-2.8369 8.8184v21.636h-6.3232v-38.281h6.3232v5.9473q2.1533-3.5205 5.1611-5.1953 3.0078-1.6748 7.1436-1.6748 4.1699 0 7.0752 2.1191 2.9394 2.1191 4.3408 6.1523z"/>
    <path d="m463.1 584.16q0-6.9385-2.8711-10.869-2.8369-3.9648-7.8272-3.9648-4.9902 0-7.8613 3.9648-2.8369 3.9307-2.8369 10.869 0 6.9385 2.8369 10.903 2.8711 3.9307 7.8613 3.9307 4.9902 0 7.8272-3.9307 2.8711-3.9648 2.8711-10.903zm-21.396-13.364q1.9824-3.418 4.9902-5.0586 3.042-1.6748 7.2461-1.6748 6.9727 0 11.313 5.5371 4.375 5.5371 4.375 14.561 0 9.0234-4.375 14.561-4.3408 5.5371-11.313 5.5371-4.2041 0-7.2461-1.6406-3.0078-1.6748-4.9902-5.0928v5.7422h-6.3232v-53.184h6.3232z"/>
    <path d="m512.79 582.56v3.0762h-28.916q0.41015 6.4941 3.8965 9.9121 3.5205 3.3838 9.7754 3.3838 3.623 0 7.0068-0.88867 3.418-0.88867 6.7676-2.666v5.9473q-3.3838 1.4356-6.9385 2.1875t-7.2119 0.75195q-9.1602 0-14.526-5.332-5.332-5.332-5.332-14.424 0-9.3994 5.0586-14.902 5.0928-5.5371 13.706-5.5371 7.7246 0 12.202 4.9902 4.5117 4.9561 4.5117 13.501zm-6.2891-1.8457q-0.0684-5.1611-2.9053-8.2373-2.8027-3.0762-7.4512-3.0762-5.2637 0-8.4424 2.9736-3.1445 2.9736-3.623 8.374z"/>
    <path d="m545.3 570.87q-1.0596-0.61524-2.3242-0.88867-1.2305-0.30762-2.7344-0.30762-5.332 0-8.2031 3.4863-2.8369 3.4521-2.8369 9.9463v20.166h-6.3232v-38.281h6.3232v5.9473q1.9824-3.4863 5.1611-5.1611 3.1787-1.709 7.7246-1.709 0.64942 0 1.4356 0.10254 0.78613 0.0684 1.7432 0.23926z"/>
    <path d="m581.09 597.46h24.097v5.8106h-32.402v-5.8106q3.9307-4.0674 10.698-10.903 6.8018-6.8701 8.5449-8.8525 3.3154-3.7256 4.6143-6.2891 1.333-2.5976 1.333-5.0928 0-4.0674-2.8711-6.6309-2.8369-2.5635-7.417-2.5635-3.2471 0-6.8701 1.1279-3.5889 1.1279-7.6904 3.418v-6.9726q4.1699-1.6748 7.793-2.5293t6.6309-0.85449q7.9297 0 12.646 3.9648 4.7168 3.9648 4.7168 10.596 0 3.1445-1.1963 5.9814-1.1621 2.8027-4.2725 6.6309-0.85449 0.99121-5.4346 5.7422-4.5801 4.7168-12.92 13.228z"/>
    <path d="m615.64 581.29h18.423v5.6055h-18.423z"/>
    <path d="m663.97 558.25-17.432 27.241h17.432zm-1.8115-6.0156h8.6816v33.257h7.2803v5.7422h-7.2803v12.031h-6.8701v-12.031h-23.037v-6.665z"/>
    <path d="m690.29 594.59h7.2119v5.8789l-5.6055 10.938h-4.4092l2.8027-10.938z"/>
    <path d="m740.09 597.46h24.097v5.8106h-32.402v-5.8106q3.9307-4.0674 10.698-10.903 6.8018-6.8701 8.5449-8.8525 3.3154-3.7256 4.6143-6.2891 1.333-2.5976 1.333-5.0928 0-4.0674-2.8711-6.6309-2.8369-2.5635-7.417-2.5635-3.2471 0-6.8701 1.1279-3.5889 1.1279-7.6904 3.418v-6.9726q4.1699-1.6748 7.793-2.5293 3.623-0.85449 6.6308-0.85449 7.9297 0 12.646 3.9648t4.7168 10.596q0 3.1445-1.1963 5.9814-1.1621 2.8027-4.2725 6.6309-0.8545 0.99121-5.4346 5.7422-4.5801 4.7168-12.92 13.228z"/>
    <path d="m793.48 556.79q-5.332 0-8.0322 5.2637-2.666 5.2295-2.666 15.757 0 10.493 2.666 15.757 2.7002 5.2295 8.0322 5.2295 5.3662 0 8.0322-5.2295 2.7002-5.2637 2.7002-15.757 0-10.527-2.7002-15.757-2.666-5.2637-8.0322-5.2637zm0-5.4688q8.5791 0 13.091 6.8018 4.5459 6.7676 4.5459 19.688 0 12.886-4.5459 19.688-4.5117 6.7676-13.091 6.7676-8.5791 0-13.125-6.7676-4.5117-6.8018-4.5117-19.688 0-12.92 4.5117-19.688 4.5459-6.8018 13.125-6.8018z"/>
    <path d="m824.48 597.46h11.279v-38.931l-12.271 2.4609v-6.2891l12.202-2.4609h6.9043v45.22h11.279v5.8106h-29.395z"/>
    <path d="m882.62 579.04q-4.9219 0-7.7588 2.6318-2.8027 2.6318-2.8027 7.2461t2.8027 7.2461q2.8369 2.6318 7.7588 2.6318 4.9219 0 7.7588-2.6318 2.8369-2.666 2.8369-7.2461 0-4.6143-2.8369-7.2461-2.8027-2.6318-7.7588-2.6318zm-6.9043-2.9394q-4.4434-1.0938-6.9385-4.1357-2.4609-3.042-2.4609-7.417 0-6.1182 4.3408-9.6729 4.375-3.5547 11.963-3.5547 7.6221 0 11.963 3.5547 4.3408 3.5547 4.3408 9.6729 0 4.375-2.4951 7.417-2.4609 3.042-6.8701 4.1357 4.9902 1.1621 7.7588 4.5459 2.8027 3.3838 2.8027 8.2715 0 7.417-4.5459 11.382-4.5117 3.9648-12.954 3.9648t-12.988-3.9648q-4.5117-3.9648-4.5117-11.382 0-4.8877 2.8027-8.2715 2.8027-3.3838 7.793-4.5459zm-2.5293-10.903q0 3.9648 2.4609 6.1865 2.4951 2.2217 6.9727 2.2217 4.4434 0 6.9385-2.2217 2.5293-2.2217 2.5293-6.1865t-2.5293-6.1865q-2.4951-2.2217-6.9385-2.2217-4.4775 0-6.9727 2.2217-2.4609 2.2217-2.4609 6.1865z"/>
    <path d="m196.87 690.77-19.482-51.03h7.2119l16.167 42.964 16.201-42.964h7.1777l-19.448 51.03z"/>
    <path d="m243.22 671.53q-7.6221 0-10.562 1.7432-2.9394 1.7432-2.9394 5.9473 0 3.3496 2.1875 5.332 2.2217 1.9482 6.0156 1.9482 5.2295 0 8.374-3.6914 3.1787-3.7256 3.1787-9.8779v-1.4014zm12.544-2.5977v21.841h-6.2891v-5.8106q-2.1533 3.4863-5.3662 5.1611-3.2129 1.6406-7.8613 1.6406-5.8789 0-9.3652-3.2812-3.4522-3.3154-3.4522-8.8525 0-6.46 4.3066-9.7412 4.3408-3.2812 12.92-3.2812h8.8184v-0.61523q0-4.3408-2.8711-6.6992-2.8369-2.3926-7.998-2.3926-3.2812 0-6.3916 0.78613-3.1104 0.78614-5.9814 2.3584v-5.8105q3.4522-1.333 6.6992-1.9824 3.2471-0.68359 6.3232-0.68359 8.3057 0 12.407 4.3066t4.1016 13.057z"/>
    <path d="m300.57 667.66v23.105h-6.2891v-22.9q0-5.4346-2.1191-8.1348-2.1191-2.7002-6.3574-2.7002-5.0928 0-8.0322 3.2471t-2.9394 8.8525v21.636h-6.3232v-38.281h6.3232v5.9473q2.2559-3.4522 5.2978-5.1611 3.0762-1.709 7.0752-1.709 6.5967 0 9.9805 4.1016 3.3838 4.0674 3.3838 11.997z"/>
    <path d="m338.38 658.3v-20.713h6.2891v53.184h-6.2891v-5.7422q-1.9824 3.418-5.0244 5.0928-3.0078 1.6406-7.2461 1.6406-6.9385 0-11.313-5.5371-4.3408-5.5371-4.3408-14.561 0-9.0234 4.3408-14.561 4.375-5.5371 11.313-5.5371 4.2383 0 7.2461 1.6748 3.042 1.6406 5.0244 5.0586zm-21.431 13.364q0 6.9385 2.8369 10.903 2.8711 3.9307 7.8613 3.9307 4.9902 0 7.8613-3.9307 2.8711-3.9648 2.8711-10.903 0-6.9385-2.8711-10.869-2.8711-3.9648-7.8613-3.9648-4.9902 0-7.8613 3.9648-2.8369 3.9307-2.8369 10.869z"/>
    <path d="m390.36 670.06v3.0762h-28.916q0.41015 6.4941 3.8965 9.9121 3.5205 3.3838 9.7754 3.3838 3.623 0 7.0068-0.88867 3.418-0.88867 6.7676-2.666v5.9473q-3.3838 1.4356-6.9385 2.1875t-7.2119 0.75195q-9.1602 0-14.526-5.332-5.332-5.332-5.332-14.424 0-9.3994 5.0586-14.902 5.0928-5.5371 13.706-5.5371 7.7246 0 12.202 4.9902 4.5117 4.9561 4.5117 13.501zm-6.2891-1.8457q-0.0684-5.1611-2.9053-8.2373-2.8027-3.0762-7.4512-3.0762-5.2637 0-8.4424 2.9736-3.1445 2.9736-3.623 8.374z"/>
    <path d="m422.87 658.37q-1.0596-0.61524-2.3242-0.88867-1.2305-0.30762-2.7344-0.30762-5.332 0-8.2031 3.4863-2.8369 3.4521-2.8369 9.9463v20.166h-6.3232v-38.281h6.3232v5.9473q1.9824-3.4863 5.1611-5.1611 3.1787-1.709 7.7246-1.709 0.64942 0 1.4356 0.10254 0.78613 0.0684 1.7432 0.23926z"/>
    <path d="m457.01 671.66q0-6.9385-2.8711-10.869-2.8369-3.9648-7.8272-3.9648t-7.8613 3.9648q-2.8369 3.9307-2.8369 10.869 0 6.9385 2.8369 10.903 2.8711 3.9307 7.8613 3.9307t7.8272-3.9307q2.8711-3.9648 2.8711-10.903zm-21.396-13.364q1.9824-3.418 4.9902-5.0586 3.042-1.6748 7.2461-1.6748 6.9726 0 11.313 5.5371 4.375 5.5371 4.375 14.561 0 9.0234-4.375 14.561-4.3408 5.5371-11.313 5.5371-4.2041 0-7.2461-1.6406-3.0078-1.6748-4.9902-5.0928v5.7422h-6.3232v-53.184h6.3232z"/>
    <path d="m473.97 652.49h6.2891v38.281h-6.2891zm0-14.902h6.2891v7.9639h-6.2891z"/>
    <path d="m493.38 637.59h6.2891v53.184h-6.2891z"/>
    <path d="m519.02 641.62v10.869h12.954v4.8877h-12.954v20.781q0 4.6826 1.2646 6.0156 1.2988 1.333 5.2295 1.333h6.46v5.2637h-6.46q-7.2803 0-10.049-2.7002-2.7686-2.7344-2.7686-9.9121v-20.781h-4.6143v-4.8877h4.6143v-10.869z"/>
    <path d="m562.05 639.74h6.9385v31.001q0 8.2031 2.9736 11.826 2.9736 3.5889 9.6387 3.5889 6.6309 0 9.6045-3.5889 2.9736-3.623 2.9736-11.826v-31.001h6.9385v31.855q0 9.9805-4.956 15.073-4.9219 5.0928-14.561 5.0928-9.6728 0-14.629-5.0928-4.9219-5.0928-4.9219-15.073z"/>
    <path d="m645.65 667.66v23.105h-6.2891v-22.9q0-5.4346-2.1191-8.1348-2.1191-2.7002-6.3574-2.7002-5.0928 0-8.0322 3.2471-2.9395 3.2471-2.9395 8.8525v21.636h-6.3232v-38.281h6.3232v5.9473q2.2559-3.4522 5.2978-5.1611 3.0762-1.709 7.0752-1.709 6.5967 0 9.9805 4.1016 3.3838 4.0674 3.3838 11.997z"/>
    <path d="m658.26 652.49h6.2891v38.281h-6.2891zm0-14.902h6.2891v7.9639h-6.2891z"/>
    <path d="m673.17 652.49h6.665l11.963 32.129 11.963-32.129h6.665l-14.355 38.281h-8.5449z"/>
    <path d="m751.85 670.06v3.0762h-28.916q0.41016 6.4941 3.8965 9.9121 3.5205 3.3838 9.7754 3.3838 3.623 0 7.0068-0.88867 3.418-0.88867 6.7676-2.666v5.9473q-3.3838 1.4356-6.9385 2.1875-3.5547 0.75195-7.2119 0.75195-9.1602 0-14.526-5.332-5.332-5.332-5.332-14.424 0-9.3994 5.0586-14.902 5.0928-5.5371 13.706-5.5371 7.7246 0 12.202 4.9902 4.5117 4.9561 4.5117 13.501zm-6.2891-1.8457q-0.0684-5.1611-2.9053-8.2373-2.8027-3.0762-7.4512-3.0762-5.2637 0-8.4424 2.9736-3.1445 2.9736-3.623 8.374z"/>
    <path d="m784.35 658.37q-1.0596-0.61524-2.3242-0.88867-1.2305-0.30762-2.7344-0.30762-5.332 0-8.2031 3.4863-2.8369 3.4521-2.8369 9.9463v20.166h-6.3232v-38.281h6.3232v5.9473q1.9824-3.4863 5.1611-5.1611 3.1787-1.709 7.7246-1.709 0.64941 0 1.4356 0.10254 0.78613 0.0684 1.7432 0.23926z"/>
    <path d="m815.42 653.62v5.9473q-2.666-1.3672-5.5371-2.0508-2.8711-0.6836-5.9473-0.6836-4.6826 0-7.041 1.4356-2.3242 1.4356-2.3242 4.3066 0 2.1875 1.6748 3.4522 1.6748 1.2305 6.7334 2.3584l2.1533 0.47851q6.6992 1.4356 9.502 4.0674 2.8369 2.5977 2.8369 7.2803 0 5.332-4.2383 8.4424-4.2041 3.1104-11.587 3.1104-3.0762 0-6.4258-0.61523-3.3154-0.58106-7.0068-1.7774v-6.4941q3.4863 1.8115 6.8701 2.7344 3.3838 0.88867 6.6992 0.88867 4.4434 0 6.8359-1.5039 2.3926-1.5381 2.3926-4.3066 0-2.5635-1.7432-3.9307-1.709-1.3672-7.5537-2.6318l-2.1875-0.51269q-5.8447-1.2305-8.4424-3.7598-2.5977-2.5635-2.5977-7.0068 0-5.4004 3.8281-8.3398 3.8281-2.9394 10.869-2.9394 3.4863 0 6.5625 0.51269 3.0762 0.5127 5.6738 1.5381z"/>
    <path d="m827.52 652.49h6.2891v38.281h-6.2891zm0-14.902h6.2891v7.9639h-6.2891z"/>
    <path d="m853.16 641.62v10.869h12.954v4.8877h-12.954v20.781q0 4.6826 1.2646 6.0156 1.2988 1.333 5.2295 1.333h6.46v5.2637h-6.46q-7.2803 0-10.049-2.7002-2.7686-2.7344-2.7686-9.9121v-20.781h-4.6143v-4.8877h4.6143v-10.869z"/>
    <path d="m890.34 694.32q-2.666 6.8359-5.1953 8.9209-2.5293 2.085-6.7676 2.085h-5.0244v-5.2637h3.6914q2.5977 0 4.0332-1.2305 1.4356-1.2305 3.1787-5.8106l1.1279-2.8711-15.483-37.666h6.665l11.963 29.941 11.963-29.941h6.665z"/>
   </g>
  </g>
  <g id="VH" transform="matrix(1.21 0 0 1.21 -721.89 -365.6)">
   <title>VandyHacks Logo</title>
   <g fill="#ed725a">
    <path class="cls-2" d="m753.57 306.74 116.1 313.26c0.92 2.49-0.48 4.52-3.14 4.52h-18.76a7.43 7.43 0 0 1-6.49-4.52l-116.1-313.26c-0.92-2.49 0.48-4.52 3.14-4.52h18.75a7.43 7.43 0 0 1 6.5 4.52z"/>
    <path class="cls-2" d="m801.29 306.74 92.71 249.36c0.93 2.49-0.48 4.52-3.14 4.52h-18.72a7.44 7.44 0 0 1-6.5-4.52l-92.74-249.36c-0.93-2.49 0.48-4.52 3.14-4.52h18.75a7.44 7.44 0 0 1 6.5 4.52z"/>
    <path class="cls-2" d="m871.77 620.34 116.23-313.61c0.92-2.49-0.48-4.52-3.14-4.52h-18.76a7.43 7.43 0 0 0-6.49 4.52l-116.23 313.61c-0.92 2.49 0.48 4.52 3.14 4.52h18.75a7.43 7.43 0 0 0 6.5-4.52z"/>
    <path class="cls-2" d="m968.49 620.34 116.23-313.61c0.92-2.49-0.48-4.52-3.14-4.52h-18.75a7.43 7.43 0 0 0-6.49 4.52l-116.24 313.61c-0.92 2.49 0.48 4.52 3.14 4.52h18.76a7.43 7.43 0 0 0 6.49-4.52z"/>
    <path class="cls-2" d="m919.77 620.35 49-132.13c0.92-2.49-0.48-4.52-3.14-4.52h-18.79a7.43 7.43 0 0 0-6.49 4.52l-49 132.13c-0.92 2.49 0.48 4.52 3.14 4.52h18.75a7.43 7.43 0 0 0 6.53-4.52z"/>
    <path class="cls-2" d="m979.39 459.08 56.5-152.46c0.92-2.49-0.48-4.52-3.14-4.52h-18.75a7.43 7.43 0 0 0-6.49 4.52l-56.51 152.46c-0.92 2.49 0.48 4.52 3.14 4.52h18.76a7.43 7.43 0 0 0 6.49-4.52z"/>
   </g>
  </g>
 </g>
</svg>
