<svg id="Layer_1" data-name="Layer 1" xmlns="http://www.w3.org/2000/svg" xmlns:xlink="http://www.w3.org/1999/xlink" viewBox="0 0 3589.84 2426.84" preserveAspectRatio="none">
  <defs>
    <style>
      .cls-1 {
        fill: none;
      }

      .cls-2 {
        clip-path: url(#clip-path);
      }

      .cls-3 {
        fill: #1a1756;
      }

      .cls-4 {
        fill: #1d1d63;
      }

      .cls-5 {
        fill: #0c826a;
      }

      .cls-6 {
        fill: #04a09d;
      }

      .cls-7 {
        fill: #12123d;
      }

      .cls-8 {
        fill: #090935;
      }

      .cls-9 {
        fill: #39396b;
      }

      .cls-10 {
        fill: #070723;
      }

      .cls-11 {
        fill: #09092d;
      }

      .cls-12 {
        fill: #141451;
      }

      .cls-13 {
        fill: #0f0b2e;
      }

      .cls-14 {
        fill: #04031c;
      }

      .cls-15 {
        fill: #262666;
      }

      .cls-16 {
        fill: #1e1a63;
      }
    </style>
    <clipPath id="clip-path" transform="translate(1440.56 -447.8)">
      <rect class="cls-1" x="-3" y="582" width="1920" height="2271"/>
    </clipPath>
  </defs>
  <title>Background 1</title>
  <g class="cls-2">
    <rect class="cls-3" x="1444.56" y="1214.2" width="1920" height="1081"/>
    <rect class="cls-3" x="1444.56" y="134.2" width="1920" height="1080"/>
    <polygon class="cls-4" points="3147.56 2117.2 2271.33 94.2 0 166.88 3147.56 2117.2"/>
    <polygon class="cls-4" points="3135.53 2137.57 1253.7 1706.83 1289.42 2426.84 3135.53 2137.57"/>
    <polygon class="cls-5" points="3151.27 2129.64 1400.23 97.09 58.86 59.76 3151.27 2129.64"/>
    <polygon class="cls-6" points="3152.97 2164.15 3589.84 96.75 2725.72 0 3152.97 2164.15"/>
    <g>
      <g>
        <rect class="cls-7" x="1467.95" y="2456.63" width="127.99" height="204.52" transform="translate(1219.52 -301.75) rotate(-5.09)"/>
        <circle class="cls-8" cx="1535.34" cy="2597.01" r="41.62" transform="translate(1216.15 -301.3) rotate(-5.09)"/>
        <circle class="cls-9" cx="1535.46" cy="2597.34" r="15.22" transform="translate(1216.12 -301.29) rotate(-5.09)"/>
        <path class="cls-9" d="M1532,2559.12a38,38,0,1,0,41.27,34.51A38,38,0,0,0,1532,2559.12Zm6.16,69.09a31.33,31.33,0,1,1,28.42-34A31.33,31.33,0,0,1,1538.12,2628.21Z" transform="translate(1440.56 -447.8)"/>
        <circle class="cls-10" cx="1469.56" cy="2471.45" r="4.7" transform="translate(1227.03 -307.63) rotate(-5.09)"/>
        <circle class="cls-10" cx="1486.01" cy="2655.99" r="4.7" transform="translate(1210.72 -305.44) rotate(-5.09)"/>
        <circle class="cls-10" cx="1577.89" cy="2461.79" r="4.7" transform="translate(1228.31 -298.06) rotate(-5.09)"/>
        <circle class="cls-10" cx="1594.33" cy="2646.34" r="4.7" transform="translate(1212 -295.87) rotate(-5.09)"/>
        <circle class="cls-8" cx="1527" cy="2505.87" r="27.52" transform="translate(1224.2 -302.4) rotate(-5.09)"/>
        <circle class="cls-9" cx="1527.08" cy="2506.75" r="10.06" transform="translate(1224.12 -302.39) rotate(-5.09)"/>
        <path class="cls-9" d="M1524.77,2480.81a25.16,25.16,0,1,0,27.29,22.82A25.16,25.16,0,0,0,1524.77,2480.81Zm4.07,45.69a20.72,20.72,0,1,1,18.8-22.47A20.72,20.72,0,0,1,1528.84,2526.5Z" transform="translate(1440.56 -447.8)"/>
      </g>
      <polyline class="cls-11" points="3074.75 2171.8 3045.02 2207.36 3026.87 2003.54 3057.11 1967.36"/>
      <polygon class="cls-12" points="2899.69 2015.07 2930.06 1978.68 3057.19 1967.32 3027.08 2003.41 2899.69 2015.07"/>
    </g>
    <g>
      <g>
        <rect class="cls-13" x="1602.71" y="2359.24" width="203.77" height="325.67" transform="translate(1801.9 -657.42) rotate(7.87)"/>
        <circle class="cls-14" cx="1696.26" cy="2582.42" r="66.26" transform="translate(346.52 3461.42) rotate(-82.13)"/>
        <circle class="cls-15" cx="1695.96" cy="2584.53" r="24.22" transform="translate(344.17 3462.95) rotate(-82.13)"/>
        <path class="cls-15" d="M1704.55,2522.43a60.56,60.56,0,1,0,51.7,68.28A60.56,60.56,0,0,0,1704.55,2522.43Zm-15.12,109.4a49.87,49.87,0,1,1,56.23-42.58A49.87,49.87,0,0,1,1689.43,2631.82Z" transform="translate(1440.56 -447.8)"/>
        <circle class="cls-14" cx="1639.03" cy="2364.12" r="7.48" transform="translate(513.36 3216.32) rotate(-82.13)"/>
        <circle class="cls-14" cx="1598.65" cy="2656.32" r="7.48" transform="translate(189.07 3428.52) rotate(-82.13)"/>
        <circle class="cls-14" cx="1810.54" cy="2387.82" r="7.48" transform="translate(637.92 3406.66) rotate(-82.13)"/>
        <circle class="cls-14" cx="1770.16" cy="2680.02" r="7.48" transform="translate(313.62 3618.87) rotate(-82.13)"/>
        <circle class="cls-14" cx="1715.85" cy="2438.04" r="43.82" transform="translate(506.45 3356.21) rotate(-82.13)"/>
        <circle class="cls-15" cx="1715.66" cy="2439.44" r="16.02" transform="translate(504.9 3357.22) rotate(-82.13)"/>
        <path class="cls-15" d="M1721.33,2398.36a40,40,0,1,0,34.19,45.15A40,40,0,0,0,1721.33,2398.36Zm-10,72.34a33,33,0,1,1,37.19-28.16A33,33,0,0,1,1711.33,2470.71Z" transform="translate(1440.56 -447.8)"/>
      </g>
      <polyline class="cls-14" points="3282.13 2204.89 3223.31 2249.43 3267.88 1926.88 3327.72 1881.58"/>
      <polygon class="cls-16" points="3066.51 1899.06 3126.35 1853.75 3326.83 1881.45 3267.5 1926.37 3066.51 1899.06"/>
    </g>
  </g>
</svg>
